<svg width="682" height="630" viewBox="0 0 682 630" fill="none" xmlns="http://www.w3.org/2000/svg">
<path d="M35.7333 1.15055C22 3.15055 8.8 13.1505 3.06667 25.6839L0 32.4839V315.151V597.817L2.8 603.951C7.06667 613.151 14.9333 621.017 24 625.417L32 629.151H165.733H299.467L302.667 625.951C308.933 619.684 308.4 611.017 301.467 605.951C297.867 603.151 296.667 603.151 167.2 602.751C47.2 602.484 36.2667 602.217 33.0667 600.217C25.6 595.284 26 607.017 26 371.817V154.484H340.667H655.333V371.817C655.333 607.017 655.733 595.284 648.267 600.217C645.067 602.217 634.533 602.484 522 602.751L399.067 603.151L395.2 607.551C389.867 613.417 389.867 619.951 395.2 625.284L399.067 629.151H524.267H649.333L657.333 625.417C666.4 621.017 674.267 613.151 678.533 603.951L681.333 597.817V315.151V32.4839L678.267 25.6839C672.4 12.6172 659.467 3.28388 644.4 1.15055C634.267 -0.44945 45.8667 -0.316116 35.7333 1.15055ZM648.267 30.0839C654.933 34.4839 655.333 37.5505 655.333 84.4839V127.817H340.667H26V84.6172C26 58.2172 26.5333 39.8172 27.3333 37.5505C28.1333 35.5505 30.4 32.4839 32.4 30.8839L36 27.8172H340.4C624.933 27.8172 644.933 27.9505 648.267 30.0839Z" fill="white"/>
<path d="M84.5333 65.6838C81.8667 66.6172 79.0667 68.8838 77.6 71.5505C75.3333 75.4172 75.2 76.7505 76.5333 81.1505C79.4667 90.8838 90.9333 93.8172 98.1333 86.6172C103.2 81.5505 103.333 75.0172 98.6667 69.4172C94.8 64.7505 90.6667 63.6838 84.5333 65.6838Z" fill="white"/>
<path d="M151.733 64.8838C146.533 65.6838 142 71.5505 142 77.4172C142 92.8838 164.8 95.2838 167.733 80.0838C168.4 76.2172 166 68.7505 163.467 67.1505C160.8 65.5505 154.8 64.3505 151.733 64.8838Z" fill="white"/>
<path d="M216.533 65.6839C210.267 67.6839 206.533 75.2839 208.667 81.6839C211.733 91.0172 223.067 93.5505 230.133 86.6172C235.2 81.5505 235.333 75.0172 230.667 69.4172C226.8 64.7505 222.667 63.6839 216.533 65.6839Z" fill="white"/>
<path d="M331.733 64.7505C330.133 65.0172 327.333 66.7505 325.6 68.6172C320 74.0838 320 81.5505 325.6 87.0172L329.067 90.4838H462.933H596.933L600.8 86.6172C606.133 81.2838 606.133 74.7505 600.8 68.8838L596.933 64.4838L465.733 64.3505C393.6 64.2172 333.333 64.3505 331.733 64.7505Z" fill="white"/>
<path d="M141.733 259.284C136.4 260.351 131.6 265.951 130.667 272.217C130.267 275.284 130 308.751 130.267 346.484C130.667 420.617 130.533 418.884 137.867 422.751C140.267 424.084 148.4 424.484 169.2 424.351C200.267 424.351 205.733 423.151 217.6 414.484C228.533 406.484 236.667 390.217 236.667 376.351C236.667 368.217 232 354.617 226.8 347.817L222.267 341.817L226.933 335.417C232.267 328.084 236.667 315.551 236.667 307.417C236.667 293.417 228.533 277.151 217.6 269.151C206.267 260.884 200 259.417 171.333 259.017C157.067 258.884 143.733 259.017 141.733 259.284ZM199.333 289.017C204.667 291.817 210 300.884 210 307.151C210 313.417 204.667 322.484 199.333 325.284C195.467 327.417 191.733 327.817 175.733 327.817H156.667V307.151V286.484H175.733C191.733 286.484 195.467 286.884 199.333 289.017ZM199.333 358.351C204.667 361.151 210 370.217 210 376.484C210 382.751 204.667 391.817 199.333 394.617C195.467 396.751 191.733 397.151 175.733 397.151H156.667V376.484V355.817H175.733C191.733 355.817 195.467 356.217 199.333 358.351Z" fill="white"/>
<path d="M265.467 263.951L261.867 268.084L262.267 330.351L262.667 392.484L266 399.151C273.067 413.551 288.533 423.817 303.467 423.817C311.333 423.817 315.867 421.151 317.867 415.417C320.933 406.884 315.733 399.684 305.2 397.684C298.267 396.484 293.467 393.551 290.8 389.151C288.933 385.817 288.667 378.884 288.667 330.084C288.667 299.684 288.267 273.017 287.867 270.617C285.6 259.817 272.267 255.817 265.467 263.951Z" fill="white"/>
<path d="M373.6 329.284C336.667 337.951 323.733 385.284 351.2 410.884C361.6 420.617 368.4 423.151 384 423.151C395.6 423.151 398.267 422.751 404.667 419.684C414.4 415.017 422.8 406.351 427.733 395.951C434.933 380.617 432.933 361.551 422.667 347.551C411.867 332.884 391.067 325.151 373.6 329.284ZM394 357.417C401.733 361.417 406.533 369.951 405.6 378.351C403.467 398.484 375.867 404.351 365.6 386.884C360.933 378.751 362.933 367.017 370.267 360.217C376.933 353.951 385.067 353.017 394 357.417Z" fill="white"/>
<path d="M490 329.951C460.667 337.817 446.133 371.017 460 398.484C464.267 407.017 476.267 417.684 485.333 421.017C494.4 424.484 510.4 424.751 517.6 421.817C520.133 420.751 522.933 419.817 523.6 419.817C524.533 419.817 524.8 424.751 524.4 432.884C523.867 447.551 521.6 453.017 514 458.084C508.8 461.684 498.533 462.217 492.667 459.151C486.8 456.084 482.133 449.017 481.2 441.951C479.6 430.351 471.467 424.751 462.267 428.617C455.733 431.284 453.467 437.684 455.333 448.084C457.467 459.551 461.867 467.551 470.533 475.551C480.933 485.017 489.867 488.217 504.667 487.551C514 487.284 517.333 486.484 523.733 483.151C533.6 478.217 543.467 467.551 547.6 457.417C550.533 450.084 550.667 448.617 550.667 408.484V367.151L547.2 359.017C542.8 348.617 537.6 342.084 529.2 336.484C521.867 331.551 509.733 327.817 502 327.951C499.467 327.951 494 328.884 490 329.951ZM510.4 356.351C520.267 360.484 525.867 371.551 523.333 381.284C520.667 391.284 513.067 397.151 502.667 397.151C495.2 397.151 489.867 394.617 485.467 388.751C477.467 378.351 480.933 363.684 492.667 357.551C499.2 354.084 504.267 353.684 510.4 356.351Z" fill="white"/>
<path d="M141.733 528.75C137.467 529.417 131.6 534.884 131.067 538.884C129.733 547.817 134.933 553.95 145.067 555.15C148.933 555.55 239.6 555.817 346.667 555.55C514.133 555.15 541.733 554.884 544.267 553.15C552.267 547.817 552.267 535.817 544.267 530.484C541.733 528.75 514.133 528.484 343.333 528.35C234.4 528.217 143.733 528.484 141.733 528.75Z" fill="white"/>
<path d="M340.4 607.817C336.8 611.551 336.4 612.617 337.067 617.551C338 624.617 342.933 629.151 349.467 629.151C359.333 629.151 365.333 620.351 361.467 611.417C357.867 602.617 347.333 600.884 340.4 607.817Z" fill="white"/>
</svg>
