<svg width="414" height="331" viewBox="0 0 414 331" fill="none" xmlns="http://www.w3.org/2000/svg">
<path d="M149.63 249.293L155.169 252.395C161.476 255.878 168.511 259.022 175.91 261.358L181.853 263.312V292.496C181.853 299.505 186.3 301.077 190.02 301.077H223.334C227.053 301.077 231.5 299.505 231.5 292.496V263.312L237.444 261.358C244.842 259.022 251.877 255.92 258.184 252.395L263.723 249.293L268.17 253.966C275.933 262.123 281.148 267.985 283.372 269.514C285.231 271.468 287.091 272.615 288.911 272.615C292.226 272.615 295.218 269.896 295.218 269.514L318.909 244.621C321.497 241.902 323.72 237.229 318.909 232.174L299.301 211.571L302.252 205.751C305.568 199.124 308.559 191.732 310.783 183.958L312.643 177.714H340.418C347.089 177.714 348.585 173.041 348.585 169.133V134.129C348.585 130.221 347.089 125.548 340.418 125.548H312.643L310.783 119.303C308.195 111.912 305.608 104.52 301.888 97.8931L298.937 92.0732L303.384 87.4004L318.586 71.4277C320.446 69.4736 321.537 67.5195 321.537 65.6079C321.537 62.8892 319.678 60.1704 318.586 58.981L294.813 34.1299C294.086 33.3652 291.498 31.0288 288.506 31.0288C286.646 31.0288 284.787 31.7935 282.967 34.1299L263.359 54.7329L257.82 51.6318C251.513 48.1484 244.478 45.0049 237.444 42.6685L231.5 41.0967V11.5303C231.5 4.13867 225.557 2.94922 222.97 2.94922H190.02C187.432 2.94922 181.853 4.09619 181.853 11.5303V41.0967L175.91 43.0508C168.875 45.3872 161.84 48.106 155.533 52.0142L149.994 55.1152L130.022 34.1299C128.162 32.1758 126.302 31.4111 124.847 31.4111C121.895 31.4111 118.904 33.7476 118.176 34.5122L94.4842 59.0234C92.9883 60.9775 89.3092 66.0327 94.4842 71.4702L114.093 92.1157L111.141 97.9355C107.826 104.562 104.834 111.954 102.611 119.346L100.751 125.59H72.9756C66.3047 125.973 64.8088 131.41 64.8088 134.936V169.558C64.8088 172.276 65.9004 178.139 72.9756 178.139H100.751L102.611 184.383C104.834 192.157 107.786 199.167 111.141 206.176L114.093 211.996L94.4842 232.599C89.673 237.654 92.6244 242.709 94.4842 245.045L117.812 269.557C118.54 269.939 121.532 272.275 124.119 272.275C125.979 272.275 127.434 271.511 129.294 269.557L149.63 249.293Z" fill="#191A23"/>
<path d="M200.693 232.981H200.37C198.955 232.854 197.539 232.684 196.124 232.514C193.901 232.216 192.364 230.05 192.647 227.713C192.93 225.377 194.992 223.763 197.216 224.06C198.469 224.23 199.763 224.4 201.016 224.485C203.24 224.655 204.898 226.736 204.736 229.073C204.534 231.324 202.755 232.981 200.693 232.981ZM216.784 232.514C214.803 232.514 213.064 230.984 212.781 228.86C212.458 226.524 214.035 224.4 216.218 224.06C217.471 223.89 218.725 223.678 219.978 223.423C222.161 222.956 224.304 224.485 224.708 226.779C225.113 229.073 223.697 231.324 221.514 231.749C220.14 232.046 218.725 232.301 217.31 232.471C217.188 232.514 216.986 232.514 216.784 232.514ZM181.004 228.393C180.519 228.393 180.074 228.308 179.589 228.138C178.255 227.628 176.92 227.034 175.627 226.439C173.565 225.504 172.635 222.998 173.565 220.832C174.454 218.665 176.839 217.688 178.901 218.665C180.074 219.217 181.246 219.727 182.459 220.194C184.562 221.001 185.613 223.465 184.845 225.674C184.198 227.331 182.661 228.393 181.004 228.393ZM236.19 226.779C234.654 226.779 233.158 225.844 232.471 224.23C231.581 222.063 232.511 219.557 234.533 218.623C235.705 218.07 236.837 217.518 237.969 216.923C239.95 215.861 242.376 216.711 243.387 218.792C244.397 220.874 243.589 223.423 241.608 224.485C240.354 225.165 239.061 225.802 237.767 226.396C237.282 226.651 236.756 226.779 236.19 226.779ZM163.296 218.325C162.446 218.325 161.638 218.07 160.91 217.518C159.778 216.626 158.646 215.691 157.555 214.757C155.816 213.27 155.573 210.594 156.988 208.767C158.404 206.94 160.951 206.686 162.689 208.172C163.659 209.022 164.67 209.872 165.721 210.636C167.541 212.038 167.905 214.672 166.57 216.584C165.762 217.73 164.508 218.325 163.296 218.325ZM253.332 215.649C252.16 215.649 251.028 215.139 250.219 214.12C248.804 212.293 249.047 209.617 250.745 208.13C251.715 207.28 252.686 206.388 253.615 205.496C255.273 203.924 257.82 204.009 259.316 205.751C260.812 207.493 260.731 210.169 259.073 211.741C258.022 212.76 256.971 213.737 255.88 214.672C255.152 215.352 254.222 215.649 253.332 215.649ZM148.822 203.584C147.609 203.584 146.436 203.032 145.628 201.97C144.738 200.781 143.889 199.591 143.081 198.359C141.787 196.448 142.272 193.771 144.091 192.455C145.911 191.095 148.458 191.605 149.711 193.517C150.439 194.621 151.207 195.683 151.975 196.745C153.35 198.614 153.026 201.248 151.288 202.692C150.56 203.287 149.711 203.584 148.822 203.584ZM266.957 200.101C266.149 200.101 265.34 199.846 264.653 199.336C262.833 198.02 262.348 195.343 263.642 193.432C264.37 192.327 265.057 191.223 265.744 190.076C266.917 188.079 269.423 187.442 271.324 188.674C273.224 189.906 273.83 192.54 272.658 194.536C271.93 195.811 271.121 197.042 270.313 198.274C269.504 199.464 268.251 200.101 266.957 200.101ZM138.714 185.275C137.138 185.275 135.601 184.298 134.954 182.642C134.429 181.282 133.903 179.838 133.458 178.436C132.731 176.227 133.863 173.806 135.965 173.041C138.067 172.276 140.372 173.466 141.1 175.675C141.504 176.949 141.949 178.181 142.434 179.413C143.283 181.58 142.272 184.086 140.21 184.936C139.765 185.148 139.24 185.275 138.714 185.275ZM276.094 181.197C275.65 181.197 275.205 181.112 274.801 180.985C272.698 180.22 271.566 177.799 272.294 175.59C272.698 174.315 273.103 173.041 273.426 171.767C274.032 169.515 276.256 168.198 278.399 168.835C280.542 169.473 281.795 171.809 281.188 174.061C280.784 175.505 280.38 176.949 279.935 178.351C279.329 180.093 277.752 181.197 276.094 181.197ZM133.782 164.757C131.76 164.757 129.981 163.143 129.779 160.977C129.618 159.49 129.496 158.003 129.415 156.516C129.294 154.18 130.992 152.183 133.216 152.056C135.439 151.928 137.34 153.712 137.461 156.049C137.542 157.366 137.623 158.725 137.784 160.042C138.027 162.378 136.45 164.46 134.227 164.715C134.065 164.757 133.903 164.757 133.782 164.757ZM279.935 160.424H279.693C277.469 160.297 275.771 158.3 275.892 155.964C275.973 154.647 276.013 153.288 276.013 151.971C276.013 149.634 277.833 147.723 280.056 147.723C282.28 147.723 284.099 149.634 284.099 151.971C284.099 153.458 284.059 154.944 283.978 156.431C283.857 158.683 282.078 160.424 279.935 160.424ZM134.307 143.602C134.105 143.602 133.863 143.602 133.661 143.56C131.437 143.177 129.981 141.011 130.345 138.674C130.588 137.188 130.83 135.743 131.154 134.256C131.639 131.962 133.782 130.518 135.965 131.028C138.148 131.538 139.523 133.789 139.038 136.083C138.755 137.4 138.512 138.717 138.31 140.034C137.946 142.115 136.248 143.602 134.307 143.602ZM279.005 143.262C277.065 143.262 275.367 141.775 275.043 139.736C274.841 138.419 274.598 137.103 274.315 135.786C273.83 133.492 275.205 131.24 277.348 130.688C279.531 130.178 281.674 131.623 282.199 133.874C282.523 135.318 282.806 136.805 283.008 138.292C283.372 140.586 281.876 142.795 279.693 143.177C279.45 143.262 279.248 143.262 279.005 143.262ZM140.251 123.381C139.685 123.381 139.078 123.254 138.512 122.957C136.491 121.937 135.642 119.431 136.571 117.307C137.178 115.947 137.825 114.63 138.512 113.313C139.563 111.232 142.03 110.467 144.011 111.614C145.992 112.719 146.719 115.31 145.628 117.392C145.021 118.581 144.455 119.771 143.889 120.96C143.242 122.489 141.787 123.381 140.251 123.381ZM272.941 123.084C271.445 123.084 269.989 122.192 269.302 120.663C268.777 119.473 268.17 118.241 267.564 117.094C266.513 115.055 267.2 112.464 269.181 111.317C271.121 110.212 273.588 110.935 274.679 113.016C275.367 114.333 276.013 115.65 276.62 117.009C277.59 119.133 276.741 121.682 274.72 122.659C274.113 122.957 273.547 123.084 272.941 123.084ZM151.288 105.625C150.358 105.625 149.388 105.285 148.62 104.562C146.922 103.033 146.76 100.357 148.215 98.5728C149.145 97.4683 150.115 96.3213 151.086 95.2593C152.622 93.5601 155.21 93.5176 156.786 95.1743C158.404 96.7886 158.444 99.5073 156.867 101.164C155.978 102.099 155.129 103.118 154.28 104.138C153.552 105.157 152.42 105.625 151.288 105.625ZM261.904 105.412C260.771 105.412 259.68 104.902 258.871 103.968C258.022 102.948 257.173 101.971 256.284 101.037C254.707 99.3374 254.747 96.6611 256.365 95.0469C257.941 93.3901 260.529 93.4326 262.065 95.1318C263.036 96.1939 264.046 97.2983 264.976 98.4028C266.432 100.187 266.27 102.863 264.612 104.393C263.763 105.072 262.833 105.412 261.904 105.412ZM166.449 91.6909C165.115 91.6909 163.862 91.0112 163.053 89.7793C161.84 87.8252 162.366 85.1914 164.225 83.917C165.398 83.1099 166.611 82.3027 167.864 81.5806C169.805 80.3911 172.271 81.1133 173.403 83.1099C174.535 85.1489 173.888 87.7402 171.947 88.9297C170.856 89.6094 169.764 90.2891 168.713 91.0537C167.985 91.4785 167.217 91.6909 166.449 91.6909ZM246.662 91.5635C245.893 91.5635 245.125 91.3511 244.478 90.8838C243.427 90.1616 242.336 89.4395 241.204 88.8023C239.263 87.6128 238.616 85.0215 239.708 82.9824C240.799 80.9434 243.306 80.2637 245.246 81.4106C246.459 82.1328 247.713 82.9399 248.885 83.7471C250.745 85.0215 251.271 87.6553 250.058 89.6094C249.289 90.8838 247.996 91.5635 246.662 91.5635ZM184.642 82.6426C182.904 82.6426 181.327 81.4956 180.802 79.669C180.114 77.4175 181.327 75.0386 183.43 74.3589C184.764 73.8916 186.179 73.5093 187.513 73.127C189.696 72.5322 191.879 73.9341 192.445 76.1855C193.011 78.4795 191.677 80.7734 189.534 81.3682C188.321 81.708 187.068 82.0478 185.855 82.4727C185.451 82.5576 185.047 82.6426 184.642 82.6426ZM228.428 82.5576C228.023 82.5576 227.619 82.5151 227.215 82.3452C226.002 81.9629 224.789 81.5806 223.536 81.2832C221.353 80.731 220.059 78.3945 220.584 76.1431C221.11 73.8491 223.334 72.4898 225.476 73.042C226.851 73.4243 228.226 73.8066 229.6 74.2314C231.743 74.9111 232.915 77.29 232.269 79.5415C231.743 81.3682 230.166 82.5576 228.428 82.5576ZM204.493 79.1167C202.31 79.1167 200.531 77.29 200.45 74.9961C200.37 72.6597 202.148 70.7056 204.372 70.6206C205.787 70.5781 207.243 70.5781 208.617 70.6206C210.841 70.6631 212.62 72.6172 212.539 74.9961C212.498 77.29 210.679 79.1167 208.496 79.1167H208.375C207.121 79.0742 205.828 79.0742 204.534 79.1167H204.493Z" fill="#191A23"/>
<path d="M223.334 309.446H190.02C180.316 309.446 173.767 302.606 173.767 292.369V269.429L173.565 269.344C165.964 266.923 158.525 263.737 151.409 259.786L150.964 259.531L134.914 275.504C132.771 277.713 129.335 280.644 124.079 280.644C119.672 280.644 115.952 278.223 114.173 277.033C114.093 276.991 114.052 276.948 113.971 276.906L113.001 276.396L88.5006 250.653L88.258 250.355C82.1127 242.624 82.3148 233.236 88.7432 226.439L104.147 210.254L103.904 209.787C101.074 203.882 97.5164 195.938 94.8885 186.677L94.8076 186.465H72.9756C61.817 186.465 56.7228 177.629 56.7228 169.388V134.809C56.7228 126.397 61.6148 117.604 72.4904 116.967H94.7672L94.848 116.712C97.193 108.896 100.346 101.037 103.945 93.8574L104.106 93.5601L88.7027 77.375C86.2769 74.8262 79.04 65.5229 88.0963 53.5859L88.3793 53.2036L112.435 28.3525C113.001 27.7578 118.055 22.7876 124.766 22.7876C128.607 22.7876 132.488 24.6567 135.682 28.0127L151.45 44.5801L151.571 44.4951C159.01 39.9072 167.177 36.9336 173.443 34.8521L173.726 34.7671V11.4453C173.726 -0.279292 182.136 -5.63184 189.979 -5.63184H222.929C224.951 -5.63184 228.832 -5.24951 232.511 -2.78564C237.039 0.272954 239.505 5.28565 239.505 11.4028V34.3423L239.788 34.4272C247.187 36.8911 254.707 40.1621 261.499 43.9854L261.782 44.1553L276.943 28.2251C280.905 23.4248 285.393 22.3628 288.425 22.3628C294.611 22.3628 299.18 26.6533 300.433 27.9702L324.125 52.8638C326.712 55.5825 329.462 60.2978 329.462 65.4805C329.462 69.6436 327.683 73.5942 324.125 77.3325L308.721 93.5176L308.802 93.645C312.845 100.867 315.554 108.683 318.222 116.245L318.424 116.924H340.256C349.959 116.924 356.509 123.764 356.509 134.001V169.005C356.509 179.201 350 186.083 340.256 186.083H318.424L318.343 186.295C316.039 194.281 313.007 202.14 309.247 209.574L309.085 209.872L324.489 226.057C328.41 230.177 330.23 235.232 329.542 240.33C329.057 244.026 327.319 247.552 324.489 250.525L301.322 274.994C298.452 278.817 293.034 281.026 288.87 281.026C285.11 281.026 281.512 279.327 278.116 275.971C276.013 274.314 273.386 271.511 268.211 266.031C266.472 264.204 264.531 262.123 262.429 259.871L262.227 259.659L261.944 259.829C254.828 263.779 247.389 267.008 239.788 269.387L239.586 269.472V292.411C239.586 302.606 233.037 309.446 223.334 309.446ZM189.939 292.454H223.334V256.94L235.018 253.117C241.648 251.035 248.117 248.231 254.303 244.791L265.138 238.716L273.83 247.849C276.013 250.143 277.954 252.225 279.693 254.094C283.129 257.79 286.727 261.57 287.779 262.377L288.466 262.845L288.991 263.439L289.194 263.652L313.088 238.546C313.168 238.461 313.209 238.376 313.29 238.334C313.249 238.249 313.168 238.206 313.088 238.121L289.234 213.058L295.015 201.673C298.29 195.216 300.918 188.376 302.94 181.452L302.98 181.367L306.619 169.175H340.418V134.129V134.086H306.619L303.061 122.107C300.554 114.928 298.169 108.173 294.854 102.269L294.692 101.971L288.911 90.5864L312.764 65.5229L312.966 65.3105C312.885 65.2256 312.845 65.1406 312.764 65.0557L289.072 40.1621C288.991 40.1196 288.951 40.0347 288.83 39.9497L264.814 65.0981L253.979 59.0234C248.117 55.7524 241.608 52.9063 235.22 50.7398L223.414 47.6387V11.4453V11.4028C223.253 11.3604 223.131 11.3604 222.97 11.3604H190.02H189.979V47.2139L178.376 51.0371C172.877 52.8638 165.762 55.4551 159.697 59.1934L159.414 59.3633L148.579 65.438L124.443 40.0772C124.2 40.2046 123.998 40.3745 123.836 40.502L100.589 64.5459C100.387 64.8008 100.266 65.0132 100.144 65.1831L100.266 65.3105L124.119 90.374L118.338 101.759C115.184 108.003 112.435 114.885 110.413 121.725L106.815 133.874H73.3799C73.299 133.874 73.2181 133.917 73.1373 133.917C73.0969 134.129 73.0564 134.384 73.0564 134.724V169.388H106.815L110.454 181.665C112.233 187.867 114.699 194.154 118.419 202.013L124.16 213.313L100.306 238.376L100.185 238.503C100.266 238.673 100.387 238.886 100.589 239.141L122.906 262.59C123.149 262.717 123.472 262.972 123.836 263.142L148.417 238.716L159.091 244.706C165.236 248.147 171.745 250.908 178.335 253.032L178.416 253.074L190.02 256.897V292.411C189.939 292.411 189.939 292.454 189.939 292.454ZM123.877 40.417L123.796 40.502C123.836 40.4595 123.877 40.4595 123.877 40.417Z" fill="white"/>
<path d="M265.017 193.899L260.569 189.566L262.025 186.677C272.9 165.097 268.938 137.995 252.403 120.79C238.818 106.644 219.21 101.376 201.057 106.559L232.915 139.694C240.233 147.298 240.274 159.745 233.037 167.434L221.716 179.456C218.199 183.194 213.55 185.233 208.536 185.275H208.455C203.523 185.275 198.833 183.279 195.316 179.583L163.457 146.448C158.727 165.564 163.942 186.125 177.527 200.271C194.063 217.476 219.897 221.341 240.314 209.702L243.063 208.13L316.686 290.032C318.95 292.581 322.022 293.983 325.338 294.025C328.653 294.068 331.766 292.709 334.071 290.245L339.65 284.34C341.995 281.876 343.208 278.605 343.167 275.122C343.086 271.638 341.712 268.41 339.286 266.073L266.513 195.301L265.017 193.899Z" fill="#191A23"/>
<path d="M270.555 187.697C275.528 176.397 277.348 163.568 275.609 151.206C277.348 163.61 275.528 176.439 270.555 187.697ZM350.485 269.684C350.647 270.364 350.808 271.043 350.93 271.766C350.808 271.043 350.687 270.364 350.485 269.684Z" fill="white"/>
<path d="M350.93 271.766C350.808 271.086 350.647 270.364 350.485 269.684C350.364 269.217 350.242 268.75 350.081 268.282C348.989 265.096 347.21 262.208 344.784 259.829L272.011 189.056L270.596 187.697C275.569 176.397 277.388 163.568 275.65 151.206C273.709 137.272 267.645 124.698 258.103 114.758C240.678 96.6611 214.763 91.1812 192.041 100.824L186.34 103.246L227.215 145.726C229.236 147.808 230.328 150.611 230.368 153.585C230.368 156.559 229.277 159.362 227.296 161.444L215.975 173.466C213.994 175.59 211.326 176.737 208.496 176.779H208.455C205.666 176.779 202.997 175.632 201.016 173.551L160.102 131.07L157.878 137.103C148.943 161.062 154.441 188.249 171.867 206.346C181.408 216.286 193.456 222.488 206.717 224.4C218.522 226.057 230.692 224.06 241.406 218.708L310.823 295.937C314.624 300.143 319.758 302.521 325.257 302.564H325.499C330.917 302.564 336.011 300.355 339.852 296.277L345.431 290.372C349.313 286.251 351.374 280.772 351.253 274.994C351.213 273.89 351.132 272.785 350.93 271.766ZM325.338 294.068C322.022 294.025 318.95 292.624 316.686 290.075L243.063 208.172L240.314 209.744C219.897 221.384 194.063 217.518 177.527 200.313C163.942 186.167 158.727 165.649 163.457 146.491L195.316 179.625C198.833 183.279 203.483 185.318 208.455 185.318H208.536C213.509 185.275 218.199 183.236 221.716 179.498L233.037 167.476C240.274 159.787 240.233 147.34 232.915 139.736L201.057 106.602C219.21 101.419 238.818 106.687 252.403 120.833C268.938 138.037 272.9 165.097 262.025 186.72L260.569 189.608L265.017 193.941L266.472 195.386L339.246 266.158C341.671 268.537 343.046 271.723 343.127 275.207C343.208 278.69 341.954 281.961 339.609 284.425L334.071 290.287C331.766 292.751 328.653 294.068 325.338 294.068Z" fill="white"/>
<path d="M339.003 264.289C338.033 264.289 337.022 263.907 336.254 263.142L270.111 198.827C268.453 197.212 268.372 194.536 269.909 192.837C271.445 191.095 273.992 191.01 275.609 192.624L341.752 256.94C343.41 258.554 343.491 261.23 341.954 262.93C341.146 263.822 340.054 264.289 339.003 264.289Z" fill="white"/>
</svg>
