<svg width="64" height="64" viewBox="0 0 64 64" fill="none" xmlns="http://www.w3.org/2000/svg">
<g clip-path="url(#clip0_3_7)">
<path d="M52 0H12C5.37258 0 0 5.37258 0 12V52C0 58.6274 5.37258 64 12 64H52C58.6274 64 64 58.6274 64 52V12C64 5.37258 58.6274 0 52 0Z" fill="black"/>
<path d="M19.2485 10.8334C16.7459 10.9982 16.6016 11.0257 16.3128 11.6849C16.0722 12.2068 16 16.7117 16 31.792C16 51.02 16.0481 52.3935 16.7941 52.9428C16.9625 53.0527 22.6173 53.1626 29.3789 53.1626C40.5441 53.1626 41.7232 53.1077 42.0119 52.6956C42.2525 52.3935 42.3488 51.4046 42.3488 49.317C42.3488 47.2294 42.2525 46.2405 42.0119 45.9383C41.7232 45.5263 40.8328 45.4714 33.8305 45.4714C29.5233 45.4714 25.8417 45.3615 25.6973 45.2516C25.4567 45.0868 25.3845 41.1588 25.3364 28.3584C25.2642 13.1133 25.2401 11.6575 24.8551 11.2454C24.3739 10.6961 23.0745 10.5862 19.2485 10.8334Z" fill="white"/>
<path d="M28.4773 28.5115C28.0062 28.7123 27.737 29.446 27.7314 30.5464C27.7258 31.1752 27.7482 31.3237 27.8941 31.7779C28.1464 32.5726 28.5783 32.9045 29.083 32.6861C29.6158 32.4678 29.8906 31.7517 29.8962 30.5901C29.9018 29.4984 29.7111 28.9132 29.2344 28.5726C28.9877 28.3979 28.7745 28.3805 28.4773 28.5115Z" fill="#FF0B0B"/>
<path d="M33.593 28.0508L33.3258 28.081L33.3422 29.0306L33.3588 29.9883L33.592 30.0313C33.9524 30.0957 34.5415 29.9455 34.728 29.732C35.0528 29.3704 35.0008 28.3974 34.6449 28.1881C34.4529 28.0797 33.9445 28.0107 33.593 28.0508Z" fill="#FF0B0B"/>
<path d="M33.4936 7.51026C29.9564 8.5266 27.1651 10.9988 26.1785 13.9929C25.5288 15.9706 25.5047 18.8274 26.1304 20.6952C27.3095 24.2387 29.9323 26.2988 36.5736 28.9358C41.2659 30.7762 42.7578 31.9574 42.7578 33.8252C42.7578 35.8854 41.1937 36.9841 38.2821 36.9841C35.7074 36.9841 32.7958 35.8305 29.9564 33.6879C28.7051 32.754 28.272 33.0286 26.4191 35.8579C24.4941 38.7971 24.5182 39.0992 26.756 40.8297C29.9804 43.3294 33.8545 44.6204 38.0896 44.6204C42.7097 44.6204 46.1506 43.2745 48.605 40.4727C50.6023 38.1653 51.0354 36.9017 51.0595 33.3583C51.0595 30.8586 50.9873 30.2818 50.4819 29.1556C49.2066 26.1615 46.6078 24.1288 41.5306 22.1511C35.4668 19.7613 34.2877 19.0196 33.9749 17.399C33.6139 15.5586 35.2742 14.1302 37.8249 14.1302C39.8221 14.1302 41.4584 14.6246 44.0331 15.9981C45.8619 16.9595 46.5116 17.1792 46.8003 16.9595C47.3778 16.5749 49.9285 12.4546 49.9526 11.9052C50.0007 10.7516 45.9581 8.30686 42.5172 7.40039C40.3515 6.82355 35.6593 6.87848 33.4936 7.51026Z" fill="white"/>
<path d="M20.5739 25.3636C20.3712 25.4137 19.9937 25.9322 19.9937 26.1663C19.9867 26.2667 19.9797 28.3071 19.9727 30.6987C19.9657 34.8631 19.9657 35.0555 20.0985 35.3147C20.3781 35.875 19.8049 35.8415 29.1301 35.8415C38.5532 35.8415 37.8751 35.8833 38.2176 35.2645L38.3784 34.9802V30.891C38.3784 26.4339 38.3784 26.459 37.973 25.9489C37.8681 25.8151 37.6584 25.6228 37.5046 25.5308L37.225 25.3468L28.9763 25.3385C24.4396 25.3301 20.6578 25.3385 20.5739 25.3636ZM29.4027 27.1531C30.1996 27.3287 30.9057 27.9308 31.2552 28.7503C31.5837 29.5113 31.6886 30.7991 31.4929 31.7022C31.3321 32.4297 31.1364 32.8645 30.7729 33.291C30.3674 33.776 29.8711 34.0603 29.2699 34.1607C27.4454 34.4701 26.1452 32.9565 26.1452 30.5315C26.1452 28.8172 27.019 27.4541 28.3262 27.1531C28.7526 27.0527 28.9344 27.0527 29.4027 27.1531ZM25.7118 27.2451C25.7607 27.3036 25.7957 27.5628 25.7957 27.8221C25.7957 28.5496 25.7677 28.5663 24.5654 28.5663H23.5588V29.3189V30.0715H24.4535C25.0547 30.0715 25.3763 30.105 25.4322 30.1719C25.4811 30.2304 25.5161 30.498 25.5161 30.7991C25.5161 31.2255 25.4951 31.3342 25.3833 31.4095C25.3064 31.4513 24.866 31.4931 24.4046 31.4931H23.5588V32.6889C23.5588 33.5084 23.5308 33.9182 23.4749 33.9851C23.426 34.0436 23.1813 34.0854 22.8597 34.0854C22.5382 34.0854 22.2935 34.0436 22.2446 33.9851C22.1817 33.9098 22.1607 33.0569 22.1607 30.6485C22.1607 27.8137 22.1747 27.3872 22.2725 27.2785C22.3634 27.1615 22.6221 27.1447 24.0062 27.1447C25.1736 27.1447 25.6489 27.1698 25.7118 27.2451ZM35.4914 27.429C35.764 27.5796 36.0017 27.7803 36.1135 27.9559C36.6727 28.8339 36.6028 30.3893 35.9737 31.1168C35.8199 31.3008 35.6242 31.4931 35.5543 31.5349C35.4354 31.6186 35.4774 31.7105 36.0296 32.5802C36.6657 33.5921 36.7846 33.8847 36.6238 34.0102C36.512 34.0938 35.5123 34.1105 35.3516 34.0353C35.2956 34.0102 34.9881 33.5252 34.6735 32.9482C34.1003 31.9196 34.0933 31.9112 33.8277 31.9112H33.555V32.898C33.555 33.5502 33.5271 33.9182 33.4711 33.9851C33.4222 34.0436 33.1845 34.0854 32.8909 34.0854C32.5973 34.0854 32.3597 34.0436 32.3107 33.9851C32.2478 33.9098 32.2269 33.0401 32.2269 30.5984C32.2269 27.5628 32.2338 27.312 32.3527 27.2284C32.4296 27.1698 32.9259 27.1531 33.7647 27.1698C35.016 27.1949 35.0719 27.2033 35.4914 27.429Z" fill="#FF0B0B"/>
</g>
<defs>
<clipPath id="clip0_3_7">
<rect width="64" height="64" fill="white"/>
</clipPath>
</defs>
</svg>
