<svg width="1365" height="544" viewBox="0 0 1365 544" fill="none" xmlns="http://www.w3.org/2000/svg">
<path d="M179.721 119.142C179.888 118.649 180.081 118.2 180.297 117.792L180.509 118.234C180.246 118.352 179.983 118.65 179.721 119.142Z" fill="black"/>
<path d="M295.596 166.145C278.676 186.901 284.768 196.625 282.334 200.418L288.956 218.106C292.483 224.166 295.532 230.667 298.032 237.543C315.349 284.399 327 341.082 327 368.5C337 401.968 331.5 383 333.5 389.5C336.5 397.21 336.69 396.5 344 412.993L352.5 422.133L366.201 436.5C353.952 438.5 655.244 465.476 675 422.004C676.829 412.221 684.119 393.556 680.827 384.803C677.412 375.664 668.754 363.049 662.169 357.256L656.803 352.622L662.291 346.701C679.241 327.907 678.876 295.726 661.437 275.774L657.901 271.655L663.632 267.279C682.046 253.248 689.973 228.919 683.51 206.264C679.851 193.906 673.022 182.321 663.144 171.766C653.876 161.854 646.194 156.962 634.974 153.616C624.121 150.398 562.293 149.496 547.782 152.328C536.197 154.645 525.343 159.794 517.904 166.488L512.904 170.993L508.758 166.488C492.417 148.467 458.15 145.12 436.809 159.408C423.151 168.419 413.273 184.638 406.444 208.581C403.883 217.591 402.786 220.037 402.176 218.106C389.737 182.064 380.347 167.26 364.25 157.992C346.202 147.566 303.886 157.992 295.596 166.145ZM354.738 173.053C367.421 180.004 373.396 191.589 379.493 221.324C380.957 228.018 385.347 250.03 389.371 270.239C395.347 300.618 397.054 307.311 399.249 309.114C402.298 311.817 402.907 311.946 405.712 309.757C407.297 308.599 409.371 299.459 414.37 272.814C427.907 198.926 430.102 190.688 438.15 181.034C444.735 173.182 453.028 169.577 466.198 168.805C477.905 168.29 487.417 171.122 494.49 177.301C499.002 181.42 504.002 191.975 504.002 197.897C504.002 202.531 504.612 200.728 467.54 316.322C453.394 360.474 440.589 398.963 439.248 401.923C432.785 415.31 423.029 423.291 409.858 425.866C401.566 427.41 390.103 425.866 383.03 422.004C376.689 418.529 369.494 410.548 366.201 403.21C364.738 399.992 351.445 358.93 336.69 312.203C320.471 260.714 307.544 221.839 303.886 213.73C300.593 206.392 297.91 198.54 297.91 196.352C298.032 186.311 307.788 174.083 318.641 170.478C322.3 169.191 328.153 168.676 335.836 168.934C346.202 169.191 348.519 169.706 354.738 173.053ZM622.292 169.835C637.901 172.538 646.925 178.459 652.169 189.658C660.217 207.036 655.462 225.572 640.95 233.038C635.462 235.87 633.389 236.127 609.243 236.771C585.219 237.415 583.146 237.543 580.829 240.118C577.659 243.336 576.195 254.535 578.269 259.555C580.829 266.249 583.268 266.892 607.658 267.665C625.34 268.18 631.072 268.823 633.999 270.497C646.681 277.705 651.193 295.726 644.12 310.272C638.877 321.342 630.096 324.303 603.39 324.303C585.342 324.303 583.512 324.56 581.073 326.877C577.659 330.353 576.683 334.601 577.537 342.582C578.39 349.919 580.586 354.167 585.341 357.385C588.146 359.316 592.415 359.831 610.707 360.346C631.682 360.989 633.023 361.118 639.608 364.593C662.535 376.436 661.437 409.775 637.779 422.133C628.145 427.024 616.804 428.44 585.098 428.569C546.928 428.569 533.758 425.351 522.904 412.993C516.807 406.171 513.636 399.349 511.441 388.922C510.587 384.288 510.1 355.969 510.1 299.459C510.1 230.206 510.344 215.532 511.929 209.353C516.563 190.559 527.538 177.043 542.05 172.281C551.44 169.191 607.902 167.518 622.292 169.835Z" fill="black"/>
<path d="M111 294.5L108.638 266.37C110.818 242.348 106.937 171.941 102.039 150.034L101.26 148.41C88.296 139.541 35.4931 146.426 72.9682 146.346C66.6269 144.93 54.5235 143.257 49.6456 144.415C42.3287 145.96 36.7191 139.524 29.5242 144.415C20.7439 150.594 29.7986 137.883 25.4084 145.863C23.9451 148.567 56.9625 143.45 57.8771 146.346C57.4198 141.036 8.94548 143.933 0.713998 144.415C-0.139637 142.227 0.0101317 137.657 0.0100659 144.415V296.749L0.0100938 371.537C1.59542 399.341 -1.0088 418.521 7.52755 433.71C13.4573 444.417 17.3776 453.179 39.7855 455.593C39.7855 455.593 172.5 447.5 180 447.5C187.5 447.5 203.958 427.113 203.958 427.113C206.082 424.699 209.429 398.118 203.958 384.5L127.102 335.5C93.1805 354.359 140.453 348.886 130.332 348.5L125.86 330.5L116.5 310.393L111 294.5ZM91.8368 358.922C95.0075 365.744 98.7879 366.645 125.86 366.645C150.738 366.774 157.567 367.933 165.493 373.597C171.347 377.716 176.103 385.697 177.81 393.935C181.59 413.372 170.127 429.591 149.64 433.71C139.762 435.641 66.3497 435.77 57.4475 433.839C42.204 430.364 30.2532 420.838 24.3997 407.451C20.1315 397.539 19.034 386.984 19.034 355.704V160.044H70.8618C79.825 156.891 85.0078 148.073 70.8618 160.044H88.7882V310.393C89.5198 348.624 90.0076 354.803 91.8368 358.922Z" fill="black"/>
<path d="M822.954 88.0075C822.787 87.7714 822.577 87.7515 820.221 85.8957C818.348 84.42 809.815 77.1894 799.81 74.3856C788.587 72.0246 780.678 69.9587 773.186 75.7137L569.898 79.8844L562.066 85.6005C561.859 85.9453 561.629 86.3212 561.385 86.709C558.056 91.9032 558 92.4148 558 123.895C558 155.415 558.056 155.809 561.385 160.216C562.329 161.475 563.994 163.246 564.993 164.112L566.88 165.646L826.061 164.466C826.061 164.348 826.672 163.285 827.449 162.105C828.614 160.373 828.836 159.429 828.836 156.478C828.836 150.811 826.727 147.584 816.238 137.235L813.463 134.481L816.016 133.064C824.729 128.145 830.39 116.812 829.558 105.715C829.114 100.009 826.894 93.9495 822.954 88.0075ZM623.933 83.01C628.207 84.1905 630.427 85.5285 632.203 88.0862C635.921 93.4773 632.869 99.065 624.877 101.662C622.379 102.449 620.992 102.567 610.835 102.764C597.793 103 597.848 102.961 597.127 106.896C596.683 109.493 597.515 111.618 599.236 112.326C600.013 112.602 603.731 112.877 609.059 112.995C618.938 113.231 620.992 113.703 623.711 116.458C624.988 117.717 625.376 118.583 625.598 120.787C625.931 124.092 625.154 125.941 622.546 127.988C619.715 130.191 617.218 130.703 608.504 130.86C604.397 130.939 600.568 131.136 600.013 131.293C597.959 131.923 597.682 133.025 597.404 143.098C597.127 151.952 597.016 153.093 595.962 154.707C593.409 158.602 587.248 160.964 580.644 160.452C574.761 160.019 570.765 158.17 568.101 154.549L566.602 152.542V122.833V93.1231L567.879 90.9195C570.043 87.1025 574.261 84.3086 579.922 82.9707C582.42 82.3804 596.183 81.9869 609.337 82.105C619.493 82.1837 621.38 82.3411 623.933 83.01ZM691.143 81.5147C699.523 82.4985 707.46 85.2136 713.342 89.1881C724.72 96.8614 729.992 106.699 730.048 120.472C730.103 134.795 724.165 145.892 712.399 153.526C703.242 159.508 692.641 162.144 680.098 161.672C668.555 161.2 659.231 158.327 651.183 152.739C641.582 146.05 636.42 136.881 635.366 124.604C634.201 110.831 640.083 98.16 651.239 90.2112C657.621 85.7252 665.391 82.7346 674.049 81.554C677.545 81.0818 686.98 81.0425 691.143 81.5147ZM784.715 81.554C798.16 83.0982 807.913 88.7158 812.02 97.5697C813.297 100.403 813.63 109.336 812.575 113.271C810.91 119.488 806.526 123.935 799.81 126.296C798.367 126.807 797.202 127.476 797.202 127.83C797.202 128.145 799.255 130.467 801.808 132.985C815.128 146.246 816.238 147.624 816.294 151.362C816.349 157.186 809.523 161.003 799.921 160.531C795.093 160.255 790.93 158.878 787.656 156.36C785.214 154.51 779.997 148.332 773.448 139.439C770.174 134.953 769.785 134.599 768.398 134.717L766.955 134.835L766.677 143.885C766.4 152.857 766.4 152.936 764.79 155.218C762.237 158.957 756.909 160.885 750.305 160.491C744.311 160.177 739.927 157.815 738.151 153.998C737.318 152.267 737.263 149.001 737.374 122.006L737.54 91.9426L739.15 89.5029C741.647 85.6465 746.476 82.892 752.636 81.8689C758.796 80.8457 776.834 80.649 784.715 81.554Z" fill="#E83232"/>
<path d="M1308.28 151.162C1305.36 149.231 1293.41 132.176 1258.77 132.176L1042.8 139.899H771.015L747.236 146.657C722.084 146.657 697.569 186.69 691.228 209.989C689.399 216.554 688.911 222.475 688.911 237.664C689.033 255.428 689.277 257.745 692.447 267.271C696.716 280.272 702.569 290.441 711.715 300.739L718.91 308.848L711.593 313.096C702.447 318.116 694.033 327.513 689.887 336.91C686.106 345.663 684.887 361.496 686.96 372.438C692.326 399.341 718.666 423.67 757.202 437.314C803.298 453.533 852.199 444.909 882.198 415.045L886.467 410.797L892.076 418.907C912.441 448.513 957.44 451.474 980.366 424.699C986.952 417.105 992.073 404.619 992.927 394.578C993.415 387.498 993.781 386.34 995.488 387.112C996.585 387.756 1001.1 388.399 1005.49 388.657L1013.66 389.172L1015 396.38C1017.93 412.342 1029.51 429.205 1042.8 436.799C1065.73 450.058 1094.14 444.78 1111.09 424.442C1117.31 416.976 1121.09 408.995 1123.66 397.925L1125.61 389.558L1135.36 389.172L1145.12 388.786L1147.19 395.737C1151.83 411.312 1164.51 426.373 1179.87 434.482C1195.24 442.592 1202.31 443.622 1244.99 443.622C1279.87 443.622 1283.65 443.364 1293.41 440.661C1306.09 437.314 1315.48 432.552 1318.28 428.175C1321.82 428.175 1321.82 424.442 1329.01 418.489L1333.53 412.213L1337.67 400.145C1340.72 393.581 1337.55 390.266 1339.99 386.629C1340.23 396.412 1335.97 373.081 1335.23 369.863C1333.77 363.556 1328.65 355.704 1318.28 344.247L1308.16 332.92L1312.19 327.127C1316.94 320.433 1320.6 310.908 1321.82 302.412C1323.41 291.342 1317.8 273.192 1309.5 262.894C1307.8 260.706 1306.46 258.646 1306.7 258.389C1306.94 258.131 1309.38 256.458 1312.06 254.656C1319.99 249.636 1329.14 238.823 1333.53 229.555C1337.55 221.316 1337.67 220.544 1337.67 206.256C1337.67 191.71 1337.55 191.066 1333.28 181.541C1328.41 170.728 1317.06 157.083 1308.28 151.162ZM1126.34 161.074C1133.53 163.262 1142.19 170.213 1146.09 177.036C1153.78 190.037 1151.09 208.702 1140.36 218.356C1133.78 224.406 1126.46 226.723 1114.27 226.723C1101.46 226.723 1097.44 228.654 1095.61 235.605C1094.88 238.823 1094.39 265.597 1094.39 309.878C1094.39 348.109 1093.9 381.062 1093.29 383.25C1090.61 392.905 1085.12 400.113 1076.71 404.747C1069.75 408.609 1054.39 408.609 1047.44 404.747C1041.71 401.529 1035.85 395.222 1032.68 388.914C1030.49 384.666 1030.37 379.389 1029.76 309.749C1029.15 241.14 1029.02 234.704 1026.95 231.486C1024.39 227.366 1023.05 226.98 1007.07 226.337C996.464 225.95 994.025 225.307 988.537 222.217C977.806 216.039 971.464 203.166 972.806 189.908C974.025 177.808 981.098 167.639 991.951 162.49C997.195 159.915 999.756 159.787 1059.63 159.787C1098.29 159.787 1123.53 160.302 1126.34 161.074ZM1288.53 162.104C1300.72 168.411 1306.58 177.937 1306.58 191.581C1306.58 205.998 1298.04 218.227 1285.36 222.217C1281.09 223.633 1273.41 224.148 1259.38 224.148C1232.55 224.148 1229.75 225.693 1229.75 240.239C1229.75 246.546 1230.24 247.962 1233.29 251.309L1236.82 255.042H1254.99C1274.75 255.042 1280.36 256.072 1285.72 260.963C1294.14 268.429 1295.72 287.352 1288.89 297.649C1282.68 307.046 1278.53 308.333 1255.12 309.106C1235.85 309.749 1234.51 309.878 1231.94 312.71C1229.51 315.156 1229.14 316.958 1229.14 325.196C1229.14 333.435 1229.51 335.237 1231.94 337.682C1234.51 340.514 1235.85 340.643 1258.77 341.415C1279.5 342.059 1283.77 342.445 1289.63 344.891C1300.72 349.525 1306.46 358.021 1307.55 371.537C1308.65 386.34 1300.85 398.311 1285.97 404.619C1279.38 407.45 1277.92 407.579 1236.46 407.579C1194.75 407.579 1193.65 407.45 1186.82 404.619C1177.56 400.628 1168.65 392.004 1165 383.508L1162.07 376.686V282.717V188.749L1165.24 181.67C1169.26 172.788 1174.87 166.866 1183.41 162.49C1189.14 159.658 1192.43 159.143 1206.58 158.371C1215.6 157.856 1235.97 157.598 1251.7 157.727L1280.36 157.856L1288.53 162.104ZM945.611 162.104C954.392 166.738 959.513 174.461 961.464 186.432C962.44 192.74 962.806 220.673 962.44 287.223C961.952 389.815 962.318 385.439 953.416 396.38C947.075 404.232 939.636 407.579 928.539 407.45C913.661 407.322 903.783 400.628 897.564 386.469C895.003 380.676 895.003 379.003 894.637 288.51C894.271 180.254 894.271 179.224 904.637 167.768C909.515 162.104 914.149 159.658 921.831 158.499C930.734 157.083 937.929 158.242 945.611 162.104ZM829.029 159.014C850.492 165.837 869.028 178.452 873.296 189.136C880.613 207.8 865.857 229.812 844.882 231.614C839.029 232.129 837.078 231.486 823.42 224.792C810.615 218.356 807.078 217.197 799.762 216.682C789.518 216.039 783.299 217.841 779.762 222.475C776.104 227.495 776.591 232.644 781.347 237.278C787.811 243.714 793.054 246.546 809.03 252.339C836.834 262.25 850.98 271.004 863.053 285.807C874.272 299.452 879.759 315.285 879.759 334.207C879.759 355.446 874.516 369.735 861.223 384.538C847.199 400.113 827.078 408.609 800.615 410.282C759.397 412.728 707.813 387.37 703.423 362.269C702.325 355.832 703.667 346.178 706.471 340.128C710.374 332.147 719.642 325.711 730.861 323.137C739.275 321.206 746.958 323.78 760.86 333.048C784.03 348.624 801.469 350.812 810.127 339.227C813.298 334.979 813.298 331.504 810.371 326.355C806.835 320.176 797.567 314.898 775.25 306.016C751.47 296.62 744.275 292.887 733.91 285.163C713.788 270.103 703.423 246.417 706.593 222.732C710.74 192.096 728.178 170.599 757.324 160.559C771.592 155.668 778.787 154.638 798.664 155.153C815.615 155.539 819.639 156.054 829.029 159.014Z" fill="black"/>
<path d="M762.013 88.9318C761.254 89.6307 761 94.3675 761 105.549C761 124.108 760.831 123.72 769.105 123.72C781.6 123.72 787.426 118.129 787.51 106.248C787.595 100.657 787.341 99.5702 784.977 95.7652C781.432 90.0189 777.295 88 769.021 88C765.475 88 762.604 88.3882 762.013 88.9318Z" fill="#E83232"/>
<path d="M675.419 101.012C666.669 104.019 662.076 112.152 662.003 124.869C661.93 134.382 663.242 139.508 666.888 144.338C670.753 149.317 675.784 151.436 683.294 151.141C691.825 150.845 697.075 147.493 700.429 140.247C703.929 132.804 704.074 118.461 700.793 111.067C698.97 106.976 695.325 103.131 691.606 101.455C687.742 99.7303 679.867 99.4839 675.419 101.012Z" fill="#E83232"/>
<path d="M1084.23 325.467C1080.77 327.467 1081.17 332.533 1086.63 355.333C1089.17 366.267 1098.77 407.733 1107.97 447.333C1117.03 486.8 1125.43 520.667 1126.5 522.267C1129.17 526.267 1134.37 527.467 1138.1 525.067C1139.7 524 1147.03 512.933 1154.5 500.533C1162.23 487.467 1168.9 477.867 1170.23 477.6C1173.17 477.067 1190.9 494.8 1212.37 520C1232.1 543.2 1233.03 544 1238.1 544C1241.43 544 1244.9 541.2 1258.63 527.733C1267.83 518.8 1275.57 510.133 1275.97 508.4C1277.17 504 1274.77 500.933 1247.17 469.867C1213.3 431.6 1215.7 434.8 1217.97 432.667C1219.03 431.733 1229.17 427.467 1240.5 423.333C1251.83 419.067 1263.43 414.533 1266.1 413.2C1274.23 409.067 1276.1 402.667 1270.9 397.733C1267.57 394.667 1093.03 324 1088.9 324C1087.57 324 1085.43 324.667 1084.23 325.467Z" fill="#E83232"/>
<path d="M235.359 456.462L116.05 342.19C106.533 333.074 100.089 322.378 96.7175 310.099C93.4217 297.819 93.195 285.548 96.0374 273.287C98.8782 260.95 104.821 250.138 113.865 240.849C123.132 231.329 133.792 224.924 145.845 221.633C157.972 218.265 170.128 218.003 182.313 220.847C194.574 223.689 205.538 229.628 215.205 238.664L230.979 253.328L246.107 237.998C255.451 228.552 266.149 222.146 278.2 218.779C290.252 215.412 302.37 215.151 314.555 217.995C326.815 220.762 337.779 226.701 347.447 235.813C356.883 244.703 363.286 255.249 366.656 267.452C370.025 279.579 370.289 291.849 367.45 304.261C364.687 316.672 358.747 327.636 349.632 337.153L235.359 456.462Z" fill="#E83232"/>
</svg>
