<svg width="641" height="662" viewBox="0 0 641 662" fill="none" xmlns="http://www.w3.org/2000/svg">
<path d="M291.267 1.93199C253.133 10.1987 224.333 46.0653 224.333 85.2653C224.333 121.665 249.533 155.799 284.333 166.732C314.067 176.065 346.867 167.799 369.8 145.265C403.267 112.065 403.267 58.732 369.8 25.132C349 4.46533 319.667 -4.20134 291.267 1.93199ZM325 23.2653C359.133 32.1987 380.333 67.132 371.667 100.332C365.667 123.399 347.933 141.265 325 147.265C291.533 155.932 256.6 134.732 247.667 100.599C235.8 54.9987 279.4 11.3987 325 23.2653Z" fill="white"/>
<path d="M299 37.7986C299 43.132 298.733 43.6653 295 44.332C289.4 45.532 280.733 54.5986 278.867 61.532C275.8 73.2653 280.467 85.7986 290.467 91.932C294.067 94.332 298.2 95.2653 306.733 95.7986C315.533 96.4653 318.333 97.132 319.533 98.9986C322.333 103.399 319 105.932 309.933 106.332C302.867 106.732 301.533 106.332 300.067 103.932C298.6 101.665 297 101.265 287.8 101.265H277.4L278.2 105.399C279.667 112.732 283.4 118.865 288.733 122.732C291.667 124.865 295.133 126.599 296.6 126.599C298.6 126.599 299 127.665 299 132.599V138.599H309.667H320.333V132.732C320.333 127.399 320.6 126.865 324.333 126.199C326.467 125.665 330.6 122.999 333.4 120.199C345.667 107.932 343.4 87.532 328.867 78.5986C325.267 76.1986 321.133 75.2653 312.6 74.732C303.8 74.0653 301 73.3986 299.8 71.532C297 67.132 300.333 64.5986 309.4 64.1986C316.467 63.7986 317.8 64.1986 319.267 66.5986C320.733 68.8653 322.333 69.2653 331.533 69.2653H342.067L341.133 65.132C339.667 57.7986 335.933 51.6653 330.6 47.7986C327.667 45.6653 324.2 43.932 322.733 43.932C320.733 43.932 320.333 42.8653 320.333 37.932V31.932H309.667H299V37.7986Z" fill="white"/>
<path d="M45.9333 119.265C7.8 127.532 -21 163.399 -21 202.599C-21 238.999 4.2 273.132 39 284.065C68.7333 293.399 101.533 285.132 124.467 262.599C157.933 229.399 157.933 176.065 124.467 142.465C103.667 121.799 74.3333 113.132 45.9333 119.265ZM79.6667 140.599C113.8 149.532 135 184.465 126.333 217.665C120.333 240.732 102.6 258.599 79.6667 264.599C46.2 273.265 11.2667 252.065 2.33333 217.932C-9.53333 172.332 34.0667 128.732 79.6667 140.599Z" fill="white"/>
<path d="M85.6667 202.599V234.599H96.3334H107V202.599V170.599H96.3334H85.6667V202.599Z" fill="white"/>
<path d="M53.6667 213.265V234.599H64.3334H75V213.265V191.932H64.3334H53.6667V213.265Z" fill="white"/>
<path d="M21.6667 223.932V234.599H32.3334H43V223.932V213.265H32.3334H21.6667V223.932Z" fill="white"/>
<path d="M536.333 119.265C512.867 124.332 489.533 142.599 479.133 164.199C466.6 190.065 466.6 215.132 479.133 240.999C492.6 268.999 523.267 287.932 555 287.932C586.6 287.932 616.467 269.399 630.733 241.265C643.933 214.865 643.267 184.865 628.733 159.932C610.2 128.199 572.6 111.532 536.333 119.265ZM570.333 140.599C604.467 149.532 625.667 184.465 617 217.932C614.333 227.932 608.067 239.799 602.2 245.399L597.667 249.799V238.332C597.667 225.665 596.2 220.065 591.267 213.532C588.467 209.665 582.2 204.865 578.6 203.532C577.933 203.399 578.733 200.999 580.333 198.199C582.067 195.399 583.533 190.065 583.933 185.665C584.467 178.999 584.067 176.999 580.733 170.599C575.267 160.065 567.133 155.265 555 155.265C542.867 155.265 534.733 160.065 529.267 170.599C525.933 176.999 525.533 178.999 526.067 185.665C526.467 190.065 527.933 195.399 529.667 198.199C531.4 201.132 532.067 203.399 531.133 203.665C527.267 204.999 520.6 210.599 517.133 215.665C513.4 220.865 513.133 222.465 512.333 235.532L511.667 249.665L506.733 244.199C485.133 220.199 486.2 182.599 509.267 158.465C525.133 141.799 548.467 134.999 570.333 140.599ZM560.333 178.599C561.8 180.065 563 182.465 563 183.932C563 185.399 561.8 187.799 560.333 189.265C558.867 190.732 556.467 191.932 555 191.932C553.533 191.932 551.133 190.732 549.667 189.265C548.2 187.799 547 185.399 547 183.932C547 182.465 548.2 180.065 549.667 178.599C551.133 177.132 553.533 175.932 555 175.932C556.467 175.932 558.867 177.132 560.333 178.599ZM574.2 226.065C575.933 227.665 576.333 231.532 576.333 245.399V262.599L572.733 264.199C570.6 265.132 562.733 265.799 555 265.799C547.267 265.799 539.4 265.132 537.4 264.199L533.667 262.599V245.399C533.667 231.532 534.067 227.665 535.8 226.065C537.4 224.332 541.133 223.932 555 223.932C568.867 223.932 572.6 224.332 574.2 226.065Z" fill="white"/>
<path d="M380.867 188.065C341 197.932 340.733 198.065 338.333 202.599C335.4 208.332 336.867 211.799 346.467 221.399L355 229.932L336.067 248.865L317 267.932L297 248.065C286.067 237.132 275.667 227.799 274.067 227.265C272.333 226.865 269.533 227.265 267.4 228.465C265.4 229.532 250.2 243.932 233.667 260.465L203.667 290.599L211.4 298.199L219 305.932L245.667 279.265L272.333 252.599L292.733 272.999C311 291.265 313.533 293.265 317.667 293.265C321.8 293.265 324.467 290.999 346.333 269.265L370.467 245.265L378.333 253.399C382.733 257.799 387.667 262.065 389.267 262.599C393.267 264.199 399.533 261.932 401.4 258.199C403.533 254.199 417.667 196.865 417.667 192.599C417.667 187.532 415.533 184.332 411.267 182.865C408.2 181.799 402.333 182.865 380.867 188.065ZM392.333 209.532C392.333 211.665 387.4 230.599 386.733 231.399C386.467 231.665 382.067 227.665 377 222.599L367.933 213.532L373.133 212.065C375.933 211.399 380.467 210.199 383 209.532C389.667 207.665 392.333 207.665 392.333 209.532Z" fill="white"/>
<path d="M195.667 344.599C192.333 347.799 192.333 348.065 192.333 373.265C192.333 398.465 192.333 398.732 195.667 401.932C197.4 403.799 199.8 405.265 201 405.265C202.733 405.265 203 407.665 203 421.265V437.265H153H102.867L99.6667 440.599C96.3333 443.799 96.3333 444.065 96.3333 469.265C96.3333 494.465 96.3333 494.732 99.6667 497.932C101.4 499.799 103.8 501.265 105 501.265C106.733 501.265 107 509.132 107 572.599V644.065L110.333 647.265L113.533 650.599H158.333C195.133 650.599 203 650.865 203 652.465C203 653.399 204.2 655.799 205.8 657.799L208.467 661.265H309.133H409.8L413 657.932C414.867 656.199 416.333 653.799 416.333 652.599C416.333 650.865 421.667 650.599 461 650.599H505.8L509 647.265L512.333 644.065V572.599C512.333 509.132 512.6 501.265 514.333 501.265C515.533 501.265 517.933 499.799 519.667 497.932C523 494.732 523 494.465 523 469.265C523 444.065 523 443.799 519.667 440.599L516.467 437.265H466.333H416.333V421.265C416.333 407.665 416.6 405.265 418.333 405.265C419.533 405.265 421.933 403.799 423.667 401.932C427 398.732 427 398.465 427 373.265C427 348.065 427 347.799 423.667 344.599L420.467 341.265H309.667H198.867L195.667 344.599ZM405.667 373.265V383.932H309.667H213.667V373.265V362.599H309.667H405.667V373.265ZM395 522.599V639.932H373.667H352.333V611.265C352.333 582.465 352.333 582.465 349 579.265L345.8 575.932H309.667H273.533L270.333 579.265C267 582.465 267 582.465 267 611.265V639.932H245.667H224.333V522.599V405.265H309.667H395V522.599ZM203 469.265V479.932H160.333H117.667V469.265V458.599H160.333H203V469.265ZM501.667 469.265V479.932H459H416.333V469.265V458.599H459H501.667V469.265ZM203 565.265V629.265H165.667H128.333V565.265V501.265H165.667H203V565.265ZM491 565.265V629.265H453.667H416.333V565.265V501.265H453.667H491V565.265ZM331 618.599V639.932H309.667H288.333V618.599V597.265H309.667H331V618.599Z" fill="white"/>
<path d="M249 429.932C245.8 432.999 245.667 433.665 245.667 453.265C245.667 472.865 245.8 473.532 249 476.599C252.067 479.799 252.733 479.932 272.333 479.932C291.933 479.932 292.6 479.799 295.667 476.599C298.867 473.532 299 472.865 299 453.265C299 433.665 298.867 432.999 295.667 429.932C292.6 426.732 291.933 426.599 272.333 426.599C252.733 426.599 252.067 426.732 249 429.932ZM277.667 453.265V458.599H272.333H267V453.265V447.932H272.333H277.667V453.265Z" fill="white"/>
<path d="M323.667 429.932C320.467 432.999 320.333 433.665 320.333 453.265C320.333 472.865 320.467 473.532 323.667 476.599C326.733 479.799 327.4 479.932 347 479.932C366.6 479.932 367.267 479.799 370.333 476.599C373.533 473.532 373.667 472.865 373.667 453.265C373.667 433.665 373.533 432.999 370.333 429.932C367.267 426.732 366.6 426.599 347 426.599C327.4 426.599 326.733 426.732 323.667 429.932ZM352.333 453.265V458.599H347H341.667V453.265V447.932H347H352.333V453.265Z" fill="white"/>
<path d="M249 504.599C245.8 507.665 245.667 508.332 245.667 527.932C245.667 547.532 245.8 548.199 249 551.265C252.067 554.465 252.733 554.599 272.333 554.599C291.933 554.599 292.6 554.465 295.667 551.265C298.867 548.199 299 547.532 299 527.932C299 508.332 298.867 507.665 295.667 504.599C292.6 501.399 291.933 501.265 272.333 501.265C252.733 501.265 252.067 501.399 249 504.599ZM277.667 527.932V533.265H272.333H267V527.932V522.599H272.333H277.667V527.932Z" fill="white"/>
<path d="M323.667 504.599C320.467 507.665 320.333 508.332 320.333 527.932C320.333 547.532 320.467 548.199 323.667 551.265C326.733 554.465 327.4 554.599 347 554.599C366.6 554.599 367.267 554.465 370.333 551.265C373.533 548.199 373.667 547.532 373.667 527.932C373.667 508.332 373.533 507.665 370.333 504.599C367.267 501.399 366.6 501.265 347 501.265C327.4 501.265 326.733 501.399 323.667 504.599ZM352.333 527.932V533.265H347H341.667V527.932V522.599H347H352.333V527.932Z" fill="white"/>
</svg>
