<svg width="667" height="640" viewBox="0 0 667 640" fill="none" xmlns="http://www.w3.org/2000/svg">
<path d="M45.0667 3.06667C23.6 10.4 6.4 29.3333 1.46667 50.6667C0.533333 54.6667 0 138.8 0 306.133C0 551.6 0 555.867 2.66667 564.133C9.73333 586.933 27.4667 604.133 50 610C56.4 611.6 67.3333 612 107.6 612C154 612 157.733 611.867 162.4 609.467C172.667 604.133 177.333 596.533 177.333 585.2C177.333 573.6 170.267 564 158.8 560.133C155.733 559.2 138.933 558.667 107.733 558.667H61.0667L57.2 554.8L53.3333 550.933V386.133V221.333H333.333H613.333V385.867V550.533L610.133 554.267C606.933 558 606.533 558 589.067 558.667C574.533 559.2 570.4 559.867 566 562.133C550.267 570.267 547.333 592.8 560.267 604.933C566.4 610.667 572.133 612 591.067 612C602.667 612 611.467 611.333 616.667 610C639.2 604.133 656.933 586.933 664 564.133C666.667 555.867 666.667 551.467 666.667 306.133C666.667 35.2 667.067 50.6667 659.333 35.4667C651.733 20.2667 636.667 7.73333 620.4 2.66667C611.867 -1.40071e-06 608.4 -1.40071e-06 332.8 -1.40071e-06L54 0.133332L45.0667 3.06667ZM609.467 57.2L613.333 61.0667V114.533V168H333.333H53.3333V114.533V61.0667L57.2 57.2L61.0667 53.3333H333.333H605.6L609.467 57.2Z" fill="white"/>
<path d="M386 87.7334C379.467 90.8 375.467 95.0667 372.667 101.6C365.6 118.8 380.4 137.733 399.467 135.6C416.267 133.733 426.133 114.933 418.667 99.2C412.933 87.4667 397.733 82.1334 386 87.7334Z" fill="white"/>
<path d="M459.2 87.8667C448.667 92.6667 442.533 105.467 445.467 116.267C450 133.733 469.2 141.333 484 131.467C498.4 122 498.267 99.3333 483.867 89.7333C476.8 85.0667 466.8 84.2667 459.2 87.8667Z" fill="white"/>
<path d="M532.133 88.2667C514.133 97.2 514.133 124.4 532.267 133.2C546.533 140 563.867 132.533 568 117.6C569.6 111.467 569.6 109.867 568 103.733C563.733 88.8 546.267 81.2 532.133 88.2667Z" fill="white"/>
<path d="M110.933 89.4667C93.4667 98.1334 93.4667 123.333 111.067 131.867C116.933 134.667 117.333 134.667 207.6 134.4L298.133 134L303.067 130.667C317.2 120.933 317.2 100.4 303.067 90.6667L298.133 87.3334L207.467 86.9334C116.8 86.6667 116.667 86.6667 110.933 89.4667Z" fill="white"/>
<path d="M206.267 348.667C194.267 351.733 185.6 364.267 186.933 376.267C187.733 382.4 286.267 619.067 290.933 626.133C295.467 632.8 302 636.4 310.533 637.067C319.467 637.733 324.533 635.6 332.4 628.133C339.467 621.6 340.933 618.267 342.667 605.467C344.533 591.867 349.6 574.133 354.133 564.933C356.133 561.067 357.867 557.733 358.267 557.467C358.533 557.067 376.933 574.933 399.067 596.933C421.2 619.067 441.067 637.867 443.067 638.533C447.867 640.4 458.8 640.4 463.6 638.533C472.267 635.333 479.867 624 480 614.267C480 604.133 477.2 600.667 435.733 559.2L395.733 519.067L403.467 515.333C415.733 509.467 424.933 506.667 441.067 504C458.533 500.933 461.6 499.6 468.933 491.6C475.2 484.8 478 476.667 476.667 469.467C475.6 463.2 470.267 454.267 466.267 451.6C464.533 450.533 420.8 431.867 369.2 410.267C239.867 356.133 221.2 348.4 216.667 347.6C214.533 347.2 209.733 347.733 206.267 348.667ZM321.333 448C349.6 459.867 372.8 469.733 373.067 470C373.333 470.133 368.4 473.733 362.267 477.867C342.8 490.8 324.267 510 313.067 529.067L309.733 534.8L306.667 527.733C298 507.467 264.933 428.4 264.4 426.267C263.467 423.467 256.8 420.8 321.333 448Z" fill="white"/>
</svg>
