<svg width="1366" height="1366" viewBox="0 0 1366 1366" fill="none" xmlns="http://www.w3.org/2000/svg">
<path d="M196.5 182.5C196.683 181.989 196.894 181.524 197.13 181.102L197.361 181.56C197.074 181.681 196.787 181.99 196.5 182.5Z" fill="black"/>
<path d="M483.5 213C465 234.5 471.661 244.571 469 248.5L476.24 266.822C480.096 273.099 483.43 279.833 486.164 286.955C505.097 335.489 505 436.489 454.5 439.489C405.5 446.135 432.07 441.222 412.5 439.489C408.725 441.182 422.458 479.438 418 480.646L386.306 501.536L900.158 493C903.643 487.161 906.159 480.888 907.497 474.422C909.497 464.289 908.297 448.555 904.697 439.489C900.964 430.022 891.497 416.955 884.297 410.955L878.43 406.155L884.43 400.022C902.964 380.555 902.564 347.222 883.497 326.555L879.63 322.289L885.897 317.755C906.03 303.222 914.697 278.022 907.63 254.555C903.63 241.755 896.164 229.756 885.364 218.822C875.23 208.556 866.83 203.489 854.564 200.022C842.697 196.689 775.097 195.755 759.23 198.689C746.564 201.089 734.697 206.422 726.564 213.355L721.097 218.022L716.564 213.355C698.697 194.689 661.23 191.222 637.897 206.022C622.964 215.355 612.164 232.155 604.697 256.955C601.897 266.289 600.697 268.822 600.03 266.822C586.43 229.489 576.164 214.155 558.564 204.555C538.83 193.755 492.564 204.555 483.5 213ZM548.164 220.155C562.03 227.355 568.564 239.355 575.23 270.155C576.83 277.089 581.63 299.889 586.03 320.822C592.564 352.289 594.43 359.222 596.83 361.089C600.164 363.889 600.83 364.022 603.897 361.755C605.63 360.555 607.897 351.089 613.364 323.489C628.164 246.955 630.564 238.422 639.364 228.422C646.564 220.289 655.63 216.555 670.03 215.755C682.83 215.222 693.23 218.155 700.964 224.555C705.897 228.822 711.364 239.755 711.364 245.889C711.364 250.689 712.03 248.822 671.497 368.555C656.03 414.289 642.03 454.155 640.564 457.222C633.497 471.089 622.83 479.355 608.43 482.022C599.364 483.622 586.83 482.022 579.097 478.022C572.164 474.422 564.297 466.155 560.697 458.555C559.097 455.222 544.564 412.689 528.43 364.289C510.697 310.955 496.564 270.689 492.564 262.289C488.964 254.689 486.03 246.555 486.03 244.289C486.164 233.889 496.83 221.222 508.697 217.489C512.697 216.155 519.097 215.622 527.497 215.889C538.83 216.155 541.364 216.689 548.164 220.155ZM840.697 216.822C857.764 219.622 867.63 225.755 873.364 237.355C882.164 255.355 876.964 274.555 861.097 282.289C855.097 285.222 852.83 285.489 826.43 286.155C800.164 286.822 797.897 286.955 795.364 289.622C791.897 292.955 790.297 304.555 792.564 309.755C795.364 316.689 798.03 317.355 824.697 318.155C844.03 318.689 850.297 319.355 853.497 321.089C867.364 328.555 872.297 347.222 864.564 362.289C858.83 373.755 849.23 376.822 820.03 376.822C800.297 376.822 798.297 377.089 795.63 379.489C791.897 383.089 790.83 387.489 791.764 395.755C792.697 403.355 795.097 407.755 800.297 411.089C803.364 413.089 808.03 413.622 828.03 414.155C850.964 414.822 852.43 414.955 859.63 418.555C884.697 430.822 883.497 465.355 857.63 478.155C847.097 483.222 834.697 484.689 800.03 484.822C758.297 484.822 743.897 481.489 732.03 468.689C725.364 461.622 721.897 454.555 719.497 443.755C718.564 438.955 718.03 409.622 718.03 351.089C718.03 279.355 718.297 264.155 720.03 257.755C725.097 238.289 737.097 224.289 752.964 219.355C763.23 216.155 824.964 214.422 840.697 216.822Z" fill="black"/>
<path d="M309.5 374.5L285.781 356.001C288.164 331.118 283.921 258.19 278.566 235.498L277.714 233.816C263.54 224.629 205.807 231.761 246.781 231.678C239.847 230.212 226.614 228.478 221.281 229.678C213.281 231.278 207.147 224.612 199.281 229.678C189.681 236.078 199.581 222.912 194.781 231.178C193.181 233.978 229.281 228.678 230.281 231.678C229.781 226.178 176.781 229.178 167.781 229.678C166.847 227.412 167.011 222.678 167.011 229.678V387.467L167.011 464.934C168.744 493.734 165.897 513.601 175.23 529.334C181.714 540.424 186 549.5 210.5 552L382 549L390 522.5C392.322 520 438.482 490.605 432.5 476.5L398.5 429C396.633 428.2 366.567 424.9 355.5 424.5L347.944 408.5L321 397L309.5 374.5ZM267.411 451.867C270.878 458.934 275.011 459.867 304.611 459.867C331.811 460.001 339.278 461.201 347.944 467.067C354.344 471.334 359.544 479.601 361.411 488.134C365.544 508.267 353.011 525.067 330.611 529.334C319.811 531.334 239.544 531.467 229.811 529.467C213.144 525.867 200.078 516.001 193.678 502.134C189.011 491.867 187.811 480.934 187.811 448.534V245.867H244.478C254.278 242.601 259.944 233.467 244.478 245.867H264.078V401.601C264.878 441.201 265.411 447.601 267.411 451.867Z" fill="black"/>
<path d="M1009.56 520.156C1009.16 519.356 1008.66 519.288 1003 513C998.5 508 978 483.5 953.964 474C927 466 908 459 890 478.5L401.614 492.632L382.798 512C382.301 513.168 381.748 514.442 381.164 515.756C373.164 533.356 373.03 535.089 373.03 641.756C373.03 748.556 373.164 749.889 381.164 764.823C383.43 769.089 387.43 775.089 389.83 778.023L394.364 783.223L1017.03 779.223C1017.03 778.823 1018.5 775.223 1020.36 771.223C1023.16 765.356 1023.7 762.156 1023.7 752.156C1023.7 732.956 1018.63 722.022 993.43 686.956L986.764 677.622L992.897 672.823C1013.83 656.156 1027.43 617.756 1025.43 580.156C1024.36 560.822 1019.03 540.289 1009.56 520.156ZM531.43 503.222C541.697 507.222 547.03 511.756 551.297 520.422C560.23 538.689 552.897 557.622 533.697 566.422C527.697 569.089 524.364 569.489 499.964 570.156C468.63 570.956 468.764 570.822 467.03 584.156C465.964 592.956 467.964 600.156 472.097 602.556C473.964 603.489 482.897 604.423 495.697 604.823C519.43 605.623 524.364 607.223 530.897 616.556C533.964 620.823 534.897 623.756 535.43 631.222C536.23 642.422 534.364 648.689 528.097 655.622C521.297 663.089 515.297 664.823 494.364 665.356C484.497 665.623 475.297 666.289 473.964 666.823C469.03 668.956 468.364 672.689 467.697 706.823C467.03 736.823 466.764 740.689 464.23 746.156C458.097 759.356 443.297 767.356 427.43 765.623C413.297 764.156 403.697 757.889 397.297 745.623L393.697 738.823V638.156V537.489L396.764 530.022C401.964 517.089 412.097 507.623 425.697 503.089C431.697 501.089 464.764 499.756 496.364 500.156C520.764 500.422 525.297 500.956 531.43 503.222ZM692.897 498.156C713.03 501.489 732.097 510.689 746.23 524.156C773.564 550.156 786.23 583.489 786.364 630.156C786.497 678.689 772.23 716.289 743.964 742.156C721.964 762.423 696.497 771.356 666.364 769.756C638.63 768.156 616.23 758.423 596.897 739.489C573.83 716.823 561.43 685.756 558.897 644.156C556.097 597.489 570.23 554.556 597.03 527.622C612.364 512.422 631.03 502.289 651.83 498.289C660.23 496.689 682.897 496.556 692.897 498.156ZM917.697 498.289C950 503.521 973.43 522.556 983.297 552.556C986.364 562.156 987.164 592.422 984.63 605.756C980.63 626.822 970.097 641.889 953.964 649.889C950.497 651.622 947.697 653.889 947.697 655.089C947.697 656.156 952.63 664.023 958.764 672.556C990.764 717.489 993.43 722.156 993.564 734.823C993.697 754.556 977.297 767.489 954.23 765.889C942.63 764.956 932.63 760.289 924.764 751.756C918.897 745.489 906.364 724.556 890.63 694.422C882.764 679.222 881.83 678.022 878.497 678.422L875.03 678.823L874.364 709.489C873.697 739.889 873.697 740.156 869.83 747.889C863.697 760.556 850.897 767.089 835.03 765.756C820.63 764.689 810.097 756.689 805.83 743.756C803.83 737.889 803.697 726.823 803.964 635.356L804.364 533.489L808.23 525.222C814.23 512.156 825.83 502.823 840.63 499.356C855.43 495.889 898.764 495.222 917.697 498.289Z" fill="black"/>
<path d="M1319.43 775.667C1316.23 773.667 1342.6 795.067 1313.56 771L690.897 775L686.897 777.933C665.697 793 651.697 812.467 644.763 836.6C642.763 843.4 642.23 849.533 642.23 865.267C642.363 883.667 642.63 886.067 646.097 895.933C650.763 909.4 657.163 919.933 667.163 930.6L675.03 939L667.03 943.4C657.03 948.6 647.83 958.333 643.297 968.067C639.163 977.133 637.83 993.533 640.097 1004.87C645.963 1032.73 674.763 1057.93 716.897 1072.07C767.297 1088.87 820.763 1079.93 853.563 1049L858.23 1044.6L864.363 1053C886.63 1083.67 935.83 1086.73 960.897 1059C968.097 1051.13 973.697 1038.2 974.63 1027.8C975.163 1020.47 975.563 1019.27 977.43 1020.07C978.63 1020.73 983.563 1021.4 988.363 1021.67L997.297 1022.2L998.763 1029.67C1001.96 1046.2 1014.63 1063.67 1029.16 1071.53C1054.23 1085.27 1085.3 1079.8 1103.83 1058.73C1110.63 1051 1114.76 1042.73 1117.56 1031.27L1119.7 1022.6L1130.36 1022.2L1141.03 1021.8L1143.3 1029C1148.36 1045.13 1162.23 1060.73 1179.03 1069.13C1195.83 1077.53 1203.56 1078.6 1250.23 1078.6C1288.36 1078.6 1292.5 1078.33 1303.16 1075.53C1317.03 1072.07 1327.3 1067.13 1330.36 1062.6C1334.23 1062.6 1334.23 1058.73 1342.1 1052.57L1347.03 1046.07L1351.56 1033.57C1354.9 1026.77 1351.43 1023.33 1354.1 1019.57C1354.36 1029.7 1349.7 1005.53 1348.9 1002.2C1347.3 995.667 1341.7 987.533 1330.36 975.667L1319.3 963.933L1323.7 957.933C1328.9 951 1332.9 941.133 1334.23 932.333C1335.96 920.867 1329.83 902.067 1320.76 891.4C1318.9 889.133 1317.43 887 1317.7 886.733C1317.96 886.467 1320.63 884.733 1323.56 882.867C1332.23 877.667 1342.23 866.467 1347.03 856.867C1351.43 848.333 1351.56 847.533 1351.56 832.733C1351.56 817.667 1351.43 817 1346.76 807.133C1341.43 795.933 1329.03 781.8 1319.43 775.667ZM1120.5 785.933C1128.36 788.2 1137.83 795.4 1142.1 802.467C1150.5 815.933 1147.56 835.267 1135.83 845.267C1128.63 851.533 1120.63 853.933 1107.3 853.933C1093.3 853.933 1088.9 855.933 1086.9 863.133C1086.1 866.467 1085.56 894.2 1085.56 940.067C1085.56 979.667 1085.03 1013.8 1084.36 1016.07C1081.43 1026.07 1075.43 1033.53 1066.23 1038.33C1058.63 1042.33 1041.83 1042.33 1034.23 1038.33C1027.96 1035 1021.56 1028.47 1018.1 1021.93C1015.7 1017.53 1015.56 1012.07 1014.9 939.933C1014.23 868.867 1014.1 862.2 1011.83 858.867C1009.03 854.6 1007.56 854.2 990.097 853.533C978.497 853.133 975.83 852.467 969.83 849.267C958.097 842.867 951.163 829.533 952.63 815.8C953.963 803.267 961.697 792.733 973.563 787.4C979.297 784.733 982.097 784.6 1047.56 784.6C1089.83 784.6 1117.43 785.133 1120.5 785.933ZM1297.83 787C1311.16 793.533 1317.56 803.4 1317.56 817.533C1317.56 832.467 1308.23 845.133 1294.36 849.267C1289.7 850.733 1281.3 851.267 1265.96 851.267C1236.63 851.267 1233.56 852.867 1233.56 867.933C1233.56 874.467 1234.1 875.933 1237.43 879.4L1241.3 883.267H1261.16C1282.76 883.267 1288.9 884.333 1294.76 889.4C1303.96 897.133 1305.7 916.733 1298.23 927.4C1291.43 937.133 1286.9 938.467 1261.3 939.267C1240.23 939.933 1238.76 940.067 1235.96 943C1233.3 945.533 1232.9 947.4 1232.9 955.933C1232.9 964.467 1233.3 966.333 1235.96 968.867C1238.76 971.8 1240.23 971.933 1265.3 972.733C1287.96 973.4 1292.63 973.8 1299.03 976.333C1311.16 981.133 1317.43 989.933 1318.63 1003.93C1319.83 1019.27 1311.3 1031.67 1295.03 1038.2C1287.83 1041.13 1286.23 1041.27 1240.9 1041.27C1195.3 1041.27 1194.1 1041.13 1186.63 1038.2C1176.5 1034.07 1166.76 1025.13 1162.76 1016.33L1159.56 1009.27V911.933V814.6L1163.03 807.267C1167.43 798.067 1173.56 791.933 1182.9 787.4C1189.16 784.467 1192.76 783.933 1208.23 783.133C1218.1 782.6 1240.36 782.333 1257.56 782.467L1288.9 782.6L1297.83 787ZM922.897 787C932.497 791.8 938.097 799.8 940.23 812.2C941.297 818.733 941.697 847.667 941.297 916.6C940.763 1022.87 941.163 1018.33 931.43 1029.67C924.497 1037.8 916.363 1041.27 904.23 1041.13C887.963 1041 877.163 1034.07 870.363 1019.4C867.563 1013.4 867.563 1011.67 867.163 917.933C866.763 805.8 866.763 804.733 878.097 792.867C883.43 787 888.497 784.467 896.897 783.267C906.63 781.8 914.497 783 922.897 787ZM795.43 783.8C818.897 790.867 839.163 803.933 843.83 815C851.83 834.333 835.697 857.133 812.763 859C806.363 859.533 804.23 858.867 789.297 851.933C775.297 845.267 771.43 844.067 763.43 843.533C752.23 842.867 745.43 844.733 741.563 849.533C737.563 854.733 738.097 860.067 743.297 864.867C750.363 871.533 756.097 874.467 773.563 880.467C803.963 890.733 819.43 899.8 832.63 915.133C844.897 929.267 850.897 945.667 850.897 965.267C850.897 987.267 845.163 1002.07 830.63 1017.4C815.297 1033.53 793.297 1042.33 764.363 1044.07C719.297 1046.6 662.897 1020.33 658.097 994.333C656.897 987.667 658.363 977.667 661.43 971.4C665.697 963.133 675.83 956.467 688.097 953.8C697.297 951.8 705.697 954.467 720.897 964.067C746.23 980.2 765.297 982.467 774.763 970.467C778.23 966.067 778.23 962.467 775.03 957.133C771.163 950.733 761.03 945.267 736.63 936.067C710.63 926.333 702.763 922.467 691.43 914.467C669.43 898.867 658.097 874.333 661.563 849.8C666.097 818.067 685.163 795.8 717.03 785.4C732.63 780.333 740.497 779.267 762.23 779.8C780.763 780.2 785.163 780.733 795.43 783.8Z" fill="black"/>
<path d="M869.6 562.933C868.4 564.133 868 572.266 868 591.466C868 623.333 867.733 622.666 880.8 622.666C900.534 622.666 909.734 613.066 909.867 592.666C910 583.066 909.6 581.2 905.867 574.666C900.267 564.8 893.734 561.333 880.667 561.333C875.067 561.333 870.533 562 869.6 562.933Z" fill="black"/>
<path d="M653.6 572.133C637.6 580.267 629.2 602.267 629.067 636.667C628.933 662.4 631.333 676.267 638 689.333C645.067 702.8 654.267 708.533 668 707.733C683.6 706.933 693.2 697.867 699.333 678.267C705.733 658.133 706 619.333 700 599.333C696.667 588.267 690 577.867 683.2 573.333C676.133 568.667 661.733 568 653.6 572.133Z" fill="black"/>
<path d="M1084.23 971.467C1080.77 973.467 1081.17 978.533 1086.63 1001.33C1089.17 1012.27 1098.77 1053.73 1107.97 1093.33C1117.03 1132.8 1125.43 1166.67 1126.5 1168.27C1129.17 1172.27 1134.37 1173.47 1138.1 1171.07C1139.7 1170 1147.03 1158.93 1154.5 1146.53C1162.23 1133.47 1168.9 1123.87 1170.23 1123.6C1173.17 1123.07 1190.9 1140.8 1212.37 1166C1232.1 1189.2 1233.03 1190 1238.1 1190C1241.43 1190 1244.9 1187.2 1258.63 1173.73C1267.83 1164.8 1275.57 1156.13 1275.97 1154.4C1277.17 1150 1274.77 1146.93 1247.17 1115.87C1213.3 1077.6 1215.7 1080.8 1217.97 1078.67C1219.03 1077.73 1229.17 1073.47 1240.5 1069.33C1251.83 1065.07 1263.43 1060.53 1266.1 1059.2C1274.23 1055.07 1276.1 1048.67 1270.9 1043.73C1267.57 1040.67 1093.03 970 1088.9 970C1087.57 970 1085.43 970.667 1084.23 971.467Z" fill="#E83232"/>
<path d="M408.386 531.386L267.474 390.474C256.234 379.234 248.741 366.167 244.994 351.271C241.339 336.376 241.385 321.572 245.131 306.859C248.878 292.055 256.326 279.17 267.474 268.205C278.897 256.964 291.919 249.517 306.54 245.862C321.253 242.115 335.92 242.115 350.541 245.862C365.254 249.608 378.322 257.056 389.744 268.205L408.386 286.298L427.028 268.205C438.543 257.056 451.61 249.608 466.232 245.862C480.853 242.115 495.474 242.115 510.095 245.862C524.808 249.517 537.875 256.964 549.298 268.205C560.447 279.17 567.895 292.055 571.641 306.859C575.388 321.572 575.388 336.376 571.641 351.271C567.986 366.167 560.538 379.234 549.298 390.474L408.386 531.386Z" fill="#E83232"/>
</svg>
