<svg width="987" height="458" viewBox="0 0 987 458" fill="none" xmlns="http://www.w3.org/2000/svg">
<path d="M58 36.6074C44.1333 37.4074 43.3333 37.5407 41.7333 40.7407C40.4 43.2741 40 65.1407 40 138.341C40 231.674 40.2667 238.341 44.4 241.007C45.3333 241.541 76.6667 242.074 114.133 242.074C176 242.074 182.533 241.807 184.133 239.807C185.467 238.341 186 233.541 186 223.407C186 213.274 185.467 208.474 184.133 207.007C182.533 205.007 177.6 204.741 138.8 204.741C114.933 204.741 94.5333 204.207 93.7333 203.674C92.4 202.874 92 183.807 91.7333 121.674C91.3333 47.6741 91.2 40.6074 89.0667 38.6074C86.4 35.9407 79.2 35.4074 58 36.6074Z" fill="white"/>
<path d="M188.933 44.1333C187.333 45.2 186 46.9333 186 48C186 57.0667 259.867 238.8 266.133 245.333C268.533 247.733 270.533 248 288 248C306.8 248 307.333 247.867 310.533 244.667C314.267 240.8 330.667 202.533 361.733 125.333C393.6 46.1333 391.733 51.2 390.133 46.9333L388.667 43.3333H366.133C349.733 43.3333 343.333 43.7333 342.267 44.9333C341.6 45.8667 338.667 52.6667 336 60C333.333 67.3333 329.733 77.2 328 82C326.267 86.8 322.4 97.2 319.467 105.333C313.733 121.333 291.733 177.467 290 180.533C288.933 182.533 272.533 142 253.867 91.3333C236.4 44 236.667 44.6667 233.067 43.2C231.333 42.5333 221.333 42 210.933 42C195.867 42 191.333 42.4 188.933 44.1333Z" fill="white"/>
<path d="M533.512 55.45C529.645 56.25 522.445 64.5167 522.445 68.25C522.312 69.85 522.178 102.383 522.045 140.517C521.912 206.917 521.912 209.983 524.445 214.117C529.778 223.05 518.845 222.517 696.712 222.517C876.445 222.517 863.512 223.183 870.045 213.317L873.112 208.783V143.583C873.112 72.5167 873.112 72.9167 865.378 64.7833C863.378 62.65 859.378 59.5833 856.445 58.1167L851.112 55.1833L693.778 55.05C607.245 54.9167 535.112 55.05 533.512 55.45ZM701.912 83.9833C717.112 86.7833 730.578 96.3833 737.245 109.45C743.512 121.583 745.512 142.117 741.778 156.517C738.712 168.117 734.978 175.05 728.045 181.85C720.312 189.583 710.845 194.117 699.378 195.717C664.578 200.65 639.778 176.517 639.778 137.85C639.778 110.517 656.445 88.7833 681.378 83.9833C689.512 82.3833 692.978 82.3833 701.912 83.9833ZM631.512 85.45C632.445 86.3833 633.112 90.5167 633.112 94.65C633.112 106.25 632.578 106.517 609.645 106.517H590.445V118.517V130.517H607.512C618.978 130.517 625.112 131.05 626.178 132.117C627.112 133.05 627.778 137.317 627.778 142.117C627.778 148.917 627.378 150.65 625.245 151.85C623.778 152.517 615.378 153.183 606.578 153.183H590.445V172.25C590.445 185.317 589.912 191.85 588.845 192.917C587.912 193.85 583.245 194.517 577.112 194.517C570.978 194.517 566.312 193.85 565.378 192.917C564.178 191.717 563.778 178.117 563.778 139.717C563.778 94.5167 564.045 87.7167 565.912 85.9833C567.645 84.1167 572.578 83.85 598.978 83.85C621.245 83.85 630.312 84.25 631.512 85.45ZM818.045 88.3833C823.245 90.7833 827.778 93.9833 829.912 96.7833C840.578 110.783 839.245 135.583 827.245 147.183C824.312 150.117 820.578 153.183 819.245 153.85C816.978 155.183 817.778 156.65 828.312 170.517C840.445 186.65 842.712 191.317 839.645 193.317C837.512 194.65 818.445 194.917 815.378 193.717C814.312 193.317 808.445 185.583 802.445 176.383C791.512 159.983 791.378 159.85 786.312 159.85H781.112V175.583C781.112 185.983 780.578 191.85 779.512 192.917C778.578 193.85 774.045 194.517 768.445 194.517C762.845 194.517 758.312 193.85 757.378 192.917C756.178 191.717 755.778 177.85 755.778 138.917C755.778 90.5167 755.912 86.5167 758.178 85.1833C759.645 84.25 769.112 83.9833 785.112 84.25C808.978 84.65 810.045 84.7833 818.045 88.3833Z" fill="#FF0B0B"/>
<path d="M683.752 107.312C672.552 110.379 666.152 121.579 666.018 138.379C665.885 147.979 666.418 150.246 669.885 157.179C675.885 169.312 686.152 174.379 698.152 171.046C710.818 167.712 717.351 156.779 717.485 139.046C717.618 122.379 713.085 113.446 701.751 108.246C695.885 105.579 690.818 105.312 683.752 107.312Z" fill="#FF0B0B"/>
<path d="M784.633 107.68L779.567 108.08V123.813V139.68L783.967 140.48C790.767 141.68 801.967 139.413 805.567 135.946C811.833 130.08 811.167 113.946 804.5 110.346C800.9 108.48 791.3 107.146 784.633 107.68Z" fill="#FF0B0B"/>
<path d="M216.933 260.477C197.333 265.41 181.866 277.41 176.4 291.944C172.8 301.544 172.666 315.41 176.133 324.477C182.666 341.677 197.2 351.677 234 364.477C260 373.41 268.266 379.144 268.266 388.21C268.266 398.21 259.6 403.544 243.466 403.544C229.2 403.544 213.066 397.944 197.333 387.544C190.4 383.01 188 384.344 177.733 398.077C167.066 412.344 167.2 413.81 179.6 422.21C197.466 434.344 218.933 440.61 242.4 440.61C268 440.61 287.066 434.077 300.666 420.477C311.733 409.277 314.133 403.144 314.266 385.944C314.266 373.81 313.866 371.01 311.066 365.544C304 351.01 289.6 341.144 261.466 331.544C227.866 319.944 221.333 316.344 219.6 308.477C217.6 299.544 226.8 292.61 240.933 292.61C252 292.61 261.066 295.01 275.333 301.677C285.466 306.344 289.066 307.41 290.666 306.344C293.866 304.477 308 284.477 308.133 281.81C308.4 276.21 286 264.344 266.933 259.944C254.933 257.144 228.933 257.41 216.933 260.477Z" fill="white"/>
<path d="M325.667 266.667C323 269.333 323 271.067 323 352C323 432.933 323 434.667 325.667 437.333C328.067 439.733 330.067 440 346.733 440C360.6 440 365.8 439.467 367.8 438.133C370.2 436.267 370.333 433.867 370.333 352C370.333 270.133 370.2 267.733 367.8 265.867C365.8 264.533 360.6 264 346.733 264C330.067 264 328.067 264.267 325.667 266.667Z" fill="white"/>
<path d="M384.4 269.167C383.6 271.033 383.067 278.1 383.067 284.767C383.067 303.833 381.867 303.033 412.533 303.033H437.733V368.233C437.733 430.366 437.867 433.567 440.267 436.5C442.667 439.567 443.867 439.7 459.333 440.1C470.933 440.367 476.667 439.967 479.067 438.633L482.4 436.9L483.067 371.3C483.6 314.9 484 305.433 485.733 304.233C486.933 303.567 497.467 303.167 510.8 303.3C539.333 303.7 538.267 304.367 538.8 285.967C539.067 278.9 538.667 271.433 537.867 269.3L536.4 265.7H461.067H385.733L384.4 269.167Z" fill="white"/>
<path d="M553.6 265.64C552.4 266.84 552 287.64 552 350.84V434.573L554.933 436.573C557.6 438.44 565.867 438.707 618.4 438.707C657.467 438.707 679.733 438.173 681.467 437.373C683.733 436.04 684 434.44 684 422.973C684 415.907 683.333 409.107 682.667 408.04C681.6 406.307 674.8 405.907 639.733 405.373L598 404.707L597.6 386.973L597.2 369.373H630.267C648.4 369.373 664.667 368.973 666.267 368.573C670.133 367.507 672 361.64 672 350.44C672 342.44 671.6 340.84 668.667 338.04L665.467 334.707H631.333H597.333V316.707V298.707H637.733C670.533 298.707 678.667 298.307 680.8 296.84C683.067 295.107 683.333 293.24 683.333 280.707C683.333 269.64 682.933 266.307 681.333 265.373C678.133 263.373 555.6 263.64 553.6 265.64Z" fill="white"/>
<path d="M138.164 83.1353C129.458 85.7673 120.689 94.0395 116.813 103.289C114.906 107.952 113 116.525 113 120.736C113 124.797 114.843 133.295 116.813 138.258C118.338 142.168 120.498 145.252 128.124 154.351C136.067 163.977 154.368 184.432 171.779 203.006C174.194 205.638 176.545 208.27 176.99 208.872C177.625 209.774 181.12 206.24 197.959 187.44C227.254 154.727 236.277 143.748 238.692 137.656C247.715 114.645 237.548 88.8506 217.086 83.1353C204.632 79.676 192.368 84.1881 182.772 95.7691L177.943 101.635L174.511 97.3483C169.936 91.633 163.963 86.6697 158.816 84.4137C153.478 82.0825 143.819 81.4809 138.164 83.1353Z" fill="#FF0B0B"/>
<path d="M391.6 44.0276C390.4 45.5112 390 71.2275 390 149.365V252.89L392.933 255.362C395.6 257.67 403.867 258 456.4 258C495.467 258 517.733 257.341 519.467 256.352C521.733 254.703 522 252.725 522 238.548C522 229.811 521.333 221.404 520.667 220.085C519.6 217.942 512.8 217.447 477.733 216.788L436 215.964L435.6 194.039L435.2 172.279H468.267C486.4 172.279 502.667 171.785 504.267 171.29C508.133 169.971 510 162.718 510 148.871C510 138.98 509.6 137.002 506.667 133.54L503.467 129.419H469.333H435.333V107.164V84.9098H475.733C508.533 84.9098 516.667 84.4153 518.8 82.602C521.067 80.459 521.333 78.1511 521.333 62.6554C521.333 48.973 520.933 44.8519 519.333 43.6979C516.133 41.2252 393.6 41.5549 391.6 44.0276Z" fill="white"/>
<mask id="mask0_4_45" style="mask-type:luminance" maskUnits="userSpaceOnUse" x="666" y="172" width="292" height="251">
<path d="M957.5 172.5V422.5H666.5V172.5H957.5Z" fill="white" stroke="white"/>
</mask>
<g mask="url(#mask0_4_45)">
<path d="M719.5 223L890 259.5L855.8 297.5L928 362L890 399L812 335.15L770.5 381L719.5 223Z" fill="white" stroke="white" stroke-width="32"/>
</g>
</svg>
