<svg width="645" height="673" viewBox="0 0 645 673" fill="none" xmlns="http://www.w3.org/2000/svg">
<path d="M529.864 1.86752C512.131 8.26752 501.864 27.7342 506.931 45.3342C508.131 49.3342 509.197 53.2009 509.331 54.0009C509.464 54.6675 500.797 63.8675 490.131 74.4009L470.664 93.3342L465.464 91.2009C458.931 88.2675 444.531 88.1342 438.131 90.9342C435.597 92.1342 431.197 94.9342 428.664 97.2009L423.864 101.468L411.064 95.0675L398.264 88.6675V81.2009C398.264 66.8009 387.864 52.1342 374.264 47.3342C350.664 39.0675 325.731 55.8675 325.597 80.0009C325.597 84.8009 326.131 90.8009 326.664 93.4675L327.864 98.2675L310.131 113.068L292.531 127.868L287.197 125.201C263.597 113.068 234.664 131.601 235.064 158.668C235.464 196.934 287.464 208.401 304.264 174.001C307.464 167.468 307.864 165.601 307.197 156.401C306.797 150.668 306.264 145.068 305.997 143.734C305.597 141.734 314.931 132.934 334.797 116.668L340.664 111.868L346.531 114.801C350.931 117.068 354.531 117.868 361.597 117.868C372.131 117.734 378.131 115.734 385.064 109.601L389.597 105.601L402.664 111.734L415.597 117.734V125.868C415.597 140.268 424.131 152.801 437.997 158.934C445.331 162.268 460.397 161.868 467.731 158.134C483.997 150.268 492.264 131.068 486.664 114.401L484.131 106.801L503.597 87.3342L523.197 67.7342L527.731 70.1342C530.931 71.8675 535.197 72.6675 542.264 72.6675C550.931 72.6675 553.197 72.1342 559.331 68.8009C572.131 61.7342 578.264 51.0675 578.264 36.2675C578.264 15.6008 562.397 -0.132485 541.731 0.000848417C537.997 0.134182 532.664 0.934182 529.864 1.86752ZM550.264 20.6675C563.331 27.3342 562.664 47.3342 549.331 52.9342C537.197 57.8675 524.531 49.6009 524.531 36.6675C524.531 23.3342 538.531 14.6675 550.264 20.6675ZM371.197 66.6675C381.064 72.6675 382.397 86.4009 373.864 94.2675C364.931 102.268 353.331 100.801 346.664 90.8009C336.397 75.3342 355.197 56.8009 371.197 66.6675ZM461.864 110.134C469.197 114.801 471.997 124.668 468.131 132.668C465.064 139.201 459.197 142.668 451.197 142.668C445.864 142.668 444.131 142.001 440.131 138.268C434.131 132.801 432.397 123.601 436.264 116.534C440.931 107.734 453.464 104.668 461.864 110.134ZM278.931 141.868C288.264 145.868 292.264 160.668 286.131 168.534C275.331 182.268 253.864 175.334 253.864 158.001C253.864 151.201 256.664 146.268 262.664 142.668C267.731 139.468 272.664 139.334 278.931 141.868Z" fill="white"/>
<path d="M511.464 101.468C509.597 102.134 507.331 104.268 506.397 106.134C505.331 108.534 504.931 131.201 504.931 185.334V261.334H496.931H488.931V225.334V189.201L485.597 186.001L482.397 182.668H451.597C422.664 182.668 420.797 182.801 418.264 185.334C415.731 187.868 415.597 189.734 415.597 224.668V261.334H406.931H398.264V208.134V154.801L394.797 152.134C391.464 149.468 389.597 149.334 361.331 149.334H331.464L328.264 152.668L324.931 155.868V208.668V261.334H316.264H307.597V236.268C307.597 222.534 307.064 210.668 306.531 209.868C303.997 206.001 299.197 205.334 270.531 205.334C231.731 205.334 235.064 202.534 234.531 235.868L234.131 261.334H207.597H181.064L179.597 255.601C168.664 213.868 161.731 189.068 159.997 184.934C157.197 178.534 149.197 171.201 142.664 169.334C139.197 168.268 119.064 168.001 77.9972 168.268L18.5306 168.668L12.6639 172.668C2.53056 179.868 -2.13611 192.401 0.930556 204.134C3.06389 211.734 12.7972 221.734 20.2639 223.868C23.5972 224.801 41.3306 225.334 68.9306 225.334H112.264L146.531 353.068L180.797 480.668L177.197 483.334C154.664 500.534 144.531 519.201 144.664 544.001C144.664 559.334 147.864 570.534 155.331 582.134C167.464 600.534 185.864 612.268 207.864 615.334C213.864 616.268 213.997 616.401 214.931 622.134C216.397 632.134 224.131 645.601 233.331 654.268C246.397 666.401 260.131 672.001 276.931 672.001C293.731 672.001 307.464 666.401 320.531 654.268C329.864 645.601 337.464 632.134 339.064 622.001L339.864 616.001L371.997 616.268L403.997 616.668L405.597 623.601C410.531 645.334 428.931 664.268 450.931 670.001C480.664 677.734 511.197 663.201 524.664 635.068C529.464 624.801 529.597 624.401 529.597 608.668C529.597 592.934 529.464 592.534 524.664 582.268C512.931 557.868 489.597 544.001 462.931 545.734C451.597 546.401 441.197 549.734 432.797 555.334L427.597 558.668H371.997H316.264L311.331 555.334C300.531 548.001 293.464 546.134 276.931 546.134C260.397 546.134 253.731 547.868 242.397 555.468C237.331 558.668 236.264 558.934 223.731 558.401C210.664 558.001 210.264 557.868 205.997 553.734C199.864 547.601 199.864 540.401 205.997 534.268L210.264 530.001L316.664 529.334C412.397 528.668 423.331 528.401 426.931 526.401C431.464 524.001 437.197 518.134 439.464 513.601C441.064 510.668 441.064 510.668 476.131 510.668C495.464 510.668 514.531 510.001 518.397 509.334C536.664 505.868 549.197 495.334 559.331 475.201C580.931 431.868 643.597 298.268 644.397 293.868C644.797 290.934 644.397 285.868 643.597 282.668C641.464 274.934 631.731 264.934 624.264 262.801C621.331 262.001 609.731 261.334 598.664 261.334H578.264V183.601C578.264 106.134 578.264 105.734 575.464 103.201C572.931 100.934 570.131 100.668 543.731 100.401C527.464 100.268 513.464 100.668 511.464 101.468ZM559.597 190.001V261.334H541.597H523.597V190.934C523.597 152.134 523.997 120.001 524.531 119.601C524.931 119.068 533.064 118.668 542.531 118.668H559.597V190.001ZM379.597 214.668V261.334H361.597H343.597V214.668V168.001H361.597H379.597V214.668ZM139.464 188.001C140.797 188.668 142.397 190.268 142.797 191.468C143.331 192.801 160.531 256.534 181.064 333.201C222.131 486.534 221.731 485.201 223.597 488.001C224.664 489.734 237.597 490.134 321.731 490.668L418.531 491.334L421.064 494.534C424.397 498.534 424.264 504.134 420.931 507.734L418.131 510.668H315.731C201.464 510.668 204.264 510.401 193.997 519.734C180.397 532.001 179.197 551.201 191.064 565.068C197.064 572.134 204.531 576.001 213.864 576.934C219.864 577.601 220.931 578.134 220.131 579.868C219.597 581.068 217.997 585.468 216.531 589.734L213.864 597.468L208.397 596.534C199.731 595.068 192.797 592.268 185.197 587.068C164.131 572.668 156.931 544.001 168.397 520.668C172.397 512.668 182.931 501.601 189.864 498.001C197.064 494.401 200.931 490.668 200.931 487.334C200.931 481.468 127.864 211.868 125.464 209.201C123.331 206.801 120.931 206.668 75.4639 206.668C43.3306 206.668 26.6639 206.134 24.5306 205.201C21.1972 203.734 18.2639 198.934 18.2639 195.201C18.2639 194.134 19.7306 191.734 21.5972 190.001L24.7972 186.668H80.9306C114.797 186.668 138.131 187.201 139.464 188.001ZM470.264 231.334V261.334H452.264H434.264V231.334V201.334H452.264H470.264V231.334ZM288.931 242.668V261.334H270.931H252.931V242.668V224.001H270.931H288.931V242.668ZM265.597 282.934C266.797 288.134 276.931 337.468 276.931 338.134C276.931 338.401 259.997 338.534 239.331 338.401L201.597 338.001L194.664 312.001C190.797 297.734 187.331 284.668 186.931 282.934L186.264 280.001H225.597H264.931L265.597 282.934ZM392.931 309.334V338.668H344.397H295.997L290.397 310.934C287.464 295.734 284.931 282.534 284.931 281.601C284.931 280.401 296.664 280.001 338.931 280.001H392.931V309.334ZM519.597 280.934C519.464 281.601 516.931 294.534 513.864 310.001L508.131 338.001L459.864 338.401L411.597 338.668V309.334V280.001H465.597C495.331 280.001 519.597 280.401 519.597 280.934ZM620.131 281.468C621.864 282.401 624.131 284.801 625.064 286.934C626.797 291.201 625.331 294.801 610.664 324.268L603.597 338.668H565.597C533.331 338.668 527.597 338.401 527.597 336.801C527.597 334.668 537.864 284.401 538.931 281.601C539.731 279.468 615.197 279.201 620.131 281.468ZM280.931 357.601C280.931 357.868 283.597 370.801 286.797 386.268L292.664 414.668H257.464H222.397L220.397 407.601C215.597 390.534 207.597 360.134 207.597 358.801C207.597 357.734 218.397 357.334 244.264 357.334C264.397 357.334 280.931 357.468 280.931 357.601ZM392.931 386.001V414.668H352.264C329.864 414.668 311.597 414.534 311.597 414.268C311.597 414.134 308.931 401.201 305.731 385.601L299.864 357.334H346.397H392.931V386.001ZM503.597 358.268C503.597 358.934 501.064 371.734 497.997 386.934L492.397 414.668H451.997H411.597V386.001V357.334H457.597C482.931 357.334 503.597 357.734 503.597 358.268ZM594.264 358.268C594.264 358.934 588.397 371.601 581.197 386.668L568.131 414.001L539.864 414.401C524.264 414.534 511.597 414.401 511.597 414.134C511.597 412.934 522.397 360.668 522.931 358.934C523.331 357.734 531.731 357.334 558.931 357.334C578.397 357.334 594.264 357.734 594.264 358.268ZM300.131 450.934C301.997 460.668 303.597 469.468 303.597 470.268C303.597 471.601 296.131 472.001 270.531 472.001H237.464L233.064 454.934C230.531 445.601 228.264 436.934 227.864 435.601C227.331 433.468 229.597 433.334 261.864 433.334H296.531L300.131 450.934ZM392.931 452.668V472.001H358.397C326.531 472.001 323.731 471.868 323.064 469.601C322.397 467.068 315.597 435.068 315.597 434.001C315.597 433.601 333.064 433.334 354.264 433.334H392.931V452.668ZM487.597 435.601C487.597 436.934 485.064 450.134 481.997 464.934L476.397 492.001H458.797H441.064L438.131 486.668C434.264 479.868 427.464 475.201 418.664 473.334L411.597 471.734V452.534V433.334H449.597C484.931 433.334 487.597 433.468 487.597 435.601ZM558.264 434.001C558.264 436.268 537.997 476.134 535.064 479.601C529.197 486.534 518.397 491.068 505.864 491.734L495.197 492.401L495.997 489.201C496.397 487.468 498.931 475.468 501.464 462.668C504.131 449.868 506.531 438.001 506.931 436.268C507.597 433.334 507.864 433.334 532.931 433.334C546.931 433.334 558.264 433.601 558.264 434.001ZM296.664 568.534C309.731 575.201 317.997 586.401 321.064 601.734C322.397 608.134 322.264 610.934 320.397 618.401C315.064 640.401 296.397 654.401 274.531 653.068C253.197 651.868 237.064 637.334 232.797 615.601C231.464 609.201 231.597 606.401 233.464 598.934C237.197 583.334 246.664 572.668 261.731 566.534C271.331 562.668 287.064 563.601 296.664 568.534ZM486.664 568.534C519.731 584.668 519.597 632.668 486.531 648.934C479.864 652.134 477.464 652.668 466.931 652.668C457.197 652.668 453.731 652.001 448.797 649.601C438.931 644.801 432.131 638.001 427.597 628.801C415.331 604.001 426.531 576.134 452.664 566.268C461.997 562.801 477.064 563.734 486.664 568.534ZM409.064 583.068C407.731 586.134 406.131 590.668 405.597 593.068L404.664 597.334H372.397H339.997L337.331 589.601C335.864 585.468 334.264 580.934 333.731 579.601C332.664 577.468 335.064 577.334 372.131 577.334H411.464L409.064 583.068Z" fill="white"/>
<path d="M267.864 581.734C241.464 591.334 243.331 628.934 270.664 636.268C287.464 640.668 304.931 626.668 304.931 608.668C304.797 589.201 285.731 575.334 267.864 581.734ZM282.797 601.468C285.331 603.468 286.264 605.468 286.264 608.668C286.264 613.468 281.464 618.668 276.931 618.668C272.397 618.668 267.597 613.468 267.597 608.668C267.597 603.868 272.397 598.668 276.931 598.668C278.264 598.668 280.797 599.868 282.797 601.468Z" fill="white"/>
<path d="M457.597 581.868C449.731 584.801 441.731 594.001 439.731 602.268C435.197 620.934 452.131 639.734 470.664 636.801C493.064 633.201 502.797 609.201 489.331 590.934C482.931 582.268 468.131 578.001 457.597 581.868ZM473.597 602.001C475.464 603.734 476.931 606.801 476.931 608.668C476.931 612.401 471.597 618.668 468.397 618.668C464.397 618.668 459.731 615.601 458.264 612.001C457.064 609.068 457.197 607.468 458.797 604.268C461.997 598.001 468.664 596.934 473.597 602.001Z" fill="white"/>
</svg>
