<svg width="816" height="544" viewBox="0 0 816 544" fill="none" xmlns="http://www.w3.org/2000/svg">
<path d="M312.667 27.6C311.6 32.2666 312.133 55.4666 313.6 57.6C314.133 58.5333 314.667 51.3333 314.667 41.6C314.667 32 314.4 24 314.133 24C313.867 24 313.2 25.6 312.667 27.6Z" fill="black"/>
<path d="M330.667 50C325.333 55.4666 321.2 60.4 321.733 60.9333C323.067 62.1333 341.867 43.4666 341.2 41.4666C340.933 40.6666 336.133 44.4 330.667 50Z" fill="black"/>
<path d="M286.667 42.1333C286.667 42.8 291.2 47.8667 296.8 53.3333C307.733 64.1333 310 64.4 299.867 53.7333C291.067 44.6667 286.667 40.6667 286.667 42.1333Z" fill="black"/>
<path d="M308 64.6667C304 69.4667 313.067 77.3333 318 73.3333C320.8 71.0667 320.533 68.9333 316.933 65.6C313.333 62.1333 310.267 61.8667 308 64.6667Z" fill="black"/>
<path d="M279.067 68.9333C284 69.2 291.867 69.2 296.4 68.9333C300.933 68.6667 296.933 68.5333 287.333 68.5333C277.867 68.5333 274.133 68.6667 279.067 68.9333Z" fill="black"/>
<path d="M331.733 68.9333C336.267 69.2 343.733 69.2 348.4 68.9333C352.933 68.6667 349.2 68.5333 340 68.5333C330.8 68.5333 327.067 68.6667 331.733 68.9333Z" fill="black"/>
<path d="M525.6 75.4666C523.733 82 520.667 84.9333 514.933 86.1333C510.667 87.0666 508.933 89.3333 512.667 89.3333C517.333 89.3333 521.867 92.9333 524.667 98.9333L527.6 105.2L529.067 100.133C530.933 94 533.867 91.3333 540 89.7333L544.667 88.4L538.533 85.7333C531.733 82.6666 530.667 81.6 528.533 74.6666L527.067 70L525.6 75.4666Z" fill="black"/>
<path d="M320 75.4666C320 77.2 342.4 99.3333 343.333 98.5333C343.867 97.8666 333.2 86.8 320.533 74.8C320.267 74.5333 320 74.8 320 75.4666Z" fill="black"/>
<path d="M294.133 86.6667C288.267 92.5333 284 97.7333 284.533 98.2667C285.467 99.2 306.667 78.9333 306.667 77.0667C306.667 74.6667 304.133 76.6667 294.133 86.6667Z" fill="black"/>
<path d="M406 78.8C367.867 84.4 335.333 111.867 323.6 148.667C320.533 158.4 318.4 176.4 319.333 185.067C321.333 202.133 327.733 220.133 336.267 232.933L340.933 239.733L330.533 250.133C322.267 258.4 320.4 260.933 321.6 262.267C322.8 263.867 325.067 262.133 333.6 253.733L344 243.467L348.667 248L353.333 252.533L342.667 263.2C333.6 272.133 332.267 274 334.133 275.067C335.867 276 338.533 274.133 346.533 266.133L356.8 255.867L364.133 260.8C396.267 282.667 441.6 283.867 475.6 263.867C487.067 257.067 503.867 239.867 510.4 228C520 210.8 523.067 199.333 523.2 180C523.333 159.733 521.867 153.067 513.067 134.8C507.333 122.8 504.8 119.333 494.933 109.333C477.067 91.4667 458.533 82.1333 434.267 78.8C422.4 77.2 417.467 77.2 406 78.8ZM445.467 84.6667C477.867 92.9333 504.4 117.733 515.6 150.267C518.667 159.333 519.2 162.933 519.2 177.333C519.333 191.2 518.8 195.6 516.267 204C505.733 237.467 479.333 263.067 446.667 271.067C421.733 277.2 394.533 273.867 373.733 261.867C339.733 242.267 319.067 202.8 324 166.533C330 123.067 362.933 89.8667 407.333 82.5333C416.667 81.0667 435.2 82 445.467 84.6667Z" fill="black"/>
<path d="M407.467 94.8C377.2 99.8666 353.2 119.6 342.4 148.267C338.667 158.267 338.133 160.933 338.133 174.667C338 187.067 338.533 191.867 340.933 199.333C347.867 220.933 363.6 239.733 382.8 249.2C397.333 256.267 407.2 258.667 422 258.667C436.8 258.667 446.667 256.267 461.2 249.067C481.2 239.333 496.8 220.4 503.467 198C507.2 185.2 506.667 164.8 502.133 151.333C488.933 112.267 448.267 87.8666 407.467 94.8ZM445.467 101.2C478.667 111.6 501.467 141.6 501.6 175.333C501.733 196.933 495.2 213.733 480.8 228.933C471.333 239.067 461.733 245.333 448.267 250.4C440.4 253.467 437.333 253.867 422 253.867C406.667 253.867 403.6 253.467 395.733 250.4C382.267 245.333 372.667 239.067 363.333 229.067C334.133 198.267 334.667 150.667 364.267 121.6C376.667 109.467 391.467 101.467 407.067 98.6666C416.933 96.9333 435.467 98.1333 445.467 101.2Z" fill="black"/>
<path d="M420.8 172.667C396.533 196.667 386.533 207.2 387.2 208.667C387.733 210.267 388.533 210.4 390.267 209.467C391.6 208.8 407.6 193.2 425.867 174.933C454.933 145.733 461.067 138.533 456.267 138.667C455.733 138.8 439.867 154 420.8 172.667Z" fill="black"/>
<path d="M430.133 184C409.2 204.8 404 210.533 407.867 209.067C410.933 208 454.8 163.733 454.267 162.267C454 161.333 443.333 170.933 430.133 184Z" fill="black"/>
<path d="M312.933 80.9334C311.6 83.2 311.867 113.067 313.2 114C314.267 114.533 314.667 109.2 314.667 97.4667C314.667 81.0667 314.4 78.5334 312.933 80.9334Z" fill="black"/>
<path d="M197.6 110.933C195.333 113.2 195.6 118.533 197.867 119.467C199.467 120.133 199.867 128.133 199.867 170.267C200 213.733 200.267 220.8 202.133 223.867C206.267 230.8 208.133 231.333 235.733 231.733L261.333 232.267V265.733C261.333 284 261.6 298.8 262.133 298.4C262.533 298 262.933 283.067 263.067 265.2L263.333 232.667L283.733 232.267C302.4 232 304.667 232.133 308.667 234.667C313.467 237.6 314.667 240.4 314.667 248.933C314.667 252 315.333 254.933 316 255.333C317.733 256.4 317.733 248.8 316 242.4C315.067 239.333 312.8 236.133 310.267 234.133C306.267 231.067 304.533 230.8 285.333 230.133C274 229.733 264.133 229.333 263.6 229.333C263.067 229.333 262.667 216.667 262.667 201.2C262.8 178.267 263.2 173.067 264.8 172.4C267.467 171.467 267.2 164.133 264.533 163.067C259.467 161.2 255.6 167.333 259.333 171.067C261.067 172.933 261.333 177.2 261.067 201.6L260.667 230L235.733 229.733C220.933 229.6 209.6 228.933 208 228C201.6 224.533 201.333 222.133 201.333 169.6C201.333 127.467 201.6 120.133 203.333 118.667C206.8 115.867 204.933 109.333 200.667 109.333C199.867 109.333 198.533 110 197.6 110.933Z" fill="black"/>
<path d="M660.133 139.333C659.733 145.867 659.733 156.267 659.867 162.267C660.267 172.267 660 173.2 657.333 174.667C654.533 176.133 653.067 175.067 638 160C628.933 151.067 620.933 143.867 620 144.267C619.2 144.533 626.267 152.133 635.867 161.067C647.2 171.867 652.933 178.133 652.4 179.333C651.867 180.933 647.333 181.333 627.2 181.333C611.733 181.333 602.667 181.867 602.667 182.667C602.667 183.467 611.733 184 627.2 184C647.6 184 651.867 184.267 652.533 186C652.933 187.2 648.133 192.933 638.4 202.533C630.133 210.667 623.867 217.733 624.4 218.267C624.933 218.8 632.133 212.533 640.4 204.267C660.133 184.667 659.867 184.533 660.4 215.333L660.8 238L661.067 215.067C661.467 184.533 660.933 184.667 681.867 204.8C690.533 213.2 698 219.733 698.533 219.333C698.933 218.8 692.267 211.6 683.6 203.2C673.333 193.2 668 187.2 668.533 186C669.067 184.4 673.333 184 692.667 184C707.333 184 716 183.467 716 182.667C716 181.867 707.333 181.333 692.667 181.333C672.533 181.333 669.2 181.067 668.4 179.2C667.867 177.733 672.267 172.4 683.467 161.2C692.133 152.533 698.667 145.333 698 145.333C697.2 145.333 689.733 152.133 681.467 160.533C661.2 180.8 661.467 181.067 660.933 150.267C660.667 134 660.4 130.8 660.133 139.333Z" fill="black"/>
<path d="M566.133 168.667C564.533 170.267 564.4 171.467 565.333 173.467C566.133 174.8 567.333 176 568 176C568.8 176 569.333 196.267 569.333 230V284H485.733C408.667 284 401.6 284.133 397.333 286.4C390.533 289.733 388 295.733 388 308.933V320H358.133C340.267 320 326.667 319.467 324.4 318.533C322.4 317.867 319.333 315.6 317.733 313.6C316.133 311.6 314.8 310.667 314.667 311.467C314.667 312.133 316.533 314.533 318.8 316.8L322.8 320.667L355.467 321.067L388 321.467V340.533C388 357.467 387.733 360.133 385.467 362.8L382.933 366L331.467 366.4C278.8 366.8 271.733 366.267 267.2 361.6C265.467 359.867 265.067 359.867 265.467 361.333C265.867 362.4 268.267 364.4 270.8 365.6C274.933 367.733 280.533 368 328.267 368H381.333L385.6 364.133L390 360.267L390.667 326.8L391.333 293.333L395.067 289.733L398.667 286H483.733H568.667V311.067L568 336L566 338.5L563.733 340.8C560.933 343.333 559.467 345.333 560.4 345.333C562.133 345.333 566.533 341.2 568.8 337.333C569.467 336.267 570.267 324.267 570.667 310.667L571.333 286L598.533 285.6C624.933 285.333 625.867 285.333 628.933 288.133C631.467 290.667 632.533 290.933 635.333 289.6C641.067 286.933 638.933 280 632.4 280C630.667 280 628.933 280.933 628.533 282C627.867 283.733 623.333 284 599.2 284H570.667V230.133C570.667 182.533 570.933 176.133 572.8 175.467C574.133 174.933 574.667 173.467 574.4 171.067C573.867 166.667 569.467 165.333 566.133 168.667Z" fill="black"/>
<path d="M142.267 192.933C141.867 193.6 141.2 195.867 140.8 198.267C139.733 202.933 136.133 205.867 129.2 207.733L124.667 208.933L130.267 210.533C136 212.133 141.333 217.2 141.333 221.2C141.333 222.4 141.867 224.133 142.533 225.2C143.467 226.667 144.267 225.6 145.467 221.467C147.2 215.6 151.067 212 158 209.733L162 208.4L157.2 207.467C151.333 206.4 146.8 202.4 145.733 197.2C144.933 193.2 143.333 191.2 142.267 192.933Z" fill="black"/>
<path d="M274.267 297.067C253.867 317.333 236.667 334.933 236 336C231.733 342.8 237.067 355.2 245.733 358.533C255.467 362.133 257.2 360.933 298 320L335.333 282.667L324 271.333C317.867 265.067 312.4 260 312 260C311.6 260 294.667 276.667 274.267 297.067Z" fill="black"/>
<path d="M134.4 296.133C131.6 297.733 131.333 301.467 133.6 303.733C135.867 306 140.933 305.733 142.4 303.333C143.333 301.467 148 301.2 178.533 301.6L213.6 302L216.8 305.733L220 309.467V356C220 407.733 220.4 410.133 228.4 416.133L232.667 419.333H325.467C426 419.333 422.667 419.6 427.067 412C428.933 408.933 429.333 404.267 429.333 384.4C429.333 362.8 430.467 358.4 433 354.267C437 349.5 434.667 349.2 431.2 354.267C428.933 357.6 428.667 361.2 428.267 383.6L427.867 409.2L424 413.333L420.267 417.333H326.4C223.333 417.333 229.067 417.733 224.667 409.333C223.067 406.133 222.667 397.6 222.667 358.667C222.667 307.333 222.533 306 214.667 302C211.467 300.4 204.667 300 177.6 300C146.133 300 144.267 299.867 142 297.333C139.333 294.4 137.733 294.133 134.4 296.133Z" fill="black"/>
<path d="M418 321.333C442.4 322 446.8 323.333 448.533 329.733C448.933 331.333 449.333 343.333 449.333 356.267C449.333 379.6 449.333 379.867 452.8 383.867C454.667 386.133 458.4 388.533 461.067 389.333C466.933 390.933 551.5 390.933 551.5 389.333C551.5 388.667 510.8 388.4 493.067 388.267C449.067 387.867 450.667 389.333 450.667 352.933V329.067L446.133 324.533L441.6 320L418.533 320.267L395.333 320.533L418 321.333Z" fill="black"/>
<path d="M550.5 346.5C564 345.5 564.633 339 562.133 344C562.133 352.398 489.133 352 475.133 352C447.052 352 507 349.722 550.5 346.5Z" fill="black"/>
<path d="M434.5 350.5C432.1 352.367 434 353 438.667 349.2C442.8 347.333 443.467 346.667 441.867 346.667C441.067 346.667 435.967 349.3 434.5 350.5Z" fill="black"/>
<path d="M133.333 371.2C101.2 378.4 81.7333 413.867 93.3333 444.4C101.333 465.6 124.4 481.2 147.6 481.333C170.533 481.333 189.467 469.733 200.267 449.067C204.533 441.067 204.667 440 204.667 426C204.533 412.267 204.267 410.8 200.267 402.4C197.2 396.267 193.333 391.2 187.6 385.867C172.133 371.467 154 366.667 133.333 371.2ZM145.867 372.8C147.467 373.467 148 375.6 148 382.133V390.667H142.667C136.133 390.667 136 389.333 141.467 380.8C143.6 377.2 145.2 374 144.8 373.733C144.133 372.933 139.6 379.867 136.933 385.6C136.133 387.733 134.4 389.333 133.333 389.333C129.333 389.333 125.333 387.6 125.333 386C125.333 384 134.133 376 136.267 376C137.067 376 137.333 375.6 136.933 375.2C135.867 374 125.733 380.933 124.8 383.467C123.867 385.867 118.133 385.867 116.133 383.467C114.4 381.333 115.467 380.267 122.667 376.667C131.067 372.4 140.667 370.8 145.867 372.8ZM164.8 380.533C168.4 383.733 170.933 386.8 170.533 387.2C170.133 387.6 168 388.4 165.733 388.8C161.867 389.6 161.467 389.2 157.467 381.867C155.2 377.6 153.333 373.733 153.333 373.067C153.333 371.2 157.733 374.133 164.8 380.533ZM168.4 374.933C172.267 376.533 176.667 378.933 178.4 380.133L181.467 382.533L177.733 384.4C174.133 386.267 173.867 386.133 166 379.2C157.333 371.333 157.867 370.4 168.4 374.933ZM156.8 382.933C159.2 387.733 159.6 389.467 158.4 389.867C153.2 391.467 153.067 391.733 156.8 391.867C160.533 392 161.067 392.533 163.2 399.467C164.533 403.6 165.333 407.067 165.067 407.333C164.8 407.467 161.2 408 157.067 408.533L149.333 409.333V401.6C149.333 397.333 150 393.2 150.933 392.267C152.133 391.067 152.133 390.667 150.933 390.667C149.867 390.667 149.333 387.867 149.333 381.867C149.333 374 149.6 373.2 151.467 374.8C152.533 375.733 155.067 379.333 156.8 382.933ZM116.667 385.6C118.533 386.4 120 387.6 120 388.133C120 389.067 112.267 404.133 111.333 405.067C110.8 405.6 99.6 402.533 98.2666 401.333C96.5333 399.733 109.067 384.133 112.267 384C112.8 384 114.8 384.667 116.667 385.6ZM190.4 390.267C196.933 398.267 202.267 409.733 203.467 418.533L204.4 425.333H195.6C185.867 425.333 186.667 426.4 184.667 412.533L183.867 407.067L190.133 405.467C193.467 404.533 196 403.6 195.6 403.2C195.2 402.8 192.4 403.2 189.467 404.133C186.4 405.067 183.867 405.467 183.6 405.2C183.467 404.933 181.467 400.933 179.2 396.267L174.933 387.867L178.533 386C183.733 383.2 184.667 383.467 190.4 390.267ZM128.133 389.6C134 391.333 134 391.2 131.733 401.067L130 408.267L125.333 407.467C122.8 407.067 119.333 406.667 117.733 406.667C115.733 406.667 114.667 405.867 114.667 404.4C114.667 402.267 121.467 388 122.4 388C122.8 388 125.333 388.667 128.133 389.6ZM177.333 396.133C179.733 400.533 181.067 404.667 180.533 405.333C179.867 405.867 176.533 406.667 173.2 407.067L167.067 407.867L164.8 399.733C163.6 395.333 162.8 391.467 162.933 391.333C163.467 390.933 171.067 388.267 172.133 388.133C172.533 388 174.933 391.6 177.333 396.133ZM145.067 392.8C147.6 393.6 148 394.533 148 400.8C148 404.667 147.6 408.133 147.067 408.4C146.4 408.8 142.8 408.667 139.067 408.4C131.067 407.6 130.533 406.4 134.133 397.333C136.4 391.867 138.267 391.067 145.067 392.8ZM106.133 405.467C110.8 406.667 112 407.467 111.333 409.2C110.8 410.4 110.133 414.533 109.733 418.267L108.933 425.333H100.533C96 425.333 91.8666 424.8 91.3333 424.133C90.5333 422.8 92.4 413.333 94.6666 407.467C96.1333 403.6 97.4666 403.333 106.133 405.467ZM132 410C133.867 410.133 138.133 410.4 141.733 410.4L148 410.667V418V425.333H139.333H130.667L130.4 418.267L130.133 411.333L129.733 418.267L129.2 425.333H119.733H110.267L111.2 417.867C111.733 413.733 112.4 409.733 112.8 409.067C113.333 408.267 116.667 408.133 121.2 408.8C125.333 409.333 130.133 409.867 132 410ZM183.2 412.133C183.6 414.4 184 418.4 184 420.8V425.333H176H168V420.267C168 417.6 167.6 414 167.2 412.4C166.4 409.333 168.133 408.667 178.133 408.133C181.867 408 182.4 408.533 183.2 412.133ZM165.867 412.267C166.267 414 166.667 417.6 166.667 420.267V425.333H158H149.333V418.133V410.8L154.4 410.267C164.8 409.2 164.933 409.2 165.867 412.267ZM110.4 435.333C111.2 440 112 444.4 112 445.067C112 446.533 99.2 449.733 97.4666 448.667C95.6 447.6 92 435.2 92 430.4C92 426.667 92.1333 426.667 100.4 426.667H108.667L110.4 435.333ZM128.4 427.6C128.8 428.267 129.2 432 129.467 436L130 443.333L122.667 444.267C118.667 444.8 114.933 444.667 114.4 444.133C112.933 442.8 110.533 429.333 111.467 427.867C112.267 426.4 127.6 426.267 128.4 427.6ZM148 434.667V442.667H140.133C132.4 442.667 132.267 442.533 131.467 438.533C131.067 436.267 130.667 432.667 130.667 430.533C130.667 426.667 130.667 426.667 139.333 426.667H148V434.667ZM166.4 431.867C166.667 434.4 166.533 437.733 166.133 439.467C165.333 442.4 164.533 442.667 157.333 442.667H149.333V434.667V426.533L157.733 426.933L166 427.333L166.4 431.867ZM183.733 435.333C183.467 440 182.8 444.267 182.4 444.8C181.867 445.2 178.4 445.067 174.533 444.4L167.467 443.333L167.867 436C168 432 168.533 428.267 168.8 427.733C169.2 427.067 172.8 426.667 176.933 426.667H184.267L183.733 435.333ZM203.467 428.533C204.533 431.2 201.6 444.4 199.467 447.333C197.867 449.467 197.067 449.6 190.8 448C183.867 446.4 183.733 446.267 184.4 442.133C184.8 439.867 185.6 435.467 186 432.267L186.933 426.667H194.8C200.533 426.667 202.933 427.2 203.467 428.533ZM147.733 451.6L147.333 459.333H142.133C137.067 459.333 136.8 459.2 134.533 452.4C133.333 448.667 132.533 445.2 133.067 444.8C133.467 444.4 137.067 444 140.933 444H148.133L147.733 451.6ZM162.133 445.067C164.8 446 164.8 446.267 162.933 453.067L160.933 460.133L155.467 459.733L150 459.333L149.6 451.6L149.2 444L154.267 444.133C157.067 444.267 160.533 444.667 162.133 445.067ZM132.667 452C135.333 459.867 134.667 461.067 127.733 462.133C123.2 462.933 122.933 462.667 118.933 455.867C116.533 451.867 114.667 449.2 114.667 450C114.667 450.667 116.133 453.733 118 456.667C119.733 459.6 121.333 462.4 121.333 462.933C121.333 463.467 119.467 464.933 117.067 466.133L112.8 468.4L105.6 460.667C98.9333 453.467 98.5333 452.667 100.667 451.2C102 450.267 105.6 449.067 108.8 448.533C112 448.133 114.4 447.333 114.133 446.8C113.867 446.4 117.333 445.867 122 445.6L130.4 445.2L132.667 452ZM181.2 447.333C181.6 447.867 180.133 451.467 178 455.6C174.267 462.667 174.133 462.933 169.6 462.133C162.133 460.933 162.133 460.8 166.133 446.8C166.533 445.467 168.4 445.2 173.6 445.733C177.333 446.267 180.667 446.933 181.2 447.333ZM191.467 449.467C194.667 450.267 197.333 451.333 197.333 451.867C197.333 452.4 194.267 456.267 190.533 460.4L183.867 468L179.867 465.867C177.6 464.8 176 463.467 176.267 462.933C179.733 455.067 183.6 448.133 184.4 448C185.067 448 188.133 448.667 191.467 449.467ZM144 478C144 479.333 134 473.467 130.4 470C125.6 465.6 125.733 464.267 131.067 462.933C135.2 461.867 135.467 462 139.733 469.6C142 473.867 144 477.733 144 478ZM148 468.8C148 477.6 146.267 477.867 141.733 469.867C137.6 462.667 137.867 461.333 143.333 461.333H148V468.8ZM159.2 462.4C160 463.733 152.133 477.333 150.533 477.333C149.867 477.333 149.333 473.733 149.333 469.333V461.333H153.867C156.4 461.333 158.8 461.867 159.2 462.4ZM169.067 463.467C172 464.267 172 464.4 169.867 467.867L167.6 471.333L170.933 468.267C173.867 465.6 174.8 465.467 178.133 466.667L182 468.133L178.667 470.8C174.933 473.6 162.4 478.667 161.333 477.733C160.933 477.333 162 476 163.733 474.667C168.8 470.4 166.933 470.533 160.533 474.8C157.2 477.067 154.267 478.667 153.867 478.4C153.6 478 155.2 474.4 157.467 470.267C161.6 462.667 162.933 461.867 169.067 463.467ZM124.667 466.667C125.2 467.467 128.667 470.533 132.4 473.6L139.333 479.067L134.667 478.133C128.8 477.067 116 470.933 116 469.2C116 468.533 117.333 467.333 119.067 466.667C123.067 465.067 123.733 465.067 124.667 466.667Z" fill="black"/>
<path d="M595.067 386.4C592.533 388.667 589.467 388.933 560 388.667C542.4 388.533 527.6 388.933 527.2 389.6C526.8 390.133 541.733 390.667 560.4 390.667C589.467 390.667 594.533 390.933 596 392.667C599.733 397.2 607.6 391.867 604.533 386.933C602.533 383.733 598.533 383.6 595.067 386.4Z" fill="black"/>
<path d="M639.067 400.667C602.667 408.533 583.333 446.4 598.933 479.467C602.267 486.667 613.2 499.067 620 503.333C638.667 515.067 665.467 515.067 684.133 503.2C705.067 490 715.333 464.133 708.533 441.2C702.267 420.133 682.933 403.733 660 400.133C649.6 398.4 649.467 398.4 639.067 400.667ZM676.4 407.067C681.733 409.733 688.133 413.867 690.8 416.267C704 428.133 711.067 447.333 708.4 463.467C702 500.4 661.467 521.2 627.6 504.933C585.733 484.933 584.533 428 625.6 407.2C635.067 402.4 640.667 401.333 654.4 401.867C665.467 402.267 667.733 402.8 676.4 407.067Z" fill="black"/>
<path d="M629.867 424.933C626.533 429.867 626.533 444.267 629.733 450.267C635.067 460.133 643.2 452.667 643.2 438C643.067 423.467 635.733 416.267 629.867 424.933Z" fill="black"/>
<path d="M662.133 425.2C656.933 435.2 661.2 455.467 668.4 454.4C678.667 452.933 678.133 422.8 667.733 421.6C664.933 421.2 663.733 422 662.133 425.2Z" fill="black"/>
<path d="M612 466.667C610.267 467.733 610.267 468.133 612.133 469.6C613.333 470.533 616.133 474.133 618.533 477.6C626.267 489.2 642.8 497.2 655.867 495.6C668.933 494 682.8 484.933 688.133 474.4C689.6 471.6 691.6 469.333 692.667 469.333C695.733 469.333 695.067 467.067 691.733 466.133C687.067 464.933 686.267 465.2 687.867 467.2C691.467 471.467 674.8 489.067 664.267 492C656.4 494.133 642.667 493.6 636.667 490.8C625.733 485.867 612.933 471.067 616.133 467.067C618 464.933 615.2 464.667 612 466.667Z" fill="black"/>
<path d="M454 416.267C451.2 422 450.133 422.933 443.333 425.467L439.333 426.933L444.533 428.8C451.2 431.2 454.667 434.267 454.667 437.867C454.667 443.733 456.8 444.133 458.667 438.667C460.8 432.4 461.867 431.333 468.8 428.8L474 426.933L470 425.467C463.2 422.933 462.133 422 459.333 416.267L456.533 410.667L454 416.267Z" fill="black"/>
</svg>
