<svg width="504" height="331" viewBox="0 0 504 331" fill="none" xmlns="http://www.w3.org/2000/svg">
<g clip-path="url(#clip0_2_12)">
<g clip-path="url(#clip1_2_12)">
<path d="M302.724 72.604H83.148V106.853H302.724V72.604Z" fill="black"/>
<path d="M233.194 132.389H83.148V212.604H233.194V132.389Z" fill="#B9B9B9"/>
<path d="M302.725 132.389H261.927V212.604H302.725V132.389Z" fill="#616161"/>
<path d="M356.873 29.937H29C23.477 29.937 19 34.414 19 39.937V250.33C19 255.853 23.477 260.33 29 260.33H143.979C139.572 281.806 129.378 292.902 129.305 292.981C126.512 295.866 125.715 300.141 127.282 303.838C128.848 307.535 132.473 309.937 136.489 309.937H249.384C253.4 309.937 257.025 307.535 258.591 303.838C260.157 300.141 259.361 295.865 256.568 292.981C256.451 292.859 246.289 281.807 241.892 260.33H356.873C362.396 260.33 366.873 255.853 366.873 250.33V39.937C366.873 34.414 362.396 29.937 356.873 29.937ZM346.873 240.329H330.562V237.513C330.562 231.99 326.085 227.513 320.562 227.513C315.039 227.513 310.562 231.99 310.562 237.513V240.329H300.123V237.513C300.123 231.99 295.646 227.513 290.123 227.513C284.601 227.513 280.123 231.99 280.123 237.513V240.329H230.341H155.532H39V49.937H346.873V240.329Z" fill="black"/>
</g>
<path d="M465.615 311.26L362.376 310.785C356.414 310.752 350.709 308.354 346.513 304.118C342.318 299.882 339.975 294.154 340 288.192L341.096 29.3865C341.108 26.4327 341.702 23.5103 342.844 20.7863C343.987 18.0623 345.655 15.5901 347.753 13.5111C349.851 11.4321 352.338 9.78698 355.073 8.66981C357.807 7.55264 360.735 6.98532 363.689 7.00029L466.917 7.47571C472.879 7.50579 478.585 9.90094 482.783 14.1351C486.98 18.3693 489.325 24.0963 489.303 30.0583L488.208 288.853C488.196 291.808 487.602 294.731 486.46 297.457C485.318 300.182 483.65 302.655 481.552 304.736C479.454 306.817 476.967 308.464 474.232 309.583C471.498 310.703 468.57 311.272 465.615 311.26Z" fill="#455A64"/>
<path d="M466.762 16.3744H446.753C446.1 16.3865 445.456 16.5271 444.858 16.7882C444.259 17.0492 443.718 17.4257 443.265 17.896C442.812 18.3662 442.456 18.9212 442.217 19.529C441.979 20.1369 441.863 20.7858 441.875 21.4387V25.0663C441.887 25.7187 441.771 26.3671 441.532 26.9744C441.293 27.5816 440.937 28.1359 440.484 28.6053C440.031 29.0748 439.49 29.4503 438.891 29.7102C438.293 29.9702 437.649 30.1095 436.997 30.1203L397.991 29.9446C396.672 29.9094 395.42 29.352 394.511 28.3947C393.603 27.4374 393.111 26.1585 393.144 24.839V21.2113C393.178 19.8935 392.687 18.6161 391.781 17.6591C390.874 16.7022 389.625 16.1435 388.307 16.1057H381.269L363.751 16.023C359.584 15.9982 355.577 17.6255 352.608 20.5485C349.638 23.4716 347.948 27.4523 347.907 31.6189L346.873 284.233C346.864 286.301 347.261 288.349 348.044 290.263C348.826 292.176 349.977 293.917 351.432 295.385C352.887 296.853 354.617 298.021 356.523 298.821C358.429 299.62 360.474 300.037 362.541 300.046L465.563 300.522C467.632 300.531 469.682 300.133 471.597 299.351C473.511 298.568 475.253 297.416 476.722 295.96C478.192 294.504 479.36 292.773 480.16 290.865C480.96 288.958 481.377 286.912 481.387 284.843L482.42 32.2287C482.445 28.0503 480.809 24.0331 477.873 21.0601C474.937 18.0871 470.941 16.4017 466.762 16.3744Z" fill="white"/>
<path d="M452.903 266.819L376.298 266.488C375.502 266.488 374.861 265.62 374.871 264.565L374.954 244.525C374.954 243.492 375.605 242.603 376.401 242.603L453.006 242.954C453.447 243.031 453.841 243.274 454.107 243.634C454.373 243.994 454.489 244.443 454.432 244.887L454.36 264.906C454.36 265.971 453.698 266.829 452.903 266.819Z" fill="#191A23"/>
<path d="M399.589 256.606C399.166 256.606 398.759 256.538 398.369 256.403C397.984 256.262 397.686 256.083 397.474 255.866L397.71 255.403C397.911 255.598 398.179 255.763 398.515 255.899C398.857 256.029 399.214 256.094 399.589 256.094C399.946 256.094 400.236 256.05 400.459 255.964C400.686 255.871 400.852 255.749 400.955 255.598C401.063 255.446 401.117 255.278 401.117 255.094C401.117 254.871 401.052 254.692 400.922 254.557C400.797 254.421 400.632 254.316 400.426 254.24C400.22 254.158 399.992 254.088 399.743 254.028C399.494 253.969 399.244 253.906 398.995 253.841C398.746 253.771 398.515 253.679 398.304 253.565C398.098 253.451 397.93 253.302 397.8 253.118C397.675 252.928 397.613 252.681 397.613 252.378C397.613 252.096 397.686 251.838 397.832 251.605C397.984 251.367 398.214 251.177 398.523 251.036C398.832 250.89 399.228 250.816 399.71 250.816C400.03 250.816 400.347 250.863 400.662 250.955C400.976 251.041 401.247 251.163 401.475 251.321L401.272 251.8C401.028 251.638 400.768 251.518 400.491 251.443C400.22 251.367 399.957 251.329 399.702 251.329C399.361 251.329 399.079 251.375 398.857 251.467C398.634 251.559 398.469 251.684 398.361 251.841C398.258 251.993 398.206 252.166 398.206 252.361C398.206 252.584 398.269 252.763 398.393 252.898C398.523 253.034 398.691 253.139 398.897 253.215C399.109 253.291 399.339 253.359 399.589 253.418C399.838 253.478 400.085 253.543 400.328 253.614C400.578 253.684 400.806 253.776 401.011 253.89C401.223 253.999 401.391 254.145 401.516 254.329C401.646 254.513 401.711 254.755 401.711 255.053C401.711 255.329 401.635 255.587 401.483 255.825C401.331 256.058 401.098 256.248 400.784 256.395C400.475 256.535 400.076 256.606 399.589 256.606ZM403.022 256.557V250.865H403.624V256.557H403.022ZM405.476 256.557V250.865H405.972L409.899 255.809H409.639V250.865H410.232V256.557H409.736L405.817 251.613H406.077V256.557H405.476ZM414.586 256.606C414.153 256.606 413.752 256.535 413.383 256.395C413.02 256.248 412.703 256.045 412.432 255.785C412.166 255.524 411.957 255.218 411.806 254.866C411.659 254.513 411.586 254.129 411.586 253.711C411.586 253.294 411.659 252.909 411.806 252.557C411.957 252.204 412.169 251.898 412.44 251.638C412.711 251.378 413.028 251.177 413.391 251.036C413.76 250.89 414.161 250.816 414.595 250.816C415.028 250.816 415.424 250.884 415.782 251.02C416.145 251.155 416.454 251.361 416.709 251.638L416.335 252.02C416.096 251.781 415.833 251.611 415.546 251.508C415.259 251.405 414.95 251.353 414.619 251.353C414.267 251.353 413.941 251.413 413.643 251.532C413.35 251.646 413.093 251.811 412.871 252.028C412.654 252.239 412.483 252.489 412.358 252.776C412.239 253.058 412.18 253.37 412.18 253.711C412.18 254.047 412.239 254.359 412.358 254.646C412.483 254.934 412.654 255.186 412.871 255.403C413.093 255.614 413.35 255.779 413.643 255.899C413.941 256.012 414.264 256.069 414.611 256.069C414.936 256.069 415.242 256.02 415.53 255.923C415.822 255.825 416.091 255.66 416.335 255.427L416.676 255.882C416.405 256.121 416.088 256.302 415.725 256.427C415.362 256.546 414.982 256.606 414.586 256.606ZM416.099 255.809V253.711H416.676V255.882L416.099 255.809ZM422.8 256.606C422.074 256.606 421.502 256.397 421.085 255.98C420.667 255.562 420.458 254.944 420.458 254.126V250.865H421.06V254.102C421.06 254.774 421.212 255.27 421.516 255.59C421.819 255.909 422.247 256.069 422.8 256.069C423.359 256.069 423.79 255.909 424.093 255.59C424.397 255.27 424.549 254.774 424.549 254.102V250.865H425.134V254.126C425.134 254.944 424.925 255.562 424.508 255.98C424.096 256.397 423.527 256.606 422.8 256.606ZM426.947 256.557V250.865H429.078C429.56 250.865 429.975 250.944 430.322 251.101C430.669 251.253 430.934 251.475 431.119 251.768C431.308 252.055 431.403 252.405 431.403 252.817C431.403 253.218 431.308 253.565 431.119 253.858C430.934 254.145 430.669 254.367 430.322 254.524C429.975 254.682 429.56 254.76 429.078 254.76H427.281L427.549 254.476V256.557H426.947ZM427.549 254.524L427.281 254.232H429.061C429.631 254.232 430.061 254.11 430.354 253.866C430.652 253.616 430.801 253.267 430.801 252.817C430.801 252.361 430.652 252.009 430.354 251.76C430.061 251.51 429.631 251.386 429.061 251.386H427.281L427.549 251.101V254.524Z" fill="#E8E8E3"/>
<path d="M391.577 90.6335L364.995 90.5128L364.973 95.391L391.555 95.5117L391.577 90.6335Z" fill="#FF0B0B"/>
<g opacity="0.1" filter="url(#filter0_d_2_12)">
<path d="M391.577 90.6335L364.995 90.5128L364.973 95.391L391.555 95.5117L391.577 90.6335Z" fill="#FF0000"/>
<path d="M391.075 91.131L391.057 95.0089L365.475 94.8927L365.493 91.0148L391.075 91.131Z" stroke="#FF0B0B"/>
</g>
<path d="M469.501 120.585C469.71 120.564 469.915 120.515 470.111 120.44C470.397 120.328 470.646 120.138 470.828 119.891C471.011 119.644 471.121 119.351 471.144 119.045C471.144 117.402 471.144 115.004 471.144 111.924C471.144 110.384 471.144 108.658 471.144 106.756C471.144 106.291 471.144 105.805 471.144 105.32C471.212 104.848 471.109 104.368 470.855 103.966C470.713 103.773 470.528 103.615 470.314 103.506C470.101 103.397 469.865 103.338 469.625 103.335H468.013H453.078L366.634 103.015C366.413 103.011 366.194 103.061 365.996 103.16C365.798 103.259 365.627 103.404 365.497 103.583C365.248 103.988 365.152 104.468 365.229 104.937C365.229 105.971 365.229 107.004 365.229 108.038C365.229 110.105 365.229 112.172 365.229 114.239C365.229 115.273 365.229 116.306 365.229 117.34C365.186 117.821 365.186 118.305 365.229 118.787C365.283 118.993 365.384 119.184 365.524 119.345C365.663 119.507 365.838 119.634 366.035 119.717C366.238 119.798 366.456 119.836 366.676 119.83H371.936L394.891 119.954L433.751 120.192L459.951 120.399L467.072 120.481H468.922C469.346 120.481 469.553 120.481 469.553 120.481H468.922H467.072H459.951H433.751L394.891 120.357L371.936 120.264H366.676C366.386 120.276 366.097 120.227 365.828 120.12C365.556 120.004 365.314 119.827 365.12 119.603C364.927 119.379 364.787 119.114 364.712 118.828C364.652 118.557 364.631 118.278 364.65 118.001V117.236C364.65 116.203 364.65 115.169 364.65 114.136C364.65 112.069 364.65 110.002 364.65 107.934C364.65 106.901 364.65 105.867 364.65 104.834C364.63 104.559 364.63 104.282 364.65 104.007C364.689 103.703 364.806 103.415 364.991 103.17C365.169 102.921 365.405 102.718 365.679 102.579C365.952 102.441 366.255 102.37 366.562 102.374L453.006 102.85L467.94 102.953H469.553C469.837 102.953 470.117 103.022 470.368 103.153C470.62 103.285 470.837 103.475 471 103.707C471.291 104.157 471.409 104.697 471.33 105.227C471.33 105.712 471.33 106.198 471.33 106.663C471.33 108.544 471.33 110.27 471.33 111.831C471.33 114.931 471.258 117.309 471.237 118.962C471.212 119.28 471.097 119.584 470.904 119.839C470.712 120.093 470.451 120.288 470.152 120.399C469.957 120.52 469.731 120.584 469.501 120.585Z" fill="#E0E0E0"/>
<path d="M421.597 108.203H372.98V112.761H421.597V108.203Z" fill="#FF0B0B"/>
<g opacity="0.2" filter="url(#filter1_d_2_12)">
<path d="M421.597 108.203H372.98V112.761H421.597V108.203Z" fill="#FF0000"/>
<path d="M421.097 108.703V112.261H373.48V108.703H421.097Z" stroke="#FF0B0B"/>
</g>
<path d="M391.396 135.136L364.814 135.015L364.792 139.893L391.374 140.014L391.396 135.136Z" fill="#FF0B0B"/>
<g opacity="0.1" filter="url(#filter2_d_2_12)">
<path d="M391.396 135.136L364.814 135.015L364.792 139.893L391.374 140.014L391.396 135.136Z" fill="#FF0000"/>
<path d="M390.894 135.633L390.876 139.511L365.294 139.395L365.312 135.517L390.894 135.633Z" stroke="#FF0B0B"/>
</g>
<path d="M468.829 165.088C469.038 165.063 469.245 165.025 469.449 164.975C469.738 164.883 470.004 164.73 470.228 164.527C470.453 164.324 470.631 164.075 470.752 163.797C470.914 163.379 470.978 162.93 470.938 162.484C470.938 161.988 470.938 161.45 470.938 160.851C470.938 159.652 470.938 158.288 470.938 156.717V150.154C470.987 149.679 470.882 149.2 470.638 148.79C470.383 148.369 469.982 148.056 469.511 147.911C468.997 147.819 468.472 147.792 467.951 147.829H453.078L366.934 147.508C366.471 147.509 366.023 147.679 365.676 147.985C365.328 148.291 365.103 148.713 365.043 149.172C365.043 150.154 365.043 151.239 365.043 152.273C365.043 154.34 365.043 156.407 365.043 158.474C365.043 159.507 365.043 160.541 365.043 161.575C365.004 162.058 365.025 162.543 365.105 163.021C365.234 163.441 365.499 163.804 365.859 164.055C366.241 164.297 366.689 164.413 367.141 164.386H368.577H371.564L394.436 164.499L433.162 164.737L459.269 164.944L466.37 165.026H459.269H433.162L394.415 164.985L371.543 164.902H367.048C366.489 164.936 365.934 164.787 365.466 164.479C364.996 164.153 364.653 163.675 364.495 163.125C364.402 162.6 364.374 162.065 364.412 161.533C364.412 160.5 364.412 159.466 364.412 158.433C364.412 156.366 364.412 154.298 364.412 152.231C364.412 151.198 364.412 150.164 364.412 149.131C364.488 148.54 364.776 147.997 365.223 147.603C365.67 147.209 366.245 146.992 366.841 146.991L452.985 147.467L467.858 147.581C468.412 147.547 468.967 147.585 469.511 147.694C470.048 147.87 470.501 148.238 470.783 148.728C471.05 149.183 471.166 149.711 471.113 150.237C471.113 150.722 471.113 151.198 471.113 151.673C471.113 153.544 471.113 155.26 471.113 156.841C471.113 158.422 471.113 159.756 471.113 160.975C471.113 161.564 471.113 162.112 471.113 162.618C471.151 163.081 471.077 163.545 470.896 163.972C470.762 164.257 470.568 164.51 470.327 164.714C470.087 164.917 469.805 165.066 469.501 165.151C469.275 165.169 469.048 165.148 468.829 165.088Z" fill="#E0E0E0"/>
<path d="M391.196 181.571L364.614 181.45L364.592 186.328L391.174 186.449L391.196 181.571Z" fill="#FF0B0B"/>
<g opacity="0.1" filter="url(#filter3_d_2_12)">
<path d="M391.196 181.571L364.614 181.45L364.592 186.328L391.174 186.449L391.196 181.571Z" fill="#FF0000"/>
<path d="M390.693 182.068L390.676 185.946L365.094 185.83L365.111 181.952L390.693 182.068Z" stroke="#FF0B0B"/>
</g>
<path d="M468.623 211.504C468.831 211.48 469.039 211.442 469.243 211.39C469.53 211.299 469.795 211.148 470.019 210.946C470.244 210.745 470.423 210.498 470.545 210.223C470.707 209.805 470.771 209.356 470.731 208.91C470.731 208.404 470.731 207.877 470.731 207.267C470.731 206.078 470.731 204.704 470.731 203.133V196.57C470.78 196.095 470.675 195.616 470.431 195.205C470.17 194.792 469.771 194.484 469.305 194.337C468.79 194.242 468.266 194.211 467.744 194.244H452.872L366.727 193.924C366.264 193.925 365.817 194.094 365.469 194.4C365.121 194.706 364.896 195.128 364.836 195.588C364.836 196.621 364.836 197.655 364.836 198.688C364.836 200.755 364.836 202.823 364.836 204.89C364.836 205.923 364.836 206.957 364.836 207.99C364.797 208.47 364.818 208.952 364.898 209.427C365.022 209.848 365.288 210.214 365.652 210.46C366.032 210.708 366.482 210.824 366.934 210.791H371.43L394.302 210.915L433.028 211.153L459.135 211.359L466.235 211.442H459.135H433.028L394.302 211.328L371.43 211.235H366.934C366.374 211.273 365.818 211.124 365.353 210.812C364.882 210.486 364.539 210.008 364.381 209.458C364.288 208.933 364.261 208.398 364.298 207.866C364.298 206.833 364.298 205.799 364.298 204.766C364.298 202.699 364.298 200.631 364.298 198.564C364.298 197.531 364.298 196.497 364.298 195.412C364.371 194.822 364.658 194.279 365.103 193.885C365.548 193.491 366.122 193.273 366.717 193.273L452.861 193.748L467.734 193.862C468.288 193.828 468.843 193.866 469.387 193.976C469.924 194.151 470.377 194.519 470.659 195.009C470.926 195.464 471.042 195.993 470.989 196.518C470.989 197.004 470.989 197.49 470.989 197.955C470.989 199.825 470.989 201.541 470.989 203.122C470.989 204.704 470.989 206.037 470.989 207.256C470.989 207.845 470.989 208.393 470.989 208.9C471.029 209.362 470.954 209.827 470.772 210.254C470.638 210.539 470.444 210.792 470.203 210.995C469.963 211.198 469.681 211.347 469.377 211.432C469.135 211.515 468.876 211.54 468.623 211.504Z" fill="#E0E0E0"/>
<path d="M420.559 153.995L371.943 153.775L371.922 158.333L420.539 158.553L420.559 153.995Z" fill="#FF0B0B"/>
<g opacity="0.2" filter="url(#filter4_d_2_12)">
<path d="M420.559 153.995L371.943 153.775L371.922 158.333L420.539 158.553L420.559 153.995Z" fill="#FF0000"/>
<path d="M420.057 154.492L420.04 158.05L372.424 157.835L372.44 154.277L420.057 154.492Z" stroke="#FF0B0B"/>
</g>
<path d="M376.339 203.071C376.309 203.486 376.157 203.884 375.902 204.214C375.648 204.544 375.302 204.793 374.908 204.928C374.514 205.064 374.088 205.081 373.685 204.977C373.281 204.873 372.917 204.652 372.637 204.343C372.357 204.034 372.174 203.65 372.111 203.238C372.048 202.826 372.107 202.404 372.281 202.026C372.455 201.647 372.737 201.328 373.091 201.107C373.444 200.887 373.855 200.775 374.272 200.786C374.848 200.819 375.388 201.076 375.775 201.504C376.162 201.932 376.364 202.494 376.339 203.071Z" fill="#010101"/>
<path d="M382.923 203.102C382.943 203.393 382.903 203.685 382.806 203.961C382.708 204.236 382.555 204.488 382.356 204.702C382.156 204.916 381.915 205.086 381.647 205.202C381.38 205.319 381.091 205.379 380.799 205.379C380.506 205.379 380.218 205.319 379.95 205.202C379.682 205.086 379.441 204.916 379.242 204.702C379.042 204.488 378.889 204.236 378.792 203.961C378.694 203.685 378.654 203.393 378.675 203.102C378.654 202.81 378.694 202.518 378.792 202.242C378.889 201.967 379.042 201.715 379.242 201.501C379.441 201.288 379.682 201.117 379.95 201.001C380.218 200.884 380.506 200.824 380.799 200.824C381.091 200.824 381.38 200.884 381.647 201.001C381.915 201.117 382.156 201.288 382.356 201.501C382.555 201.715 382.708 201.967 382.806 202.242C382.903 202.518 382.943 202.81 382.923 203.102Z" fill="#010101"/>
<path d="M389.517 203.133C389.486 203.548 389.334 203.946 389.08 204.276C388.825 204.606 388.48 204.855 388.085 204.99C387.691 205.126 387.266 205.143 386.862 205.039C386.459 204.935 386.094 204.715 385.815 204.405C385.535 204.096 385.352 203.712 385.289 203.3C385.225 202.888 385.285 202.466 385.459 202.088C385.633 201.709 385.914 201.39 386.268 201.169C386.622 200.949 387.033 200.837 387.449 200.848C388.024 200.883 388.563 201.142 388.949 201.569C389.335 201.996 389.539 202.557 389.517 203.133Z" fill="#010101"/>
<path d="M396.1 203.164C396.069 203.579 395.918 203.977 395.663 204.307C395.409 204.637 395.063 204.886 394.669 205.021C394.275 205.157 393.849 205.174 393.446 205.07C393.042 204.966 392.678 204.746 392.398 204.436C392.118 204.127 391.935 203.743 391.872 203.331C391.809 202.919 391.868 202.497 392.042 202.119C392.216 201.74 392.498 201.421 392.852 201.2C393.206 200.98 393.616 200.868 394.033 200.879C394.608 200.914 395.146 201.173 395.533 201.6C395.919 202.027 396.123 202.588 396.1 203.164Z" fill="#010101"/>
<path d="M402.684 203.184C402.655 203.601 402.505 203.999 402.251 204.331C401.998 204.663 401.653 204.913 401.259 205.05C400.865 205.187 400.439 205.205 400.035 205.102C399.63 204.999 399.265 204.78 398.984 204.471C398.703 204.162 398.52 203.778 398.456 203.365C398.392 202.953 398.45 202.531 398.624 202.152C398.798 201.772 399.08 201.452 399.434 201.232C399.788 201.011 400.199 200.899 400.617 200.911C401.19 200.945 401.726 201.202 402.112 201.627C402.499 202.052 402.704 202.611 402.684 203.184Z" fill="#010101"/>
<path d="M409.277 203.215C409.249 203.629 409.101 204.026 408.85 204.357C408.599 204.688 408.257 204.938 407.866 205.077C407.474 205.216 407.051 205.237 406.648 205.139C406.244 205.04 405.879 204.826 405.596 204.522C405.313 204.218 405.125 203.838 405.055 203.429C404.985 203.02 405.036 202.599 405.202 202.219C405.368 201.838 405.642 201.515 405.99 201.288C406.337 201.061 406.744 200.94 407.159 200.942C407.741 200.963 408.291 201.214 408.688 201.641C409.085 202.067 409.297 202.633 409.277 203.215Z" fill="#010101"/>
<path d="M415.861 203.246C415.881 203.538 415.842 203.83 415.744 204.105C415.647 204.381 415.493 204.633 415.294 204.847C415.095 205.06 414.854 205.231 414.586 205.347C414.318 205.464 414.029 205.524 413.737 205.524C413.445 205.524 413.156 205.464 412.888 205.347C412.62 205.231 412.379 205.06 412.18 204.847C411.981 204.633 411.828 204.381 411.73 204.105C411.633 203.83 411.593 203.538 411.613 203.246C411.593 202.955 411.633 202.662 411.73 202.387C411.828 202.112 411.981 201.86 412.18 201.646C412.379 201.432 412.62 201.262 412.888 201.146C413.156 201.029 413.445 200.969 413.737 200.969C414.029 200.969 414.318 201.029 414.586 201.146C414.854 201.262 415.095 201.432 415.294 201.646C415.493 201.86 415.647 202.112 415.744 202.387C415.842 202.662 415.881 202.955 415.861 203.246Z" fill="#010101"/>
<path d="M422.445 203.277C422.416 203.691 422.268 204.088 422.017 204.419C421.766 204.75 421.424 205 421.033 205.139C420.641 205.278 420.218 205.299 419.815 205.201C419.411 205.102 419.046 204.888 418.763 204.584C418.48 204.28 418.292 203.9 418.222 203.491C418.152 203.082 418.203 202.661 418.369 202.281C418.535 201.9 418.809 201.577 419.157 201.35C419.504 201.123 419.911 201.003 420.326 201.004C420.908 201.025 421.458 201.277 421.855 201.703C422.252 202.129 422.464 202.695 422.445 203.277Z" fill="black"/>
<path d="M429.028 203.308C429 203.725 428.849 204.123 428.596 204.455C428.343 204.787 427.998 205.037 427.604 205.174C427.209 205.311 426.784 205.329 426.379 205.226C425.975 205.123 425.609 204.904 425.329 204.595C425.048 204.286 424.864 203.902 424.8 203.489C424.736 203.077 424.795 202.655 424.969 202.276C425.143 201.896 425.424 201.576 425.779 201.356C426.133 201.135 426.544 201.023 426.961 201.035C427.534 201.069 428.071 201.326 428.457 201.751C428.843 202.176 429.048 202.735 429.028 203.308Z" fill="black"/>
<g opacity="0.2">
<path d="M376.339 203.071C376.309 203.486 376.157 203.884 375.902 204.214C375.648 204.544 375.302 204.793 374.908 204.928C374.514 205.064 374.088 205.081 373.685 204.977C373.281 204.873 372.917 204.652 372.637 204.343C372.357 204.034 372.174 203.65 372.111 203.238C372.048 202.826 372.107 202.404 372.281 202.026C372.455 201.647 372.737 201.328 373.091 201.107C373.444 200.887 373.855 200.775 374.272 200.786C374.848 200.819 375.388 201.076 375.775 201.504C376.162 201.932 376.364 202.494 376.339 203.071Z" fill="#FF0B0B"/>
<path d="M382.923 203.102C382.943 203.393 382.903 203.685 382.806 203.961C382.708 204.236 382.555 204.488 382.356 204.702C382.156 204.916 381.915 205.086 381.647 205.202C381.38 205.319 381.091 205.379 380.799 205.379C380.506 205.379 380.218 205.319 379.95 205.202C379.682 205.086 379.441 204.916 379.242 204.702C379.042 204.488 378.889 204.236 378.792 203.961C378.694 203.685 378.654 203.393 378.675 203.102C378.654 202.81 378.694 202.518 378.792 202.242C378.889 201.967 379.042 201.715 379.242 201.501C379.441 201.288 379.682 201.117 379.95 201.001C380.218 200.884 380.506 200.824 380.799 200.824C381.091 200.824 381.38 200.884 381.647 201.001C381.915 201.117 382.156 201.288 382.356 201.501C382.555 201.715 382.708 201.967 382.806 202.242C382.903 202.518 382.943 202.81 382.923 203.102Z" fill="#FF0B0B"/>
<path d="M389.517 203.133C389.486 203.548 389.334 203.946 389.08 204.276C388.825 204.606 388.48 204.855 388.085 204.99C387.691 205.126 387.266 205.143 386.862 205.039C386.459 204.935 386.094 204.715 385.815 204.405C385.535 204.096 385.352 203.712 385.289 203.3C385.225 202.888 385.285 202.466 385.459 202.088C385.633 201.709 385.914 201.39 386.268 201.169C386.622 200.949 387.033 200.837 387.449 200.848C388.024 200.883 388.563 201.142 388.949 201.569C389.335 201.996 389.539 202.557 389.517 203.133Z" fill="#FF0B0B"/>
<path d="M396.1 203.164C396.069 203.579 395.918 203.977 395.663 204.307C395.409 204.637 395.063 204.886 394.669 205.021C394.275 205.157 393.849 205.174 393.446 205.07C393.042 204.966 392.678 204.746 392.398 204.436C392.118 204.127 391.935 203.743 391.872 203.331C391.809 202.919 391.868 202.497 392.042 202.119C392.216 201.74 392.498 201.421 392.852 201.2C393.206 200.98 393.616 200.868 394.033 200.879C394.608 200.914 395.146 201.173 395.533 201.6C395.919 202.027 396.123 202.588 396.1 203.164Z" fill="#FF0B0B"/>
<path d="M402.684 203.184C402.655 203.601 402.505 203.999 402.251 204.331C401.998 204.663 401.653 204.913 401.259 205.05C400.865 205.187 400.439 205.205 400.035 205.102C399.63 204.999 399.265 204.78 398.984 204.471C398.703 204.162 398.52 203.778 398.456 203.365C398.392 202.953 398.45 202.531 398.624 202.152C398.798 201.772 399.08 201.452 399.434 201.232C399.788 201.011 400.199 200.899 400.617 200.911C401.19 200.945 401.726 201.202 402.112 201.627C402.499 202.052 402.704 202.611 402.684 203.184Z" fill="#FF0B0B"/>
<path d="M409.277 203.215C409.249 203.629 409.1 204.026 408.85 204.357C408.599 204.688 408.257 204.938 407.865 205.077C407.474 205.216 407.051 205.237 406.648 205.139C406.244 205.04 405.879 204.826 405.596 204.522C405.313 204.218 405.125 203.838 405.055 203.429C404.985 203.02 405.036 202.599 405.202 202.219C405.368 201.838 405.642 201.515 405.99 201.288C406.337 201.061 406.743 200.94 407.159 200.942C407.741 200.963 408.291 201.215 408.688 201.641C409.085 202.067 409.297 202.633 409.277 203.215Z" fill="#FF0B0B"/>
<path d="M415.861 203.246C415.881 203.538 415.842 203.83 415.744 204.105C415.647 204.381 415.493 204.633 415.294 204.847C415.095 205.06 414.854 205.231 414.586 205.347C414.318 205.464 414.029 205.524 413.737 205.524C413.445 205.524 413.156 205.464 412.888 205.347C412.62 205.231 412.379 205.06 412.18 204.847C411.981 204.633 411.828 204.381 411.73 204.105C411.633 203.83 411.593 203.538 411.613 203.246C411.593 202.955 411.633 202.662 411.73 202.387C411.828 202.112 411.981 201.86 412.18 201.646C412.379 201.432 412.62 201.262 412.888 201.146C413.156 201.029 413.445 200.969 413.737 200.969C414.029 200.969 414.318 201.029 414.586 201.146C414.854 201.262 415.095 201.432 415.294 201.646C415.493 201.86 415.647 202.112 415.744 202.387C415.842 202.662 415.881 202.955 415.861 203.246Z" fill="black"/>
<path d="M422.445 203.277C422.416 203.692 422.268 204.088 422.017 204.419C421.766 204.75 421.424 205 421.033 205.139C420.641 205.278 420.218 205.299 419.815 205.201C419.411 205.102 419.046 204.888 418.763 204.584C418.48 204.28 418.292 203.9 418.222 203.491C418.152 203.082 418.203 202.661 418.369 202.281C418.535 201.9 418.809 201.577 419.157 201.35C419.504 201.123 419.911 201.003 420.326 201.004C420.908 201.025 421.458 201.277 421.855 201.703C422.252 202.129 422.464 202.695 422.445 203.277Z" fill="#FF0B0B"/>
<path d="M426.94 201.535C427.379 201.563 427.79 201.761 428.087 202.087C428.381 202.412 428.54 202.837 428.529 203.274C428.507 203.593 428.393 203.897 428.199 204.151C428.005 204.405 427.741 204.597 427.439 204.702C427.138 204.807 426.812 204.82 426.503 204.741C426.193 204.662 425.913 204.495 425.699 204.259C425.484 204.022 425.344 203.728 425.295 203.412C425.252 203.136 425.281 202.855 425.378 202.595L425.423 202.484C425.557 202.193 425.772 201.949 426.043 201.781L426.044 201.78C426.313 201.612 426.624 201.527 426.94 201.535Z" fill="#FF0B0B" stroke="#FF0B0B"/>
</g>
<path d="M419.675 54.1084C420.393 53.7923 421.002 53.2719 421.426 52.6122C421.851 51.9525 422.072 51.1825 422.062 50.3981C422.089 49.8881 422.012 49.3781 421.835 48.899C421.658 48.4199 421.386 47.9818 421.034 47.6114C420.683 47.241 420.26 46.946 419.79 46.7445C419.321 46.5429 418.816 46.4389 418.305 46.4389C417.795 46.4389 417.289 46.5429 416.82 46.7445C416.351 46.946 415.928 47.241 415.576 47.6114C415.225 47.9818 414.952 48.4199 414.776 48.899C414.599 49.3781 414.522 49.8881 414.548 50.3981C414.533 51.1904 414.752 51.9696 415.179 52.6373C415.606 53.305 416.221 53.8313 416.946 54.1498C411.158 55.0179 411.417 61.3018 411.417 61.3018L425.101 61.3638C425.101 61.3638 425.421 54.9663 419.675 54.1084Z" fill="#656363"/>
<path opacity="0.1" d="M419.675 54.1084C420.393 53.7923 421.002 53.2719 421.426 52.6122C421.851 51.9525 422.072 51.1825 422.062 50.3981C422.089 49.8881 422.012 49.3781 421.835 48.899C421.658 48.4199 421.386 47.9818 421.034 47.6114C420.683 47.241 420.26 46.946 419.79 46.7445C419.321 46.5429 418.816 46.4389 418.305 46.4389C417.795 46.4389 417.289 46.5429 416.82 46.7445C416.351 46.946 415.928 47.241 415.576 47.6114C415.225 47.9818 414.952 48.4199 414.776 48.899C414.599 49.3781 414.522 49.8881 414.548 50.3981C414.533 51.1904 414.752 51.9696 415.179 52.6373C415.606 53.305 416.221 53.8313 416.946 54.1498C411.158 55.0179 411.417 61.3018 411.417 61.3018L425.101 61.3638C425.101 61.3638 425.421 54.9663 419.675 54.1084Z" fill="#CACACA"/>
<path d="M441.911 65.4167L393.139 65.1954L393.113 71.0244L441.884 71.2457L441.911 65.4167Z" fill="#010101"/>
<path opacity="0.2" d="M441.408 65.9142L441.386 70.7433L393.614 70.5265L393.636 65.6974L441.408 65.9142Z" fill="white" fill-opacity="0.37" stroke="#FF0101"/>
</g>
<defs>
<filter id="filter0_d_2_12" x="360.973" y="90.5128" width="34.6042" height="12.9989" filterUnits="userSpaceOnUse" color-interpolation-filters="sRGB">
<feFlood flood-opacity="0" result="BackgroundImageFix"/>
<feColorMatrix in="SourceAlpha" type="matrix" values="0 0 0 0 0 0 0 0 0 0 0 0 0 0 0 0 0 0 127 0" result="hardAlpha"/>
<feOffset dy="4"/>
<feGaussianBlur stdDeviation="2"/>
<feComposite in2="hardAlpha" operator="out"/>
<feColorMatrix type="matrix" values="0 0 0 0 1 0 0 0 0 0.0431373 0 0 0 0 0.0431373 0 0 0 1 0"/>
<feBlend mode="normal" in2="BackgroundImageFix" result="effect1_dropShadow_2_12"/>
<feBlend mode="normal" in="SourceGraphic" in2="effect1_dropShadow_2_12" result="shape"/>
</filter>
<filter id="filter1_d_2_12" x="368.98" y="108.203" width="56.6171" height="12.558" filterUnits="userSpaceOnUse" color-interpolation-filters="sRGB">
<feFlood flood-opacity="0" result="BackgroundImageFix"/>
<feColorMatrix in="SourceAlpha" type="matrix" values="0 0 0 0 0 0 0 0 0 0 0 0 0 0 0 0 0 0 127 0" result="hardAlpha"/>
<feOffset dy="4"/>
<feGaussianBlur stdDeviation="2"/>
<feComposite in2="hardAlpha" operator="out"/>
<feColorMatrix type="matrix" values="0 0 0 0 1 0 0 0 0 0.0431373 0 0 0 0 0.0431373 0 0 0 1 0"/>
<feBlend mode="normal" in2="BackgroundImageFix" result="effect1_dropShadow_2_12"/>
<feBlend mode="normal" in="SourceGraphic" in2="effect1_dropShadow_2_12" result="shape"/>
</filter>
<filter id="filter2_d_2_12" x="360.792" y="135.015" width="34.6041" height="12.999" filterUnits="userSpaceOnUse" color-interpolation-filters="sRGB">
<feFlood flood-opacity="0" result="BackgroundImageFix"/>
<feColorMatrix in="SourceAlpha" type="matrix" values="0 0 0 0 0 0 0 0 0 0 0 0 0 0 0 0 0 0 127 0" result="hardAlpha"/>
<feOffset dy="4"/>
<feGaussianBlur stdDeviation="2"/>
<feComposite in2="hardAlpha" operator="out"/>
<feColorMatrix type="matrix" values="0 0 0 0 1 0 0 0 0 0.0431373 0 0 0 0 0.0431373 0 0 0 1 0"/>
<feBlend mode="normal" in2="BackgroundImageFix" result="effect1_dropShadow_2_12"/>
<feBlend mode="normal" in="SourceGraphic" in2="effect1_dropShadow_2_12" result="shape"/>
</filter>
<filter id="filter3_d_2_12" x="360.592" y="181.45" width="34.6042" height="12.999" filterUnits="userSpaceOnUse" color-interpolation-filters="sRGB">
<feFlood flood-opacity="0" result="BackgroundImageFix"/>
<feColorMatrix in="SourceAlpha" type="matrix" values="0 0 0 0 0 0 0 0 0 0 0 0 0 0 0 0 0 0 127 0" result="hardAlpha"/>
<feOffset dy="4"/>
<feGaussianBlur stdDeviation="2"/>
<feComposite in2="hardAlpha" operator="out"/>
<feColorMatrix type="matrix" values="0 0 0 0 1 0 0 0 0 0.0431373 0 0 0 0 0.0431373 0 0 0 1 0"/>
<feBlend mode="normal" in2="BackgroundImageFix" result="effect1_dropShadow_2_12"/>
<feBlend mode="normal" in="SourceGraphic" in2="effect1_dropShadow_2_12" result="shape"/>
</filter>
<filter id="filter4_d_2_12" x="367.922" y="153.775" width="56.6373" height="12.778" filterUnits="userSpaceOnUse" color-interpolation-filters="sRGB">
<feFlood flood-opacity="0" result="BackgroundImageFix"/>
<feColorMatrix in="SourceAlpha" type="matrix" values="0 0 0 0 0 0 0 0 0 0 0 0 0 0 0 0 0 0 127 0" result="hardAlpha"/>
<feOffset dy="4"/>
<feGaussianBlur stdDeviation="2"/>
<feComposite in2="hardAlpha" operator="out"/>
<feColorMatrix type="matrix" values="0 0 0 0 1 0 0 0 0 0.0431373 0 0 0 0 0.0431373 0 0 0 1 0"/>
<feBlend mode="normal" in2="BackgroundImageFix" result="effect1_dropShadow_2_12"/>
<feBlend mode="normal" in="SourceGraphic" in2="effect1_dropShadow_2_12" result="shape"/>
</filter>
<clipPath id="clip0_2_12">
<rect width="504" height="331" fill="white"/>
</clipPath>
<clipPath id="clip1_2_12">
<rect width="347.873" height="347.873" fill="white" transform="translate(19 -4)"/>
</clipPath>
</defs>
</svg>
