<svg width="291" height="193" viewBox="0 0 291 193" fill="none" xmlns="http://www.w3.org/2000/svg">
<g clip-path="url(#clip0_2_12)">
<path d="M127.798 154.087H62.3312C60.1578 154.087 58.3906 155.991 58.3906 158.331C58.3906 160.672 60.1578 162.575 62.3312 162.575H127.798C129.972 162.575 131.739 160.672 131.739 158.331C131.739 155.969 129.972 154.087 127.798 154.087Z" fill="#FF0B0B"/>
<path d="M192.433 147.744V156.275H203.625C201.98 151.309 197.592 147.744 192.433 147.744Z" fill="#E6E6E6"/>
<path d="M172.669 126.853V30.45C172.669 26.9281 170.008 24.0844 166.758 24.0844H23.3719C20.1016 24.0844 17.4609 26.95 17.4609 30.45V126.853C17.4609 130.375 20.1219 133.219 23.3719 133.219H166.758C170.028 133.241 172.669 130.375 172.669 126.853ZM163.752 117.666C163.752 121.166 161.091 124.031 157.841 124.031H32.3094C29.0594 124.031 26.3984 121.166 26.3984 117.666V39.6594C26.3984 36.1594 29.0594 33.2938 32.3094 33.2938H157.841C161.091 33.2938 163.752 36.1594 163.752 39.6594V117.666Z" fill="white"/>
<path d="M157.841 33.2938H32.3094C29.0594 33.2938 26.3984 36.1594 26.3984 39.6594V117.666C26.3984 121.166 29.0594 124.031 32.3094 124.031H157.841C161.091 124.031 163.752 121.166 163.752 117.666V39.6594C163.752 36.1594 161.091 33.2938 157.841 33.2938ZM51.5453 40.3375C51.5453 39.9875 51.8094 39.725 52.1141 39.725H64.5656C64.8906 39.725 65.1344 40.0094 65.1344 40.3375V44.1656C65.1344 44.5156 64.8703 44.7781 64.5656 44.7781H52.1141C51.7891 44.7781 51.5453 44.4938 51.5453 44.1656V40.3375ZM45.3906 39.5719C46.7313 39.5719 47.8078 40.7313 47.8078 42.175C47.8078 43.6188 46.7313 44.7781 45.3906 44.7781C44.05 44.7781 42.9734 43.6188 42.9734 42.175C42.9734 40.7313 44.0703 39.5719 45.3906 39.5719ZM37.4688 39.5719C38.8094 39.5719 39.8859 40.7313 39.8859 42.175C39.8859 43.6188 38.8094 44.7781 37.4688 44.7781C36.1281 44.7781 35.0516 43.6188 35.0516 42.175C35.0516 40.7313 36.1281 39.5719 37.4688 39.5719ZM85.6703 79.3188C85.6703 94.15 74.4578 106.225 60.6859 106.225C46.9141 106.225 35.7016 94.15 35.7016 79.3188C35.7016 64.4875 46.9141 52.4125 60.6859 52.4125H62.6563V77.1969H85.6703V79.3188ZM67.3688 70.8531V50.1375C77.9922 50.1375 86.6047 59.4125 86.6047 70.8531H67.3688ZM143.256 103.425H114.677C113.58 103.425 112.706 102.484 112.706 101.303C112.706 100.122 113.58 99.1813 114.677 99.1813H143.256C144.353 99.1813 145.227 100.122 145.227 101.303C145.227 102.463 144.353 103.425 143.256 103.425ZM143.256 87.3906H113.681C112.584 87.3906 111.711 86.45 111.711 85.2688C111.711 84.0875 112.584 83.1469 113.681 83.1469H143.256C144.353 83.1469 145.227 84.0875 145.227 85.2688C145.227 86.45 144.353 87.3906 143.256 87.3906ZM143.256 71.3344H100.681C99.5844 71.3344 98.7109 70.3938 98.7109 69.2125C98.7109 68.0313 99.5844 67.0906 100.681 67.0906H143.277C144.373 67.0906 145.247 68.0313 145.247 69.2125C145.247 70.3938 144.353 71.3344 143.256 71.3344ZM143.256 55.3H100.681C99.5844 55.3 98.7109 54.3594 98.7109 53.1781C98.7109 51.9969 99.5844 51.0563 100.681 51.0563H143.277C144.373 51.0563 145.247 51.9969 145.247 53.1781C145.247 54.3594 144.353 55.3 143.256 55.3Z" fill="#E6E6E6"/>
<path d="M58.7156 56.7656C48.0312 57.8375 39.6422 67.55 39.6422 79.3188C39.6422 91.8094 49.0875 101.981 60.6859 101.981C71.6141 101.981 80.6328 92.9469 81.6281 81.4406H58.7156V56.7656Z" fill="white"/>
<path d="M62.6563 52.4125H60.6859C46.9141 52.4125 35.7016 64.4875 35.7016 79.3188C35.7016 94.15 46.9141 106.225 60.6859 106.225C74.4578 106.225 85.6703 94.15 85.6703 79.3188V77.1969H62.6563V52.4125ZM81.6281 81.4625C80.6328 92.9688 71.6141 102.003 60.6859 102.003C49.0875 102.003 39.6422 91.8313 39.6422 79.3406C39.6422 67.5719 48.0313 57.8594 58.7156 56.7875V81.4625H81.6281Z" fill="#005BFF"/>
<path d="M67.3687 50.1375V70.8531H86.6047C86.6047 59.4125 77.9922 50.1375 67.3687 50.1375Z" fill="#005BFF"/>
<path d="M35.0516 42.175C35.0516 42.8654 35.3062 43.5275 35.7596 44.0157C36.2129 44.5039 36.8277 44.7781 37.4688 44.7781C38.1098 44.7781 38.7247 44.5039 39.178 44.0157C39.6313 43.5275 39.8859 42.8654 39.8859 42.175C39.8859 41.4846 39.6313 40.8225 39.178 40.3343C38.7247 39.8461 38.1098 39.5719 37.4688 39.5719C36.8277 39.5719 36.2129 39.8461 35.7596 40.3343C35.3062 40.8225 35.0516 41.4846 35.0516 42.175Z" fill="white"/>
<path d="M42.9734 42.175C42.9734 42.8654 43.2281 43.5275 43.6814 44.0157C44.1347 44.5039 44.7496 44.7781 45.3906 44.7781C46.0317 44.7781 46.6465 44.5039 47.0998 44.0157C47.5532 43.5275 47.8078 42.8654 47.8078 42.175C47.8078 41.4846 47.5532 40.8225 47.0998 40.3343C46.6465 39.8461 46.0317 39.5719 45.3906 39.5719C44.7496 39.5719 44.1347 39.8461 43.6814 40.3343C43.2281 40.8225 42.9734 41.4846 42.9734 42.175Z" fill="white"/>
<path d="M52.1141 44.7781H64.5656C64.8906 44.7781 65.1344 44.4938 65.1344 44.1656V40.3375C65.1344 39.9875 64.8703 39.725 64.5656 39.725H52.1141C51.7891 39.725 51.5453 40.0094 51.5453 40.3375V44.1656C51.5453 44.5156 51.8094 44.7781 52.1141 44.7781Z" fill="white"/>
<path d="M192.433 139.234C182.886 139.234 174.903 146.562 173.075 156.253H149.573C147.197 156.253 145.47 155.75 144.861 154.875C144.455 154.284 144.455 153.344 144.455 152.906V141.728H166.778C174.395 141.728 180.57 135.056 180.57 126.875V30.45C180.57 22.2469 174.375 15.5969 166.778 15.5969H23.3719C15.7547 15.5969 9.57968 22.2687 9.57968 30.45V126.853C9.57968 135.056 15.775 141.706 23.3719 141.706H136.553V152.906C136.553 153.956 136.553 157.128 138.564 159.994C140.778 163.144 144.475 164.741 149.573 164.741H212.177V160.497C212.177 148.772 203.32 139.234 192.433 139.234ZM23.3719 133.241C20.1016 133.241 17.4609 130.375 17.4609 126.875V30.45C17.4609 26.9281 20.1219 24.0844 23.3719 24.0844H166.758C170.028 24.0844 172.669 26.95 172.669 30.45V126.853C172.669 130.375 170.008 133.219 166.758 133.219H23.3719V133.241ZM192.433 156.253H181.241C182.866 151.287 187.273 147.722 192.433 147.722C197.592 147.722 202 151.287 203.625 156.253H192.433Z" fill="#FF0B0B"/>
<path d="M143.256 51.0562H100.681C99.5844 51.0562 98.7109 51.9969 98.7109 53.1781C98.7109 54.3594 99.5844 55.3 100.681 55.3H143.277C144.373 55.3 145.247 54.3594 145.247 53.1781C145.247 51.9969 144.353 51.0562 143.256 51.0562Z" fill="#005BFF"/>
<path d="M143.256 67.0906H100.681C99.5844 67.0906 98.7109 68.0313 98.7109 69.2125C98.7109 70.3938 99.5844 71.3344 100.681 71.3344H143.277C144.373 71.3344 145.247 70.3938 145.247 69.2125C145.247 68.0313 144.353 67.0906 143.256 67.0906ZM143.256 83.1469H113.681C112.584 83.1469 111.711 84.0875 111.711 85.2688C111.711 86.45 112.584 87.3906 113.681 87.3906H143.256C144.353 87.3906 145.227 86.45 145.227 85.2688C145.227 84.0875 144.353 83.1469 143.256 83.1469Z" fill="#06F3FF"/>
<path d="M143.256 99.1813H114.677C113.58 99.1813 112.706 100.122 112.706 101.303C112.706 102.484 113.58 103.425 114.677 103.425H143.256C144.353 103.425 145.227 102.484 145.227 101.303C145.227 100.122 144.353 99.1813 143.256 99.1813Z" fill="#005BFF"/>
<path d="M286.038 140.958C285.963 140.594 285.863 140.208 285.763 139.844C285.688 139.594 285.613 139.344 285.513 139.094C284.838 137.39 283.737 135.844 282.237 134.572L237.218 96.712L236.343 95.9848C239.419 89.94 240.545 83.077 239.469 76.4641C238.269 69.0103 234.517 62.2837 228.615 56.966C217.835 47.2852 201.804 44.3537 187.748 49.5123L184.221 50.8076L209.507 73.5326C210.757 74.6461 211.433 76.1459 211.458 77.7367C211.458 79.3274 210.782 80.8273 209.557 81.9408L202.554 88.372C201.328 89.5082 199.678 90.1218 197.927 90.1445H197.902C196.176 90.1445 194.526 89.5309 193.3 88.4174L167.99 65.6924L166.614 68.9194C161.087 81.7363 164.488 96.2803 175.268 105.961C181.17 111.279 188.623 114.597 196.827 115.619C204.13 116.505 211.658 115.437 218.285 112.574L261.228 153.888C263.579 156.138 266.755 157.41 270.157 157.433H270.307C273.658 157.433 276.81 156.251 279.186 154.07L282.637 150.911C285.038 148.707 286.314 145.775 286.239 142.685C286.213 142.094 286.163 141.503 286.038 140.958ZM270.207 152.888C268.156 152.865 266.255 152.116 264.855 150.752L219.311 106.938L217.61 107.779C204.98 114.006 188.998 111.938 178.769 102.734C170.366 95.1667 167.139 84.1906 170.066 73.9416L189.774 91.6671C191.95 93.6214 194.826 94.7122 197.902 94.7122H197.952C201.028 94.6895 203.93 93.5987 206.105 91.5989L213.108 85.1677C217.585 81.0545 217.56 74.3961 213.033 70.3283L193.325 52.6029C204.555 49.8304 216.685 52.6483 225.088 60.2157C235.318 69.4193 237.769 83.8951 231.041 95.4622L230.14 97.0075L232.892 99.3254L233.792 100.098L278.81 137.958C280.311 139.23 281.161 140.935 281.211 142.798C281.261 144.662 280.486 146.412 279.036 147.73L275.609 150.866C274.184 152.184 272.258 152.888 270.207 152.888Z" fill="#FF0B0B"/>
</g>
<defs>
<clipPath id="clip0_2_12">
<rect width="291" height="193" fill="white"/>
</clipPath>
</defs>
</svg>
