<?xml version="1.0" standalone="no"?>
<!DOCTYPE svg PUBLIC "-//W3C//DTD SVG 20010904//EN"
 "http://www.w3.org/TR/2001/REC-SVG-20010904/DTD/svg10.dtd">
<svg version="1.0" xmlns="http://www.w3.org/2000/svg"
 width="1536.000000pt" height="1024.000000pt" viewBox="0 0 1536.000000 1024.000000"
 preserveAspectRatio="xMidYMid meet">

<g transform="translate(0.000000,1024.000000) scale(0.100000,-0.100000)"
fill="#000000" stroke="none">
<path d="M2989 8779 c-130 -11 -226 -80 -269 -196 -20 -53 -20 -74 -20 -3151
0 -2928 1 -3100 17 -3146 23 -65 100 -148 166 -180 l52 -26 4647 0 4648 -1 60
27 c72 32 130 91 156 160 19 48 19 124 19 3169 l0 3120 -28 55 c-38 75 -78
113 -151 147 l-61 28 -4580 0 c-2519 0 -4614 -3 -4656 -6z m9287 -66 c53 -28
99 -76 127 -132 22 -46 22 -50 22 -491 l0 -445 -4842 -3 -4843 -2 0 435 c0
411 1 437 20 488 30 80 97 142 180 168 14 4 2111 7 4660 6 l4635 -2 41 -22z
m152 -3745 l-3 -2643 -21 -45 c-25 -54 -72 -103 -128 -133 l-41 -22 -4625 -3
c-4259 -2 -4629 -1 -4677 14 -67 21 -126 72 -161 138 l-27 51 -3 2643 -2 2642
4845 0 4845 0 -2 -2642z"/>
<path d="M3392 8388 c-54 -12 -116 -71 -133 -126 -15 -51 -5 -121 24 -164 85
-125 276 -110 338 27 26 55 24 102 -7 163 -41 84 -127 122 -222 100z m100 -28
c21 -6 51 -27 71 -50 129 -142 -46 -341 -211 -240 -36 22 -71 88 -72 132 0 70
50 138 118 158 38 11 52 11 94 0z"/>
<path d="M3996 8388 c-84 -23 -145 -122 -131 -214 28 -192 301 -220 371 -39
56 148 -84 296 -240 253z m119 -37 c95 -44 129 -134 85 -221 -50 -99 -181
-119 -260 -40 -102 102 -31 274 115 279 11 0 38 -8 60 -18z"/>
<path d="M4606 8386 c-57 -21 -87 -47 -113 -96 -56 -106 3 -239 119 -271 168
-45 309 139 219 285 -45 71 -149 109 -225 82z m149 -46 c17 -10 41 -38 54 -61
19 -34 22 -50 18 -90 -10 -85 -61 -136 -146 -146 -115 -13 -205 96 -171 210
30 101 152 144 245 87z"/>
<path d="M5218 7015 c-64 -251 -202 -733 -213 -743 -5 -5 -5 -5 -330 294 -222
205 -295 269 -295 262 0 -1 52 -183 114 -403 63 -220 113 -402 111 -404 -5 -4
-704 162 -760 180 l-29 9 29 -32 c17 -18 151 -156 300 -307 251 -255 268 -275
245 -282 -14 -4 -185 -50 -380 -103 -195 -54 -362 -100 -370 -103 -21 -7 2
-14 412 -129 197 -54 357 -102 355 -106 -1 -3 -115 -125 -253 -270 -267 -278
-314 -331 -292 -323 37 13 753 205 765 205 9 0 12 -7 9 -17 -6 -21 -132 -679
-141 -740 -4 -24 -5 -43 -2 -43 3 0 124 125 269 278 144 152 267 279 271 282
11 6 125 -270 301 -730 l14 -35 11 55 c6 30 20 107 31 170 48 275 93 490 101
490 5 0 9 -7 9 -17 0 -9 3 -13 6 -10 4 4 2 19 -4 34 -6 15 -16 48 -22 72 -6
23 -13 41 -16 39 -2 -3 -28 -137 -58 -299 -30 -162 -58 -310 -64 -329 l-9 -35
-18 40 c-9 22 -70 172 -136 334 -65 161 -120 296 -123 299 -3 3 -63 -55 -133
-129 -70 -74 -179 -189 -243 -255 -63 -67 -118 -122 -121 -123 -8 -1 27 202
86 498 25 124 43 226 41 229 -2 2 -127 -30 -277 -72 -367 -100 -423 -115 -426
-112 -3 3 210 230 374 398 73 75 130 139 125 141 -6 4 -563 162 -661 187 -23
6 -41 14 -38 17 3 2 83 26 179 53 456 126 513 142 518 146 2 3 -79 89 -181
192 -276 280 -343 351 -338 356 2 2 141 -29 309 -69 331 -81 390 -92 390 -78
0 5 -30 115 -66 244 -120 424 -131 469 -121 469 5 0 81 -66 170 -147 88 -82
208 -192 266 -245 58 -54 110 -96 116 -94 10 3 19 34 121 401 79 285 95 338
104 328 4 -4 35 -107 69 -228 98 -348 144 -510 147 -514 3 -4 191 156 369 315
178 159 209 183 202 158 -11 -37 -167 -560 -186 -621 -14 -45 -16 -63 -7 -63
6 0 110 23 231 50 121 28 281 64 355 81 74 16 141 32 148 34 6 2 12 0 12 -5 0
-4 -119 -131 -265 -282 -146 -150 -265 -275 -265 -278 0 -3 21 -11 48 -18 150
-38 662 -186 662 -191 0 -8 -25 -16 -325 -106 -137 -42 -266 -82 -285 -89
l-34 -14 40 -6 c33 -6 66 1 165 32 68 22 228 70 354 107 212 63 274 85 233 85
-8 0 -60 13 -114 29 -54 17 -223 64 -374 106 -151 42 -279 80 -284 85 -4 4
116 136 269 293 152 156 282 293 290 304 14 19 13 19 -53 7 -37 -7 -122 -27
-189 -43 -67 -17 -215 -51 -330 -76 -114 -25 -216 -47 -226 -49 -13 -3 -16 0
-13 12 6 21 62 205 111 367 20 66 56 182 81 257 24 75 44 140 44 143 0 10 -62
-41 -161 -132 -47 -43 -141 -127 -209 -188 -68 -60 -155 -138 -194 -173 -38
-34 -73 -59 -77 -55 -3 5 -50 163 -104 353 -53 190 -107 379 -119 420 l-22 75
-26 -100z"/>
<path d="M4916 5774 c-14 -13 -16 -58 -16 -339 0 -318 0 -324 21 -339 18 -12
54 -14 213 -9 105 2 193 6 195 9 2 2 -10 52 -27 112 -38 127 -39 152 -9 179
l22 20 140 -43 c77 -24 147 -43 155 -43 22 -1 26 413 4 447 l-14 22 -335 0
c-290 0 -336 -2 -349 -16z"/>
<path d="M7452 5778 c-15 -4 -41 -21 -57 -38 l-30 -31 0 -304 0 -303 25 -27
c48 -52 67 -55 357 -55 244 0 272 2 311 20 33 15 47 29 62 62 18 39 20 67 20
308 0 297 -4 316 -70 354 -32 19 -53 20 -312 21 -153 0 -290 -3 -306 -7z m606
-38 c18 -11 37 -32 42 -46 6 -14 10 -140 10 -285 0 -287 -5 -315 -59 -343 -44
-23 -557 -24 -601 -1 -60 31 -60 33 -60 341 0 272 1 282 21 308 12 15 31 32
43 36 11 5 145 9 296 9 258 1 277 0 308 -19z"/>
<path d="M9923 5779 c-34 -10 -80 -57 -89 -93 -3 -12 -4 -146 -2 -297 4 -391
-17 -372 415 -367 394 4 373 -18 373 383 0 303 -4 321 -70 360 -33 19 -53 20
-315 21 -154 1 -294 -2 -312 -7z m602 -33 c62 -26 65 -44 65 -341 0 -292 -3
-311 -60 -340 -43 -22 -567 -22 -610 0 -57 29 -60 47 -60 345 0 173 4 279 11
291 5 11 25 29 42 39 30 18 52 20 305 20 213 0 280 -3 307 -14z"/>
<path d="M5404 5252 c3 -9 26 -93 51 -187 26 -93 73 -262 105 -375 152 -533
166 -584 466 -1680 58 -211 111 -398 118 -413 12 -32 -29 -90 480 665 l139
207 67 -62 c36 -34 192 -182 345 -329 154 -148 287 -268 297 -268 18 0 81 51
291 238 70 62 127 120 127 129 0 15 -114 127 -465 457 -241 227 -259 246 -249
255 11 10 238 176 529 386 302 217 304 219 305 226 0 3 -24 11 -52 18 -29 8
-163 46 -298 87 -135 40 -393 116 -575 169 -181 53 -427 126 -545 161 -118 35
-411 120 -650 190 -239 69 -448 130 -463 135 -24 7 -27 5 -23 -9z"/>
</g>
</svg>
