<svg width="1366" height="1366" viewBox="0 0 1366 1366" fill="none" xmlns="http://www.w3.org/2000/svg">
<path d="M179.721 197.142C179.888 196.649 180.081 196.2 180.297 195.792L180.509 196.234C180.246 196.352 179.983 196.65 179.721 197.142Z" fill="black"/>
<path d="M295.596 244.145C278.676 264.902 284.768 274.625 282.334 278.418L288.956 296.106C292.483 302.166 295.532 308.667 298.032 315.543C315.349 362.399 315.26 459.907 269.072 462.803C224.257 469.219 248.557 464.476 230.659 462.803C227.206 464.438 239.766 501.371 235.689 502.537L164 531.5H399.249C402.436 525.863 655.244 543.476 675 500.004C676.829 490.221 684.119 471.556 680.827 462.803C677.412 453.664 668.754 441.049 662.169 435.256L656.803 430.622L662.29 424.701C679.241 405.907 678.875 373.726 661.437 353.774L657.9 349.655L663.632 345.279C682.046 331.248 689.973 306.919 683.509 284.264C679.851 271.906 673.022 260.321 663.144 249.766C653.876 239.854 646.193 234.963 634.974 231.616C624.121 228.398 562.293 227.497 547.781 230.328C536.196 232.645 525.343 237.794 517.904 244.488L512.904 248.993L508.758 244.488C492.417 226.467 458.15 223.12 436.809 237.408C423.151 246.419 413.273 262.638 406.444 286.581C403.883 295.591 402.786 298.037 402.176 296.106C389.737 260.064 380.347 245.26 364.25 235.992C346.202 225.566 303.886 235.992 295.596 244.145ZM354.738 251.053C367.421 258.004 373.396 269.589 379.493 299.324C380.957 306.018 385.347 328.03 389.371 348.239C395.347 378.618 397.054 385.311 399.249 387.114C402.298 389.817 402.907 389.946 405.712 387.757C407.297 386.599 409.371 377.459 414.37 350.814C427.907 276.926 430.102 268.688 438.15 259.034C444.735 251.182 453.028 247.577 466.198 246.805C477.905 246.29 487.417 249.122 494.49 255.301C499.002 259.42 504.002 269.975 504.002 275.897C504.002 280.531 504.612 278.728 467.54 394.322C453.394 438.474 440.589 476.963 439.248 479.923C432.785 493.31 423.029 501.291 409.858 503.866C401.566 505.41 390.103 503.866 383.03 500.004C376.689 496.529 369.494 488.548 366.201 481.21C364.738 477.992 351.445 436.93 336.69 390.203C320.471 338.714 307.544 299.839 303.886 291.73C300.593 284.392 297.91 276.54 297.91 274.352C298.032 264.311 307.788 252.083 318.641 248.479C322.3 247.191 328.153 246.676 335.836 246.934C346.202 247.191 348.519 247.706 354.738 251.053ZM622.292 247.835C637.901 250.538 646.925 256.459 652.169 267.658C660.217 285.036 655.461 303.572 640.95 311.038C635.462 313.87 633.389 314.127 609.243 314.771C585.219 315.415 583.146 315.543 580.829 318.118C577.659 321.336 576.195 332.535 578.268 337.555C580.829 344.249 583.268 344.892 607.658 345.665C625.34 346.18 631.072 346.823 633.999 348.497C646.681 355.705 651.193 373.726 644.12 388.272C638.877 399.342 630.096 402.303 603.39 402.303C585.341 402.303 583.512 402.56 581.073 404.877C577.659 408.353 576.683 412.601 577.537 420.582C578.39 427.919 580.585 432.167 585.341 435.385C588.146 437.316 592.414 437.831 610.707 438.346C631.682 438.989 633.023 439.118 639.608 442.593C662.534 454.436 661.437 487.775 637.779 500.133C628.145 505.024 616.804 506.44 585.098 506.569C546.928 506.569 533.757 503.351 522.904 490.993C516.807 484.171 513.636 477.349 511.441 466.922C510.587 462.288 510.1 433.969 510.1 377.459C510.1 308.206 510.343 293.532 511.929 287.353C516.563 268.559 527.538 255.043 542.05 250.281C551.44 247.191 607.902 245.518 622.292 247.835Z" fill="black"/>
<path d="M130.332 362.23L108.638 344.37C110.818 320.348 106.937 249.941 102.039 228.034L101.26 226.41C88.2959 217.541 35.4931 224.426 72.9682 224.346C66.6269 222.93 54.5235 221.257 49.6456 222.415C42.3287 223.96 36.7191 217.524 29.5242 222.415C20.7439 228.594 29.7986 215.882 25.4084 223.863C23.9451 226.567 56.9624 221.45 57.8771 224.346C57.4198 219.036 8.94548 221.932 0.713998 222.415C-0.139637 220.227 0.0101317 215.657 0.0100659 222.415V374.749L0.0100938 449.537C1.59542 477.341 -1.0088 496.521 7.52755 511.71C13.4573 522.417 17.3776 531.179 39.7855 533.593L196.641 530.696L203.958 505.113C206.082 502.699 248.3 474.321 242.829 460.703L211.732 414.845C210.025 414.073 182.525 410.887 172.404 410.501L165.493 395.054L140.85 383.952L130.332 362.23ZM91.8368 436.922C95.0075 443.744 98.7879 444.645 125.86 444.645C150.738 444.774 157.567 445.933 165.493 451.597C171.347 455.716 176.103 463.697 177.81 471.935C181.59 491.372 170.127 507.591 149.64 511.71C139.762 513.641 66.3497 513.77 57.4475 511.839C42.204 508.364 30.2532 498.838 24.3997 485.451C20.1315 475.539 19.034 464.984 19.034 433.704V238.044H70.8618C79.825 234.891 85.0078 226.073 70.8618 238.044H88.7882V388.393C89.5198 426.624 90.0076 432.803 91.8368 436.922Z" fill="black"/>
<path d="M822.954 166.008C822.787 165.771 822.577 165.752 820.221 163.896C818.348 162.42 809.815 155.189 799.81 152.386C788.587 150.025 780.678 147.959 773.186 153.714L569.898 157.884L562.066 163.601C561.859 163.945 561.629 164.321 561.385 164.709C558.056 169.903 558 170.415 558 201.895C558 233.415 558.056 233.809 561.385 238.216C562.329 239.475 563.994 241.246 564.993 242.112L566.88 243.646L826.061 242.466C826.061 242.348 826.672 241.285 827.449 240.105C828.614 238.373 828.836 237.429 828.836 234.478C828.836 228.811 826.727 225.584 816.238 215.235L813.463 212.481L816.016 211.064C824.729 206.145 830.39 194.812 829.558 183.715C829.114 178.009 826.894 171.949 822.954 166.008ZM623.933 161.01C628.207 162.191 630.427 163.528 632.203 166.086C635.921 171.477 632.869 177.065 624.877 179.662C622.379 180.449 620.992 180.567 610.835 180.764C597.793 181 597.848 180.961 597.127 184.896C596.683 187.493 597.515 189.618 599.236 190.326C600.013 190.602 603.731 190.877 609.059 190.995C618.938 191.231 620.992 191.703 623.711 194.458C624.988 195.717 625.376 196.583 625.598 198.787C625.931 202.092 625.154 203.941 622.546 205.988C619.715 208.191 617.218 208.703 608.504 208.86C604.397 208.939 600.568 209.136 600.013 209.293C597.959 209.923 597.682 211.025 597.404 221.098C597.127 229.952 597.016 231.093 595.962 232.707C593.409 236.602 587.248 238.964 580.644 238.452C574.761 238.019 570.765 236.17 568.101 232.549L566.602 230.542V200.833V171.123L567.879 168.919C570.043 165.102 574.261 162.309 579.922 160.971C582.42 160.38 596.183 159.987 609.337 160.105C619.493 160.184 621.38 160.341 623.933 161.01ZM691.143 159.515C699.523 160.498 707.46 163.214 713.342 167.188C724.72 174.861 729.992 184.699 730.048 198.472C730.103 212.795 724.165 223.892 712.399 231.526C703.242 237.508 692.641 240.144 680.098 239.672C668.555 239.2 659.231 236.327 651.183 230.739C641.582 224.05 636.42 214.881 635.366 202.604C634.201 188.831 640.083 176.16 651.239 168.211C657.621 163.725 665.391 160.735 674.049 159.554C677.545 159.082 686.98 159.042 691.143 159.515ZM784.715 159.554C798.16 161.098 807.913 166.716 812.02 175.57C813.297 178.403 813.63 187.336 812.575 191.271C810.91 197.488 806.526 201.935 799.81 204.296C798.367 204.807 797.202 205.476 797.202 205.83C797.202 206.145 799.255 208.467 801.808 210.985C815.128 224.246 816.238 225.624 816.294 229.362C816.349 235.186 809.523 239.003 799.921 238.531C795.093 238.255 790.93 236.878 787.656 234.36C785.214 232.51 779.997 226.332 773.448 217.439C770.174 212.953 769.785 212.599 768.398 212.717L766.955 212.835L766.677 221.885C766.4 230.857 766.4 230.936 764.79 233.218C762.237 236.957 756.909 238.885 750.305 238.491C744.311 238.177 739.927 235.815 738.151 231.998C737.318 230.267 737.263 227.001 737.374 200.006L737.54 169.943L739.15 167.503C741.647 163.646 746.476 160.892 752.636 159.869C758.796 158.846 776.834 158.649 784.715 159.554Z" fill="#E83232"/>
<path d="M1308.28 229.162C1305.36 227.231 1293.41 210.176 1258.77 210.176L1042.8 217.899H771.015L747.236 224.657C722.084 224.657 697.569 264.69 691.228 287.989C689.399 294.554 688.911 300.475 688.911 315.664C689.033 333.428 689.277 335.745 692.447 345.271C696.716 358.272 702.569 368.441 711.715 378.739L718.91 386.848L711.593 391.096C702.447 396.116 694.033 405.513 689.887 414.91C686.106 423.663 684.887 439.496 686.96 450.438C692.326 477.341 718.666 501.67 757.202 515.314C803.298 531.533 852.199 522.909 882.198 493.045L886.467 488.797L892.076 496.907C912.441 526.513 957.44 529.474 980.366 502.699C986.952 495.105 992.073 482.619 992.927 472.578C993.415 465.498 993.781 464.34 995.488 465.112C996.585 465.756 1001.1 466.399 1005.49 466.657L1013.66 467.172L1015 474.38C1017.93 490.342 1029.51 507.205 1042.8 514.799C1065.73 528.058 1094.14 522.78 1111.09 502.442C1117.31 494.976 1121.09 486.995 1123.66 475.925L1125.61 467.558L1135.36 467.172L1145.12 466.786L1147.19 473.737C1151.83 489.312 1164.51 504.373 1179.87 512.482C1195.24 520.592 1202.31 521.622 1244.99 521.622C1279.87 521.622 1283.65 521.364 1293.41 518.661C1306.09 515.314 1315.48 510.552 1318.28 506.175C1321.82 506.175 1321.82 502.442 1329.01 496.489L1333.53 490.213L1337.67 478.145C1340.72 471.581 1337.55 468.266 1339.99 464.629C1340.23 474.412 1335.97 451.081 1335.23 447.863C1333.77 441.556 1328.65 433.704 1318.28 422.247L1308.16 410.92L1312.19 405.127C1316.94 398.433 1320.6 388.908 1321.82 380.412C1323.41 369.342 1317.8 351.192 1309.5 340.894C1307.8 338.706 1306.46 336.646 1306.7 336.389C1306.94 336.131 1309.38 334.458 1312.06 332.656C1319.99 327.636 1329.14 316.823 1333.53 307.555C1337.55 299.316 1337.67 298.544 1337.67 284.256C1337.67 269.71 1337.55 269.066 1333.28 259.541C1328.41 248.728 1317.06 235.083 1308.28 229.162ZM1126.34 239.074C1133.53 241.262 1142.19 248.213 1146.09 255.036C1153.78 268.037 1151.09 286.702 1140.36 296.356C1133.78 302.406 1126.46 304.723 1114.27 304.723C1101.46 304.723 1097.44 306.654 1095.61 313.605C1094.88 316.823 1094.39 343.597 1094.39 387.878C1094.39 426.109 1093.9 459.062 1093.29 461.25C1090.61 470.905 1085.12 478.113 1076.71 482.747C1069.75 486.609 1054.39 486.609 1047.44 482.747C1041.71 479.529 1035.85 473.222 1032.68 466.914C1030.49 462.666 1030.37 457.389 1029.76 387.749C1029.15 319.14 1029.02 312.704 1026.95 309.486C1024.39 305.366 1023.05 304.98 1007.07 304.337C996.464 303.95 994.025 303.307 988.537 300.217C977.806 294.039 971.464 281.166 972.806 267.908C974.025 255.808 981.098 245.639 991.951 240.49C997.195 237.915 999.756 237.787 1059.63 237.787C1098.29 237.787 1123.53 238.302 1126.34 239.074ZM1288.53 240.104C1300.72 246.411 1306.58 255.937 1306.58 269.581C1306.58 283.998 1298.04 296.227 1285.36 300.217C1281.09 301.633 1273.41 302.148 1259.38 302.148C1232.55 302.148 1229.75 303.693 1229.75 318.239C1229.75 324.546 1230.24 325.962 1233.29 329.309L1236.82 333.042H1254.99C1274.75 333.042 1280.36 334.072 1285.72 338.963C1294.14 346.429 1295.72 365.352 1288.89 375.649C1282.68 385.046 1278.53 386.333 1255.12 387.106C1235.85 387.749 1234.51 387.878 1231.94 390.71C1229.51 393.156 1229.14 394.958 1229.14 403.196C1229.14 411.435 1229.51 413.237 1231.94 415.682C1234.51 418.514 1235.85 418.643 1258.77 419.415C1279.5 420.059 1283.77 420.445 1289.63 422.891C1300.72 427.525 1306.46 436.021 1307.55 449.537C1308.65 464.34 1300.85 476.311 1285.97 482.619C1279.38 485.45 1277.92 485.579 1236.46 485.579C1194.75 485.579 1193.65 485.45 1186.82 482.619C1177.56 478.628 1168.65 470.004 1165 461.508L1162.07 454.686V360.717V266.749L1165.24 259.67C1169.26 250.788 1174.87 244.866 1183.41 240.49C1189.14 237.658 1192.43 237.143 1206.58 236.371C1215.6 235.856 1235.97 235.598 1251.7 235.727L1280.36 235.856L1288.53 240.104ZM945.611 240.104C954.392 244.738 959.513 252.461 961.464 264.432C962.44 270.74 962.806 298.673 962.44 365.223C961.952 467.815 962.318 463.439 953.416 474.38C947.075 482.232 939.636 485.579 928.539 485.45C913.661 485.322 903.783 478.628 897.564 464.469C895.003 458.676 895.003 457.003 894.637 366.51C894.271 258.254 894.271 257.224 904.637 245.768C909.515 240.104 914.149 237.658 921.831 236.499C930.734 235.083 937.929 236.242 945.611 240.104ZM829.029 237.014C850.492 243.837 869.028 256.452 873.296 267.136C880.613 285.8 865.857 307.812 844.882 309.614C839.029 310.129 837.078 309.486 823.42 302.792C810.615 296.356 807.078 295.197 799.762 294.682C789.518 294.039 783.299 295.841 779.762 300.475C776.104 305.495 776.591 310.644 781.347 315.278C787.811 321.714 793.054 324.546 809.03 330.339C836.834 340.25 850.98 349.004 863.053 363.807C874.272 377.452 879.759 393.285 879.759 412.207C879.759 433.446 874.516 447.735 861.223 462.538C847.199 478.113 827.078 486.609 800.615 488.282C759.397 490.728 707.813 465.37 703.423 440.269C702.325 433.832 703.667 424.178 706.471 418.128C710.374 410.147 719.642 403.711 730.861 401.137C739.275 399.206 746.958 401.78 760.86 411.048C784.03 426.624 801.469 428.812 810.127 417.227C813.298 412.979 813.298 409.504 810.371 404.355C806.835 398.176 797.567 392.898 775.25 384.016C751.47 374.62 744.275 370.887 733.91 363.163C713.788 348.103 703.423 324.417 706.593 300.732C710.74 270.096 728.178 248.599 757.324 238.559C771.592 233.668 778.787 232.638 798.664 233.153C815.615 233.539 819.639 234.054 829.029 237.014Z" fill="black"/>
<path d="M762.013 166.932C761.254 167.631 761 172.367 761 183.549C761 202.108 760.831 201.72 769.105 201.72C781.6 201.72 787.426 196.129 787.51 184.248C787.595 178.657 787.341 177.57 784.977 173.765C781.432 168.019 777.295 166 769.021 166C765.475 166 762.604 166.388 762.013 166.932Z" fill="#E83232"/>
<path d="M675.419 179.012C666.669 182.019 662.076 190.152 662.003 202.869C661.93 212.382 663.242 217.508 666.888 222.338C670.753 227.317 675.784 229.436 683.294 229.141C691.825 228.845 697.075 225.493 700.429 218.247C703.929 210.804 704.074 196.461 700.793 189.067C698.97 184.976 695.325 181.131 691.606 179.455C687.742 177.73 679.867 177.484 675.419 179.012Z" fill="#E83232"/>
<path d="M1084.23 403.467C1080.77 405.467 1081.17 410.533 1086.63 433.333C1089.17 444.267 1098.77 485.733 1107.97 525.333C1117.03 564.8 1125.43 598.667 1126.5 600.267C1129.17 604.267 1134.37 605.467 1138.1 603.067C1139.7 602 1147.03 590.933 1154.5 578.533C1162.23 565.467 1168.9 555.867 1170.23 555.6C1173.17 555.067 1190.9 572.8 1212.37 598C1232.1 621.2 1233.03 622 1238.1 622C1241.43 622 1244.9 619.2 1258.63 605.733C1267.83 596.8 1275.57 588.133 1275.97 586.4C1277.17 582 1274.77 578.933 1247.17 547.867C1213.3 509.6 1215.7 512.8 1217.97 510.667C1219.03 509.733 1229.17 505.467 1240.5 501.333C1251.83 497.067 1263.43 492.533 1266.1 491.2C1274.23 487.067 1276.1 480.667 1270.9 475.733C1267.57 472.667 1093.03 402 1088.9 402C1087.57 402 1085.43 402.667 1084.23 403.467Z" fill="#E83232"/>
<path d="M224.72 545.46L112.868 438.329C103.946 429.784 97.9041 419.756 94.7432 408.244C91.6534 396.731 91.4409 385.228 94.1057 373.733C96.7689 362.167 102.34 352.03 110.819 343.323C119.507 334.398 129.5 328.393 140.8 325.307C152.169 322.15 163.566 321.904 174.989 324.57C186.484 327.235 196.763 332.803 205.825 341.274L220.614 355.021L234.796 340.65C243.556 331.794 253.585 325.788 264.883 322.632C276.181 319.476 287.542 319.231 298.966 321.897C310.459 324.491 320.738 330.059 329.802 338.601C338.649 346.935 344.652 356.822 347.811 368.263C350.969 379.632 351.217 391.135 348.555 402.772C345.964 414.407 340.396 424.685 331.851 433.608L224.72 545.46Z" fill="#E83232"/>
</svg>
