<svg width="1366" height="1366" viewBox="0 0 1366 1366" fill="none" xmlns="http://www.w3.org/2000/svg">
<path d="M196.5 182.5C196.683 181.989 196.894 181.524 197.13 181.102L197.361 181.56C197.074 181.681 196.787 181.99 196.5 182.5Z" fill="black"/>
<path d="M323.194 231.186C304.694 252.686 311.355 262.757 308.694 266.686L315.934 285.008C319.79 291.285 323.124 298.019 325.858 305.141C344.791 353.675 344.694 454.675 294.194 457.675C245.194 464.321 271.764 459.408 252.194 457.675C248.419 459.368 262.152 497.624 257.694 498.832L226 519.722L739.852 511.186C743.337 505.347 745.853 499.074 747.191 492.608C749.191 482.475 747.991 466.741 744.391 457.675C740.657 448.208 731.191 435.141 723.991 429.141L718.124 424.341L724.124 418.208C742.657 398.741 742.258 365.408 723.191 344.741L719.324 340.475L725.591 335.941C745.724 321.408 754.391 296.208 747.324 272.741C743.324 259.941 735.857 247.941 725.057 237.008C714.924 226.741 706.524 221.675 694.258 218.208C682.391 214.875 614.791 213.941 598.924 216.875C586.257 219.275 574.391 224.608 566.258 231.541L560.791 236.208L556.258 231.541C538.391 212.875 500.924 209.408 477.591 224.208C462.657 233.541 451.857 250.341 444.391 275.141C441.591 284.475 440.391 287.008 439.724 285.008C426.124 247.675 415.858 232.341 398.258 222.741C378.524 211.941 332.258 222.741 323.194 231.186ZM387.858 238.341C401.724 245.541 408.258 257.541 414.924 288.341C416.524 295.275 421.324 318.075 425.724 339.008C432.258 370.475 434.124 377.408 436.524 379.275C439.858 382.075 440.524 382.208 443.591 379.941C445.324 378.741 447.591 369.275 453.057 341.675C467.857 265.141 470.257 256.608 479.057 246.608C486.257 238.475 495.324 234.741 509.724 233.941C522.524 233.408 532.924 236.341 540.657 242.741C545.591 247.008 551.057 257.941 551.057 264.075C551.057 268.875 551.724 267.008 511.191 386.741C495.724 432.475 481.724 472.341 480.258 475.408C473.191 489.275 462.524 497.541 448.124 500.208C439.057 501.808 426.524 500.208 418.791 496.208C411.858 492.608 403.991 484.341 400.391 476.741C398.791 473.408 384.258 430.875 368.124 382.475C350.391 329.141 336.258 288.875 332.258 280.475C328.658 272.875 325.724 264.741 325.724 262.475C325.858 252.075 336.524 239.408 348.391 235.675C352.391 234.341 358.791 233.808 367.191 234.075C378.524 234.341 381.058 234.875 387.858 238.341ZM680.391 235.008C697.457 237.808 707.324 243.941 713.057 255.541C721.857 273.541 716.658 292.741 700.791 300.475C694.791 303.408 692.524 303.675 666.124 304.341C639.857 305.008 637.591 305.141 635.057 307.808C631.591 311.141 629.991 322.741 632.258 327.941C635.057 334.875 637.724 335.541 664.391 336.341C683.724 336.875 689.991 337.541 693.191 339.275C707.058 346.741 711.991 365.408 704.258 380.475C698.524 391.941 688.924 395.008 659.724 395.008C639.991 395.008 637.991 395.275 635.324 397.675C631.591 401.275 630.524 405.675 631.457 413.941C632.391 421.541 634.791 425.941 639.991 429.275C643.057 431.275 647.724 431.808 667.724 432.341C690.658 433.008 692.124 433.141 699.324 436.741C724.391 449.008 723.191 483.541 697.324 496.341C686.791 501.408 674.391 502.875 639.724 503.008C597.991 503.008 583.591 499.675 571.724 486.875C565.058 479.808 561.591 472.741 559.191 461.941C558.258 457.141 557.724 427.808 557.724 369.275C557.724 297.541 557.991 282.341 559.724 275.941C564.791 256.475 576.791 242.475 592.657 237.541C602.924 234.341 664.657 232.608 680.391 235.008Z" fill="black"/>
<path d="M142.5 353.5L118.781 335C121.164 310.118 116.921 237.19 111.566 214.498L110.714 212.816C96.5396 203.629 38.8069 210.761 79.7808 210.678C72.8474 209.211 59.614 207.478 54.2807 208.678C46.2807 210.278 40.1473 203.611 32.2807 208.678C22.6807 215.078 32.5807 201.911 27.7807 210.178C26.1807 212.978 62.2807 207.678 63.2807 210.678C62.7807 205.178 9.78066 208.178 0.780659 208.678C-0.152674 206.411 0.0110777 201.678 0.0110057 208.678V366.467L0.0110362 443.934C1.74437 472.734 -1.10299 492.6 8.23035 508.334C14.7137 519.424 19 528.5 43.5 531L215 528L223 501.5C225.322 499 271.482 469.605 265.5 455.5L231.5 408C229.633 407.2 199.567 403.9 188.5 403.5L180.944 387.5L154 376L142.5 353.5ZM100.411 430.867C103.878 437.934 108.011 438.867 137.611 438.867C164.811 439 172.278 440.2 180.944 446.067C187.344 450.334 192.544 458.6 194.411 467.134C198.544 487.267 186.011 504.067 163.611 508.334C152.811 510.334 72.5444 510.467 62.811 508.467C46.1444 504.867 33.0777 495 26.6777 481.134C22.011 470.867 20.811 459.934 20.811 427.534V224.867H77.4777C87.2777 221.6 92.9444 212.467 77.4777 224.867H97.0777V380.6C97.8777 420.2 98.411 426.6 100.411 430.867Z" fill="black"/>
<path d="M655.69 525.58C655.508 525.336 655.279 525.315 652.703 523.393C650.655 521.865 641.326 514.375 630.387 511.471C618.115 509.025 609.468 506.885 601.276 512.846L379.009 517.166L370.445 523.087C370.219 523.444 369.967 523.834 369.702 524.235C366.061 529.616 366 530.146 366 562.753C366 595.402 366.061 595.81 369.702 600.375C370.733 601.679 372.554 603.513 373.646 604.41L375.709 606L659.089 604.777C659.089 604.655 659.756 603.554 660.606 602.331C661.88 600.538 662.123 599.56 662.123 596.503C662.123 590.633 659.817 587.291 648.348 576.571L645.314 573.718L648.105 572.25C657.632 567.156 663.822 555.417 662.911 543.922C662.426 538.012 659.999 531.735 655.69 525.58ZM438.089 520.404C442.761 521.627 445.189 523.013 447.13 525.662C451.196 531.246 447.858 537.034 439.12 539.724C436.39 540.539 434.873 540.662 423.768 540.865C409.508 541.11 409.569 541.069 408.78 545.145C408.295 547.835 409.205 550.036 411.086 550.77C411.935 551.055 416.001 551.341 421.826 551.463C432.628 551.708 434.873 552.197 437.846 555.05C439.242 556.354 439.667 557.251 439.909 559.533C440.273 562.957 439.424 564.873 436.572 566.992C433.477 569.275 430.746 569.805 421.22 569.968C416.729 570.049 412.542 570.253 411.935 570.416C409.69 571.068 409.387 572.21 409.083 582.644C408.78 591.815 408.659 592.997 407.506 594.668C404.714 598.704 397.979 601.149 390.758 600.619C384.326 600.171 379.957 598.255 377.044 594.505L375.406 592.427V561.653V530.879L376.801 528.597C379.168 524.643 383.78 521.749 389.969 520.363C392.7 519.752 407.748 519.344 422.13 519.467C433.234 519.548 435.298 519.711 438.089 520.404ZM511.573 518.855C520.736 519.874 529.414 522.687 535.846 526.803C548.285 534.751 554.05 544.941 554.111 559.207C554.171 574.044 547.679 585.538 534.814 593.446C524.802 599.641 513.212 602.372 499.498 601.883C486.876 601.394 476.682 598.418 467.883 592.63C457.385 585.701 451.742 576.204 450.589 563.487C449.315 549.221 455.747 536.097 467.944 527.863C474.922 523.216 483.417 520.119 492.884 518.896C496.707 518.407 507.022 518.366 511.573 518.855ZM613.881 518.896C628.583 520.495 639.246 526.314 643.736 535.485C645.132 538.42 645.496 547.672 644.343 551.748C642.523 558.188 637.729 562.794 630.387 565.24C628.809 565.77 627.535 566.463 627.535 566.829C627.535 567.156 629.78 569.56 632.571 572.169C647.134 585.905 648.348 587.332 648.409 591.204C648.469 597.236 641.006 601.19 630.508 600.701C625.229 600.416 620.678 598.989 617.097 596.38C614.427 594.465 608.723 588.065 601.563 578.854C597.983 574.207 597.558 573.84 596.041 573.962L594.463 574.085L594.16 583.459C593.857 592.753 593.857 592.834 592.097 595.198C589.306 599.07 583.48 601.068 576.259 600.66C569.706 600.334 564.912 597.888 562.97 593.935C562.06 592.141 561.999 588.758 562.121 560.797L562.303 529.656L564.062 527.129C566.793 523.135 572.072 520.282 578.808 519.222C585.543 518.162 605.265 517.958 613.881 518.896Z" fill="black"/>
<path d="M1320.43 506.667C1317.23 504.667 1304.16 487 1266.3 487L1030.16 495H733L707 502C679.5 502 652.697 543.467 645.763 567.6C643.763 574.4 643.23 580.533 643.23 596.267C643.363 614.667 643.63 617.067 647.097 626.933C651.763 640.4 658.163 650.933 668.163 661.6L676.03 670L668.03 674.4C658.03 679.6 648.83 689.333 644.297 699.067C640.163 708.133 638.83 724.533 641.097 735.867C646.963 763.733 675.763 788.933 717.897 803.067C768.297 819.867 821.763 810.933 854.563 780L859.23 775.6L865.363 784C887.63 814.667 936.83 817.733 961.897 790C969.097 782.133 974.697 769.2 975.63 758.8C976.163 751.467 976.563 750.267 978.43 751.067C979.63 751.733 984.563 752.4 989.363 752.667L998.297 753.2L999.763 760.667C1002.96 777.2 1015.63 794.667 1030.16 802.533C1055.23 816.267 1086.3 810.8 1104.83 789.733C1111.63 782 1115.76 773.733 1118.56 762.267L1120.7 753.6L1131.36 753.2L1142.03 752.8L1144.3 760C1149.36 776.133 1163.23 791.733 1180.03 800.133C1196.83 808.533 1204.56 809.6 1251.23 809.6C1289.36 809.6 1293.5 809.333 1304.16 806.533C1318.03 803.067 1328.3 798.133 1331.36 793.6C1335.23 793.6 1335.23 789.733 1343.1 783.567L1348.03 777.067L1352.56 764.567C1355.9 757.767 1352.43 754.333 1355.1 750.567C1355.36 760.7 1350.7 736.533 1349.9 733.2C1348.3 726.667 1342.7 718.533 1331.36 706.667L1320.3 694.933L1324.7 688.933C1329.9 682 1333.9 672.133 1335.23 663.333C1336.96 651.867 1330.83 633.067 1321.76 622.4C1319.9 620.133 1318.43 618 1318.7 617.733C1318.96 617.467 1321.63 615.733 1324.56 613.867C1333.23 608.667 1343.23 597.467 1348.03 587.867C1352.43 579.333 1352.56 578.533 1352.56 563.733C1352.56 548.667 1352.43 548 1347.76 538.133C1342.43 526.933 1330.03 512.8 1320.43 506.667ZM1121.5 516.933C1129.36 519.2 1138.83 526.4 1143.1 533.467C1151.5 546.933 1148.56 566.267 1136.83 576.267C1129.63 582.533 1121.63 584.933 1108.3 584.933C1094.3 584.933 1089.9 586.933 1087.9 594.133C1087.1 597.467 1086.56 625.2 1086.56 671.067C1086.56 710.667 1086.03 744.8 1085.36 747.067C1082.43 757.067 1076.43 764.533 1067.23 769.333C1059.63 773.333 1042.83 773.333 1035.23 769.333C1028.96 766 1022.56 759.467 1019.1 752.933C1016.7 748.533 1016.56 743.067 1015.9 670.933C1015.23 599.867 1015.1 593.2 1012.83 589.867C1010.03 585.6 1008.56 585.2 991.097 584.533C979.497 584.133 976.83 583.467 970.83 580.267C959.097 573.867 952.163 560.533 953.63 546.8C954.963 534.267 962.697 523.733 974.563 518.4C980.297 515.733 983.097 515.6 1048.56 515.6C1090.83 515.6 1118.43 516.133 1121.5 516.933ZM1298.83 518C1312.16 524.533 1318.56 534.4 1318.56 548.533C1318.56 563.467 1309.23 576.133 1295.36 580.267C1290.7 581.733 1282.3 582.267 1266.96 582.267C1237.63 582.267 1234.56 583.867 1234.56 598.933C1234.56 605.467 1235.1 606.933 1238.43 610.4L1242.3 614.267H1262.16C1283.76 614.267 1289.9 615.333 1295.76 620.4C1304.96 628.133 1306.7 647.733 1299.23 658.4C1292.43 668.133 1287.9 669.467 1262.3 670.267C1241.23 670.933 1239.76 671.067 1236.96 674C1234.3 676.533 1233.9 678.4 1233.9 686.933C1233.9 695.467 1234.3 697.333 1236.96 699.867C1239.76 702.8 1241.23 702.933 1266.3 703.733C1288.96 704.4 1293.63 704.8 1300.03 707.333C1312.16 712.133 1318.43 720.933 1319.63 734.933C1320.83 750.267 1312.3 762.667 1296.03 769.2C1288.83 772.133 1287.23 772.267 1241.9 772.267C1196.3 772.267 1195.1 772.133 1187.63 769.2C1177.5 765.067 1167.76 756.133 1163.76 747.333L1160.56 740.267V642.933V545.6L1164.03 538.267C1168.43 529.067 1174.56 522.933 1183.9 518.4C1190.16 515.467 1193.76 514.933 1209.23 514.133C1219.1 513.6 1241.36 513.333 1258.56 513.467L1289.9 513.6L1298.83 518ZM923.897 518C933.497 522.8 939.097 530.8 941.23 543.2C942.297 549.733 942.697 578.667 942.297 647.6C941.763 753.867 942.163 749.333 932.43 760.667C925.497 768.8 917.363 772.267 905.23 772.133C888.963 772 878.163 765.067 871.363 750.4C868.563 744.4 868.563 742.667 868.163 648.933C867.763 536.8 867.763 535.733 879.097 523.867C884.43 518 889.497 515.467 897.897 514.267C907.63 512.8 915.497 514 923.897 518ZM796.43 514.8C819.897 521.867 840.163 534.933 844.83 546C852.83 565.333 836.697 588.133 813.763 590C807.363 590.533 805.23 589.867 790.297 582.933C776.297 576.267 772.43 575.067 764.43 574.533C753.23 573.867 746.43 575.733 742.563 580.533C738.563 585.733 739.097 591.067 744.297 595.867C751.363 602.533 757.097 605.467 774.563 611.467C804.963 621.733 820.43 630.8 833.63 646.133C845.897 660.267 851.897 676.667 851.897 696.267C851.897 718.267 846.163 733.067 831.63 748.4C816.297 764.533 794.297 773.333 765.363 775.067C720.297 777.6 663.897 751.333 659.097 725.333C657.897 718.667 659.363 708.667 662.43 702.4C666.697 694.133 676.83 687.467 689.097 684.8C698.297 682.8 706.697 685.467 721.897 695.067C747.23 711.2 766.297 713.467 775.763 701.467C779.23 697.067 779.23 693.467 776.03 688.133C772.163 681.733 762.03 676.267 737.63 667.067C711.63 657.333 703.763 653.467 692.43 645.467C670.43 629.867 659.097 605.333 662.563 580.8C667.097 549.067 686.163 526.8 718.03 516.4C733.63 511.333 741.497 510.267 763.23 510.8C781.763 511.2 786.163 511.733 796.43 514.8Z" fill="black"/>
<path d="M593.108 531.965C592.277 532.689 592 537.595 592 549.178C592 568.401 591.816 567.999 600.862 567.999C614.524 567.999 620.893 562.208 620.985 549.901C621.078 544.11 620.801 542.984 618.216 539.043C614.339 533.091 609.816 531 600.77 531C596.893 531 593.754 531.402 593.108 531.965Z" fill="black"/>
<path d="M486.169 531.975C476.602 535.089 471.58 543.513 471.5 556.686C471.42 566.539 472.855 571.849 476.841 576.853C481.067 582.009 486.567 584.205 494.779 583.899C504.106 583.592 509.846 580.12 513.513 572.615C517.34 564.906 517.499 550.048 513.912 542.39C511.919 538.152 507.933 534.17 503.867 532.434C499.642 530.647 491.032 530.392 486.169 531.975Z" fill="black"/>
<path d="M1046.23 621.467C1042.77 623.467 1043.17 628.533 1048.63 651.333C1051.17 662.267 1060.77 703.733 1069.97 743.333C1079.03 782.8 1087.43 816.667 1088.5 818.267C1091.17 822.267 1096.37 823.467 1100.1 821.067C1101.7 820 1109.03 808.933 1116.5 796.533C1124.23 783.467 1130.9 773.867 1132.23 773.6C1135.17 773.067 1152.9 790.8 1174.37 816C1194.1 839.2 1195.03 840 1200.1 840C1203.43 840 1206.9 837.2 1220.63 823.733C1229.83 814.8 1237.57 806.133 1237.97 804.4C1239.17 800 1236.77 796.933 1209.17 765.867C1175.3 727.6 1177.7 730.8 1179.97 728.667C1181.03 727.733 1191.17 723.467 1202.5 719.333C1213.83 715.067 1225.43 710.533 1228.1 709.2C1236.23 705.067 1238.1 698.667 1232.9 693.733C1229.57 690.667 1055.03 620 1050.9 620C1049.57 620 1047.43 620.667 1046.23 621.467Z" fill="#E83232"/>
<path d="M223.386 541.386L82.4744 400.474C71.2344 389.234 63.741 376.167 59.9943 361.271C56.339 346.376 56.3847 331.572 60.1314 316.859C63.8781 302.055 71.3258 289.17 82.4744 278.205C93.8973 266.964 106.919 259.517 121.54 255.862C136.253 252.115 150.92 252.115 165.541 255.862C180.254 259.608 193.322 267.056 204.744 278.205L223.386 296.298L242.028 278.205C253.543 267.056 266.61 259.608 281.232 255.862C295.853 252.115 310.474 252.115 325.095 255.862C339.808 259.517 352.875 266.964 364.298 278.205C375.447 289.17 382.895 302.055 386.641 316.859C390.388 331.572 390.388 346.376 386.641 361.271C382.986 376.167 375.538 389.234 364.298 400.474L223.386 541.386Z" fill="#E83232"/>
</svg>
